G04 (created by PCBNEW (2013-07-07 BZR 4022)-stable) date 02/12/2014 00:26:54*
%MOIN*%
G04 Gerber Fmt 3.4, Leading zero omitted, Abs format*
%FSLAX34Y34*%
G01*
G70*
G90*
G04 APERTURE LIST*
%ADD10C,0.005*%
%ADD11C,0.00393701*%
%ADD12C,0.00787402*%
%ADD13C,0.011811*%
G04 APERTURE END LIST*
G54D10*
G54D11*
X45200Y-12000D02*
X45200Y-38800D01*
X11000Y-38800D02*
X45200Y-38800D01*
X11000Y-12000D02*
X45200Y-12000D01*
X11000Y-12000D02*
X11000Y-38800D01*
G54D12*
X14957Y-13658D02*
X15311Y-14012D01*
X15311Y-13658D02*
X14957Y-14012D01*
X16689Y-13658D02*
X17043Y-14012D01*
X17043Y-13658D02*
X16689Y-14012D01*
G54D13*
X12048Y-40596D02*
X12048Y-39415D01*
X12330Y-39415D01*
X12498Y-39472D01*
X12611Y-39584D01*
X12667Y-39697D01*
X12723Y-39922D01*
X12723Y-40090D01*
X12667Y-40315D01*
X12611Y-40428D01*
X12498Y-40540D01*
X12330Y-40596D01*
X12048Y-40596D01*
X13230Y-40596D02*
X13230Y-39809D01*
X13230Y-40034D02*
X13286Y-39922D01*
X13342Y-39865D01*
X13455Y-39809D01*
X13567Y-39809D01*
X13961Y-40596D02*
X13961Y-39809D01*
X13961Y-39415D02*
X13904Y-39472D01*
X13961Y-39528D01*
X14017Y-39472D01*
X13961Y-39415D01*
X13961Y-39528D01*
X14692Y-40596D02*
X14579Y-40540D01*
X14523Y-40428D01*
X14523Y-39415D01*
X15311Y-40596D02*
X15198Y-40540D01*
X15142Y-40428D01*
X15142Y-39415D01*
X16660Y-40596D02*
X16660Y-39415D01*
X17054Y-40259D01*
X17448Y-39415D01*
X17448Y-40596D01*
X18516Y-40596D02*
X18516Y-39978D01*
X18460Y-39865D01*
X18348Y-39809D01*
X18123Y-39809D01*
X18010Y-39865D01*
X18516Y-40540D02*
X18404Y-40596D01*
X18123Y-40596D01*
X18010Y-40540D01*
X17954Y-40428D01*
X17954Y-40315D01*
X18010Y-40203D01*
X18123Y-40147D01*
X18404Y-40147D01*
X18516Y-40090D01*
X19079Y-39809D02*
X19079Y-40990D01*
X19079Y-39865D02*
X19191Y-39809D01*
X19416Y-39809D01*
X19529Y-39865D01*
X19585Y-39922D01*
X19641Y-40034D01*
X19641Y-40371D01*
X19585Y-40484D01*
X19529Y-40540D01*
X19416Y-40596D01*
X19191Y-40596D01*
X19079Y-40540D01*
X20147Y-40484D02*
X20204Y-40540D01*
X20147Y-40596D01*
X20091Y-40540D01*
X20147Y-40484D01*
X20147Y-40596D01*
X20147Y-39865D02*
X20204Y-39922D01*
X20147Y-39978D01*
X20091Y-39922D01*
X20147Y-39865D01*
X20147Y-39978D01*
X10626Y-42422D02*
X10980Y-42776D01*
X10980Y-42422D02*
X10626Y-42776D01*
X12273Y-41896D02*
X12386Y-41896D01*
X12498Y-41952D01*
X12555Y-42008D01*
X12611Y-42121D01*
X12667Y-42346D01*
X12667Y-42627D01*
X12611Y-42852D01*
X12555Y-42964D01*
X12498Y-43021D01*
X12386Y-43077D01*
X12273Y-43077D01*
X12161Y-43021D01*
X12105Y-42964D01*
X12048Y-42852D01*
X11992Y-42627D01*
X11992Y-42346D01*
X12048Y-42121D01*
X12105Y-42008D01*
X12161Y-41952D01*
X12273Y-41896D01*
X13173Y-42964D02*
X13230Y-43021D01*
X13173Y-43077D01*
X13117Y-43021D01*
X13173Y-42964D01*
X13173Y-43077D01*
X13792Y-43077D02*
X14017Y-43077D01*
X14129Y-43021D01*
X14186Y-42964D01*
X14298Y-42796D01*
X14354Y-42571D01*
X14354Y-42121D01*
X14298Y-42008D01*
X14242Y-41952D01*
X14129Y-41896D01*
X13904Y-41896D01*
X13792Y-41952D01*
X13736Y-42008D01*
X13679Y-42121D01*
X13679Y-42402D01*
X13736Y-42514D01*
X13792Y-42571D01*
X13904Y-42627D01*
X14129Y-42627D01*
X14242Y-42571D01*
X14298Y-42514D01*
X14354Y-42402D01*
X15086Y-41896D02*
X15198Y-41896D01*
X15311Y-41952D01*
X15367Y-42008D01*
X15423Y-42121D01*
X15479Y-42346D01*
X15479Y-42627D01*
X15423Y-42852D01*
X15367Y-42964D01*
X15311Y-43021D01*
X15198Y-43077D01*
X15086Y-43077D01*
X14973Y-43021D01*
X14917Y-42964D01*
X14861Y-42852D01*
X14804Y-42627D01*
X14804Y-42346D01*
X14861Y-42121D01*
X14917Y-42008D01*
X14973Y-41952D01*
X15086Y-41896D01*
X15985Y-43077D02*
X15985Y-42289D01*
X15985Y-42402D02*
X16042Y-42346D01*
X16154Y-42289D01*
X16323Y-42289D01*
X16435Y-42346D01*
X16492Y-42458D01*
X16492Y-43077D01*
X16492Y-42458D02*
X16548Y-42346D01*
X16660Y-42289D01*
X16829Y-42289D01*
X16942Y-42346D01*
X16998Y-42458D01*
X16998Y-43077D01*
X17560Y-43077D02*
X17560Y-42289D01*
X17560Y-42402D02*
X17616Y-42346D01*
X17729Y-42289D01*
X17898Y-42289D01*
X18010Y-42346D01*
X18066Y-42458D01*
X18066Y-43077D01*
X18066Y-42458D02*
X18123Y-42346D01*
X18235Y-42289D01*
X18404Y-42289D01*
X18516Y-42346D01*
X18573Y-42458D01*
X18573Y-43077D01*
X20879Y-41839D02*
X19866Y-43358D01*
X22397Y-41896D02*
X22510Y-41896D01*
X22622Y-41952D01*
X22678Y-42008D01*
X22735Y-42121D01*
X22791Y-42346D01*
X22791Y-42627D01*
X22735Y-42852D01*
X22678Y-42964D01*
X22622Y-43021D01*
X22510Y-43077D01*
X22397Y-43077D01*
X22285Y-43021D01*
X22228Y-42964D01*
X22172Y-42852D01*
X22116Y-42627D01*
X22116Y-42346D01*
X22172Y-42121D01*
X22228Y-42008D01*
X22285Y-41952D01*
X22397Y-41896D01*
X23297Y-42964D02*
X23353Y-43021D01*
X23297Y-43077D01*
X23241Y-43021D01*
X23297Y-42964D01*
X23297Y-43077D01*
X24084Y-41896D02*
X24197Y-41896D01*
X24309Y-41952D01*
X24366Y-42008D01*
X24422Y-42121D01*
X24478Y-42346D01*
X24478Y-42627D01*
X24422Y-42852D01*
X24366Y-42964D01*
X24309Y-43021D01*
X24197Y-43077D01*
X24084Y-43077D01*
X23972Y-43021D01*
X23916Y-42964D01*
X23859Y-42852D01*
X23803Y-42627D01*
X23803Y-42346D01*
X23859Y-42121D01*
X23916Y-42008D01*
X23972Y-41952D01*
X24084Y-41896D01*
X24872Y-41896D02*
X25603Y-41896D01*
X25209Y-42346D01*
X25378Y-42346D01*
X25491Y-42402D01*
X25547Y-42458D01*
X25603Y-42571D01*
X25603Y-42852D01*
X25547Y-42964D01*
X25491Y-43021D01*
X25378Y-43077D01*
X25041Y-43077D01*
X24928Y-43021D01*
X24872Y-42964D01*
X26672Y-41896D02*
X26109Y-41896D01*
X26053Y-42458D01*
X26109Y-42402D01*
X26222Y-42346D01*
X26503Y-42346D01*
X26615Y-42402D01*
X26672Y-42458D01*
X26728Y-42571D01*
X26728Y-42852D01*
X26672Y-42964D01*
X26615Y-43021D01*
X26503Y-43077D01*
X26222Y-43077D01*
X26109Y-43021D01*
X26053Y-42964D01*
X27178Y-41896D02*
X27178Y-42121D01*
X27628Y-41896D02*
X27628Y-42121D01*
X29371Y-43527D02*
X29315Y-43470D01*
X29203Y-43302D01*
X29146Y-43189D01*
X29090Y-43021D01*
X29034Y-42739D01*
X29034Y-42514D01*
X29090Y-42233D01*
X29146Y-42064D01*
X29203Y-41952D01*
X29315Y-41783D01*
X29371Y-41727D01*
X29765Y-42008D02*
X29821Y-41952D01*
X29934Y-41896D01*
X30215Y-41896D01*
X30327Y-41952D01*
X30384Y-42008D01*
X30440Y-42121D01*
X30440Y-42233D01*
X30384Y-42402D01*
X29709Y-43077D01*
X30440Y-43077D01*
X31846Y-43077D02*
X31846Y-41896D01*
X32352Y-43077D02*
X32352Y-42458D01*
X32296Y-42346D01*
X32183Y-42289D01*
X32015Y-42289D01*
X31902Y-42346D01*
X31846Y-42402D01*
X33083Y-43077D02*
X32971Y-43021D01*
X32915Y-42964D01*
X32858Y-42852D01*
X32858Y-42514D01*
X32915Y-42402D01*
X32971Y-42346D01*
X33083Y-42289D01*
X33252Y-42289D01*
X33365Y-42346D01*
X33421Y-42402D01*
X33477Y-42514D01*
X33477Y-42852D01*
X33421Y-42964D01*
X33365Y-43021D01*
X33252Y-43077D01*
X33083Y-43077D01*
X34152Y-43077D02*
X34039Y-43021D01*
X33983Y-42908D01*
X33983Y-41896D01*
X35052Y-43021D02*
X34939Y-43077D01*
X34714Y-43077D01*
X34602Y-43021D01*
X34546Y-42908D01*
X34546Y-42458D01*
X34602Y-42346D01*
X34714Y-42289D01*
X34939Y-42289D01*
X35052Y-42346D01*
X35108Y-42458D01*
X35108Y-42571D01*
X34546Y-42683D01*
X35558Y-43021D02*
X35670Y-43077D01*
X35895Y-43077D01*
X36008Y-43021D01*
X36064Y-42908D01*
X36064Y-42852D01*
X36008Y-42739D01*
X35895Y-42683D01*
X35727Y-42683D01*
X35614Y-42627D01*
X35558Y-42514D01*
X35558Y-42458D01*
X35614Y-42346D01*
X35727Y-42289D01*
X35895Y-42289D01*
X36008Y-42346D01*
X36458Y-43527D02*
X36514Y-43470D01*
X36627Y-43302D01*
X36683Y-43189D01*
X36739Y-43021D01*
X36795Y-42739D01*
X36795Y-42514D01*
X36739Y-42233D01*
X36683Y-42064D01*
X36627Y-41952D01*
X36514Y-41783D01*
X36458Y-41727D01*
M02*
