G04 (created by PCBNEW (2013-07-07 BZR 4022)-stable) date 02/12/2014 00:26:50*
%MOIN*%
G04 Gerber Fmt 3.4, Leading zero omitted, Abs format*
%FSLAX34Y34*%
G01*
G70*
G90*
G04 APERTURE LIST*
%ADD10C,0.00590551*%
%ADD11R,0.055X0.055*%
%ADD12C,0.055*%
%ADD13C,0.0688976*%
%ADD14C,0.06*%
%ADD15C,0.0787402*%
%ADD16C,0.0590551*%
%ADD17C,0.056*%
%ADD18R,0.1378X0.1378*%
%ADD19C,0.16*%
%ADD20R,0.06X0.06*%
%ADD21C,0.035*%
%ADD22C,0.019685*%
%ADD23C,0.01*%
%ADD24C,0.0393701*%
%ADD25C,0.0787402*%
%ADD26C,0.0590551*%
G04 APERTURE END LIST*
G54D10*
G54D11*
X38500Y-22000D03*
G54D12*
X37500Y-22000D03*
X37500Y-23000D03*
G54D13*
X36000Y-15500D03*
X36000Y-13500D03*
X36000Y-16500D03*
X36000Y-17500D03*
G54D14*
X13200Y-24800D03*
X14200Y-23800D03*
X15200Y-24800D03*
G54D12*
X24000Y-32500D03*
X27000Y-32500D03*
X26000Y-33500D03*
X26000Y-36500D03*
X41500Y-25400D03*
X41500Y-28400D03*
X38200Y-32500D03*
X41200Y-32500D03*
X39500Y-24400D03*
X42500Y-24400D03*
X40200Y-33500D03*
X40200Y-36500D03*
X33100Y-33500D03*
X33100Y-36500D03*
X31100Y-32500D03*
X34100Y-32500D03*
X31000Y-17000D03*
X34000Y-17000D03*
X24000Y-27000D03*
X21000Y-27000D03*
X24000Y-26000D03*
X21000Y-26000D03*
X34000Y-18000D03*
X31000Y-18000D03*
X33500Y-16000D03*
X33500Y-13000D03*
X43100Y-22000D03*
X40100Y-22000D03*
X17000Y-26900D03*
X17000Y-29900D03*
G54D15*
X14622Y-36507D03*
X17377Y-36507D03*
G54D16*
X16885Y-37492D03*
X15114Y-37492D03*
G54D17*
X21500Y-23000D03*
X21500Y-21000D03*
G54D11*
X36200Y-36500D03*
G54D12*
X37200Y-36500D03*
X38200Y-36500D03*
X39200Y-36500D03*
X39200Y-33500D03*
X38200Y-33500D03*
X37200Y-33500D03*
X36200Y-33500D03*
G54D11*
X12900Y-29900D03*
G54D12*
X13900Y-29900D03*
X14900Y-29900D03*
X15900Y-29900D03*
X15900Y-26900D03*
X14900Y-26900D03*
X13900Y-26900D03*
X12900Y-26900D03*
G54D11*
X29100Y-36500D03*
G54D12*
X30100Y-36500D03*
X31100Y-36500D03*
X32100Y-36500D03*
X32100Y-33500D03*
X31100Y-33500D03*
X30100Y-33500D03*
X29100Y-33500D03*
G54D11*
X22000Y-36500D03*
G54D12*
X23000Y-36500D03*
X24000Y-36500D03*
X25000Y-36500D03*
X25000Y-33500D03*
X24000Y-33500D03*
X23000Y-33500D03*
X22000Y-33500D03*
G54D11*
X37500Y-28400D03*
G54D12*
X38500Y-28400D03*
X39500Y-28400D03*
X40500Y-28400D03*
X40500Y-25400D03*
X39500Y-25400D03*
X38500Y-25400D03*
X37500Y-25400D03*
X25000Y-15000D03*
X25000Y-16000D03*
X25000Y-17000D03*
X25000Y-18000D03*
X25000Y-19000D03*
X25000Y-20000D03*
X25000Y-21000D03*
X25000Y-22000D03*
X25000Y-23000D03*
X25000Y-24000D03*
X25000Y-25000D03*
X25000Y-26000D03*
X25000Y-27000D03*
G54D11*
X25000Y-14000D03*
G54D12*
X28000Y-27000D03*
X28000Y-26000D03*
X28000Y-25000D03*
X28000Y-24000D03*
X28000Y-23000D03*
X28000Y-22000D03*
X28000Y-21000D03*
X28000Y-20000D03*
X28000Y-19000D03*
X28000Y-18000D03*
X28000Y-17000D03*
X28000Y-16000D03*
X28000Y-15000D03*
X28000Y-14000D03*
G54D11*
X42500Y-28400D03*
G54D12*
X42500Y-25400D03*
G54D11*
X34100Y-36500D03*
G54D12*
X34100Y-33500D03*
G54D11*
X41200Y-36500D03*
G54D12*
X41200Y-33500D03*
G54D11*
X27000Y-36500D03*
G54D12*
X27000Y-33500D03*
X23000Y-32500D03*
X21000Y-32500D03*
X26000Y-37500D03*
X24000Y-37500D03*
X38500Y-24400D03*
X36500Y-24400D03*
X41500Y-29400D03*
X39500Y-29400D03*
X39500Y-23400D03*
X41500Y-23400D03*
X24000Y-31500D03*
X26000Y-31500D03*
X33100Y-37500D03*
X31100Y-37500D03*
X38200Y-31500D03*
X40200Y-31500D03*
X30100Y-32500D03*
X28100Y-32500D03*
X40200Y-37500D03*
X38200Y-37500D03*
X37200Y-32500D03*
X35200Y-32500D03*
X31100Y-31500D03*
X33100Y-31500D03*
X13900Y-31400D03*
X14900Y-31400D03*
G54D18*
X40000Y-16441D03*
X40000Y-14079D03*
X38150Y-15260D03*
G54D11*
X40800Y-20900D03*
G54D12*
X40800Y-17900D03*
X38500Y-18500D03*
X38500Y-19500D03*
X20300Y-37500D03*
X19300Y-37500D03*
X21300Y-37500D03*
G54D19*
X12700Y-17080D03*
X12700Y-33720D03*
X43499Y-17080D03*
X43499Y-33720D03*
G54D11*
X32000Y-20000D03*
G54D12*
X32000Y-21000D03*
X31000Y-21000D03*
G54D11*
X34500Y-23000D03*
G54D12*
X34500Y-22000D03*
X35500Y-22000D03*
G54D11*
X16600Y-24800D03*
G54D12*
X17600Y-24800D03*
X17600Y-23800D03*
G54D20*
X30500Y-25500D03*
G54D14*
X30500Y-24500D03*
X31500Y-25500D03*
X31500Y-24500D03*
X32500Y-25500D03*
X32500Y-24500D03*
G54D20*
X34000Y-28000D03*
G54D14*
X34000Y-29000D03*
X33000Y-28000D03*
X33000Y-29000D03*
X32000Y-28000D03*
X32000Y-29000D03*
X31000Y-28000D03*
X31000Y-29000D03*
G54D21*
X29000Y-17000D03*
X33100Y-21900D03*
X29800Y-27000D03*
X38800Y-27000D03*
X22300Y-31500D03*
X21900Y-31100D03*
X21600Y-30700D03*
X24000Y-17000D03*
X16000Y-20000D03*
X30200Y-23400D03*
X16000Y-18800D03*
X24000Y-15000D03*
X24000Y-16000D03*
X16000Y-19400D03*
X35200Y-36500D03*
X28100Y-36500D03*
X29500Y-19200D03*
X13000Y-22200D03*
X16500Y-17400D03*
X22500Y-18800D03*
X19500Y-21100D03*
X13800Y-16000D03*
X16000Y-17400D03*
X16200Y-15800D03*
X15600Y-15800D03*
X15400Y-17400D03*
X21300Y-30300D03*
X25000Y-28200D03*
X19500Y-35500D03*
G54D22*
X29000Y-17000D02*
X31000Y-17000D01*
X25000Y-20000D02*
X26000Y-20000D01*
X26000Y-20000D02*
X28000Y-22000D01*
G54D23*
X31800Y-19100D02*
X32600Y-19100D01*
X35000Y-21500D02*
X35500Y-22000D01*
X32600Y-19100D02*
X35000Y-21500D01*
X29900Y-18500D02*
X28900Y-18500D01*
X29900Y-18500D02*
X30500Y-19100D01*
X31900Y-19100D02*
X31800Y-19100D01*
X31800Y-19100D02*
X30500Y-19100D01*
X25000Y-18000D02*
X25500Y-18000D01*
X26000Y-18500D02*
X28900Y-18500D01*
X28900Y-18500D02*
X29000Y-18500D01*
X25500Y-18000D02*
X26000Y-18500D01*
G54D22*
X31100Y-21000D02*
X31000Y-21000D01*
X32000Y-21900D02*
X31100Y-21000D01*
X33100Y-21900D02*
X32000Y-21900D01*
X31000Y-21000D02*
X30500Y-21000D01*
X30500Y-21000D02*
X28000Y-21000D01*
G54D23*
X38800Y-27000D02*
X29800Y-27000D01*
G54D24*
X41500Y-28400D02*
X42500Y-28400D01*
G54D23*
X20400Y-31800D02*
X20700Y-31500D01*
X39100Y-35400D02*
X40200Y-36500D01*
X39000Y-35300D02*
X38900Y-35200D01*
X39100Y-35400D02*
X39000Y-35300D01*
X38900Y-35200D02*
X21000Y-35200D01*
X21000Y-35200D02*
X20400Y-34600D01*
X20400Y-34600D02*
X20400Y-31800D01*
X20700Y-31500D02*
X22300Y-31500D01*
G54D24*
X40200Y-36500D02*
X41200Y-36500D01*
G54D23*
X20100Y-31700D02*
X20700Y-31100D01*
X32100Y-35500D02*
X21000Y-35500D01*
X33100Y-36500D02*
X32100Y-35500D01*
X20100Y-31800D02*
X20100Y-31700D01*
X20100Y-34700D02*
X20100Y-31800D01*
X20900Y-35500D02*
X20100Y-34700D01*
X21000Y-35500D02*
X20900Y-35500D01*
X20700Y-31100D02*
X21900Y-31100D01*
G54D24*
X33100Y-36500D02*
X34100Y-36500D01*
G54D23*
X19800Y-31600D02*
X20700Y-30700D01*
X25900Y-36500D02*
X25200Y-35800D01*
X25200Y-35800D02*
X20900Y-35800D01*
X26000Y-36500D02*
X25900Y-36500D01*
X20800Y-35800D02*
X20900Y-35800D01*
X19800Y-34800D02*
X19800Y-31600D01*
X20800Y-35800D02*
X19800Y-34800D01*
X20700Y-30700D02*
X21600Y-30700D01*
G54D24*
X26000Y-36500D02*
X27000Y-36500D01*
G54D23*
X21600Y-17000D02*
X24000Y-17000D01*
X20400Y-18200D02*
X21600Y-17000D01*
X17800Y-18200D02*
X20400Y-18200D01*
X16000Y-20000D02*
X17800Y-18200D01*
G54D22*
X24000Y-27000D02*
X25000Y-27000D01*
X24000Y-26000D02*
X25000Y-26000D01*
G54D23*
X28000Y-25000D02*
X31000Y-25000D01*
X31000Y-25000D02*
X31500Y-24500D01*
X32000Y-25000D02*
X32000Y-24000D01*
X32000Y-24000D02*
X31400Y-23400D01*
X31400Y-23400D02*
X30200Y-23400D01*
X32000Y-25000D02*
X32500Y-25500D01*
X17400Y-17400D02*
X20000Y-17400D01*
X16000Y-18800D02*
X17400Y-17400D01*
X22400Y-15000D02*
X24000Y-15000D01*
X20000Y-17400D02*
X22400Y-15000D01*
G54D24*
X39500Y-24400D02*
X39500Y-23400D01*
X38200Y-32500D02*
X38200Y-31500D01*
X31100Y-32500D02*
X31100Y-31500D01*
X24000Y-32500D02*
X24000Y-31500D01*
G54D23*
X22000Y-16000D02*
X24000Y-16000D01*
X20200Y-17800D02*
X22000Y-16000D01*
X17600Y-17800D02*
X20200Y-17800D01*
X16000Y-19400D02*
X17600Y-17800D01*
X25000Y-22000D02*
X22500Y-22000D01*
X22500Y-22000D02*
X21500Y-21000D01*
X25000Y-23000D02*
X21500Y-23000D01*
G54D24*
X40200Y-33500D02*
X40200Y-32500D01*
X40200Y-31500D02*
X40200Y-32500D01*
X38200Y-33500D02*
X39200Y-32500D01*
X39200Y-32500D02*
X40200Y-32500D01*
X40200Y-32500D02*
X41200Y-32500D01*
X38200Y-33500D02*
X38200Y-33400D01*
X41500Y-24500D02*
X41500Y-23400D01*
X41500Y-25400D02*
X41500Y-24500D01*
X41500Y-24500D02*
X41500Y-24400D01*
X39500Y-25400D02*
X39500Y-25300D01*
X40400Y-24400D02*
X41500Y-24400D01*
X41500Y-24400D02*
X42500Y-24400D01*
X39500Y-25300D02*
X40400Y-24400D01*
X26000Y-32500D02*
X26000Y-33500D01*
X26000Y-31500D02*
X26000Y-32500D01*
X27000Y-32500D02*
X26000Y-32500D01*
X26000Y-32500D02*
X24900Y-32500D01*
X24000Y-33400D02*
X24000Y-33500D01*
X24900Y-32500D02*
X24000Y-33400D01*
G54D25*
X36000Y-15500D02*
X36000Y-15000D01*
X39400Y-13400D02*
X40000Y-14079D01*
X37600Y-13400D02*
X39400Y-13400D01*
X36000Y-15000D02*
X37600Y-13400D01*
G54D23*
X16000Y-16000D02*
X16000Y-17400D01*
X16200Y-15800D02*
X16000Y-16000D01*
X15600Y-15800D02*
X15400Y-16000D01*
X15400Y-16000D02*
X15400Y-17400D01*
G54D25*
X40000Y-16441D02*
X40000Y-17100D01*
X40000Y-17100D02*
X40800Y-17900D01*
G54D23*
X19500Y-31400D02*
X20600Y-30300D01*
X20600Y-30300D02*
X21300Y-30300D01*
X25000Y-28200D02*
X26800Y-28200D01*
X26800Y-28200D02*
X28000Y-27000D01*
X19500Y-34800D02*
X19500Y-31500D01*
X19500Y-31500D02*
X19500Y-31400D01*
X19500Y-35500D02*
X19500Y-34800D01*
X15114Y-37485D02*
X15114Y-37492D01*
G54D22*
X33000Y-28000D02*
X34000Y-28000D01*
X32000Y-28000D02*
X33000Y-28000D01*
X31000Y-28000D02*
X32000Y-28000D01*
X14900Y-26900D02*
X15700Y-27700D01*
X30400Y-28600D02*
X31000Y-28000D01*
X22200Y-28600D02*
X30400Y-28600D01*
X21300Y-27700D02*
X22200Y-28600D01*
X15700Y-27700D02*
X21300Y-27700D01*
G54D24*
X33100Y-33500D02*
X33100Y-32400D01*
X33100Y-31500D02*
X33100Y-32400D01*
X33100Y-32400D02*
X33200Y-32400D01*
X31100Y-33500D02*
X32200Y-32400D01*
X34000Y-32400D02*
X34100Y-32500D01*
X32200Y-32400D02*
X33200Y-32400D01*
X33200Y-32400D02*
X34000Y-32400D01*
G54D22*
X14200Y-23800D02*
X14200Y-24700D01*
X13000Y-31400D02*
X12100Y-30500D01*
X12100Y-30500D02*
X12100Y-26800D01*
X13000Y-31400D02*
X13900Y-31400D01*
X12100Y-26800D02*
X14200Y-24700D01*
X13900Y-31400D02*
X13900Y-30900D01*
X13900Y-30900D02*
X14900Y-29900D01*
X15200Y-24800D02*
X16600Y-24800D01*
X16600Y-24800D02*
X16600Y-26500D01*
X16600Y-26500D02*
X17000Y-26900D01*
G54D24*
X23000Y-30400D02*
X21000Y-28400D01*
X15400Y-28400D02*
X13900Y-26900D01*
X21000Y-28400D02*
X15400Y-28400D01*
X37200Y-32500D02*
X37200Y-30400D01*
X37200Y-33500D02*
X37200Y-32500D01*
X38500Y-24400D02*
X38500Y-22000D01*
X38500Y-25400D02*
X38500Y-24400D01*
X30100Y-32500D02*
X30100Y-30400D01*
X30100Y-30400D02*
X30000Y-30400D01*
X30100Y-33500D02*
X30100Y-32500D01*
G54D26*
X38500Y-18500D02*
X39100Y-18500D01*
X39600Y-19000D02*
X39600Y-21000D01*
X39100Y-18500D02*
X39600Y-19000D01*
X38500Y-22000D02*
X38600Y-22000D01*
X38600Y-22000D02*
X39600Y-21000D01*
X39600Y-21000D02*
X39700Y-20900D01*
X39700Y-20900D02*
X40800Y-20900D01*
X43600Y-30400D02*
X43600Y-22500D01*
X38000Y-30400D02*
X43600Y-30400D01*
X43600Y-22500D02*
X43100Y-22000D01*
X37200Y-30400D02*
X38000Y-30400D01*
X40800Y-20900D02*
X42000Y-20900D01*
X42000Y-20900D02*
X43100Y-22000D01*
X30400Y-30400D02*
X35800Y-30400D01*
X35800Y-30400D02*
X37200Y-30400D01*
G54D24*
X30500Y-30400D02*
X30400Y-30400D01*
X23000Y-32500D02*
X23000Y-30400D01*
G54D26*
X23000Y-30400D02*
X30000Y-30400D01*
X30000Y-30400D02*
X30400Y-30400D01*
G54D24*
X23000Y-33500D02*
X23000Y-32500D01*
X15900Y-29900D02*
X17000Y-29900D01*
X26000Y-38400D02*
X19200Y-38400D01*
X18200Y-32200D02*
X15900Y-29900D01*
X18200Y-37400D02*
X18200Y-32200D01*
X19200Y-38400D02*
X18200Y-37400D01*
X41500Y-29400D02*
X40500Y-28400D01*
X40500Y-28400D02*
X40500Y-27600D01*
X40500Y-27600D02*
X39200Y-26300D01*
X39200Y-26300D02*
X36800Y-26300D01*
X36800Y-26300D02*
X35700Y-25200D01*
X35700Y-25200D02*
X35700Y-23800D01*
X35700Y-23800D02*
X37500Y-22000D01*
X40200Y-37500D02*
X40200Y-38400D01*
X39200Y-36500D02*
X40200Y-37500D01*
G54D26*
X38500Y-19500D02*
X37500Y-19500D01*
X36000Y-16500D02*
X36700Y-16500D01*
X37500Y-17300D02*
X37500Y-19500D01*
X37500Y-19500D02*
X37500Y-22000D01*
X36700Y-16500D02*
X37500Y-17300D01*
X35000Y-12400D02*
X40800Y-12400D01*
X35500Y-16500D02*
X35000Y-16000D01*
X35000Y-16000D02*
X35000Y-12400D01*
X40800Y-12400D02*
X41800Y-13400D01*
X41800Y-13400D02*
X41800Y-19600D01*
X41800Y-19600D02*
X44400Y-22200D01*
X44400Y-22200D02*
X44400Y-31200D01*
X44400Y-31200D02*
X42000Y-31200D01*
X42000Y-31200D02*
X42000Y-38400D01*
X42000Y-38400D02*
X40200Y-38400D01*
X36000Y-16500D02*
X35500Y-16500D01*
G54D24*
X33100Y-37500D02*
X33100Y-38400D01*
X33100Y-38400D02*
X33000Y-38400D01*
X32100Y-36500D02*
X33100Y-37500D01*
X26000Y-37500D02*
X26000Y-38400D01*
G54D26*
X33000Y-38400D02*
X26000Y-38400D01*
X40200Y-38400D02*
X33000Y-38400D01*
G54D24*
X25000Y-36500D02*
X26000Y-37500D01*
G54D10*
G36*
X25553Y-37953D02*
X24728Y-37953D01*
X24523Y-37953D01*
X24477Y-37906D01*
X24626Y-37893D01*
X24728Y-37623D01*
X24720Y-37335D01*
X24626Y-37106D01*
X24477Y-37093D01*
X24406Y-37164D01*
X24406Y-37022D01*
X24404Y-37000D01*
X24406Y-36977D01*
X24401Y-36972D01*
X24393Y-36873D01*
X24247Y-36818D01*
X24000Y-36570D01*
X23760Y-36810D01*
X23606Y-36873D01*
X23598Y-36972D01*
X23593Y-36977D01*
X23595Y-37000D01*
X23593Y-37022D01*
X23598Y-37027D01*
X23606Y-37126D01*
X23752Y-37181D01*
X24000Y-37429D01*
X24239Y-37189D01*
X24393Y-37126D01*
X24401Y-37027D01*
X24406Y-37022D01*
X24406Y-37164D01*
X24070Y-37500D01*
X24076Y-37505D01*
X24005Y-37576D01*
X24000Y-37570D01*
X23994Y-37576D01*
X23929Y-37511D01*
X23923Y-37505D01*
X23929Y-37500D01*
X23522Y-37093D01*
X23373Y-37106D01*
X23271Y-37376D01*
X23279Y-37664D01*
X23373Y-37893D01*
X23522Y-37906D01*
X23476Y-37953D01*
X21578Y-37953D01*
X21597Y-37945D01*
X21744Y-37797D01*
X21824Y-37604D01*
X21825Y-37396D01*
X21745Y-37203D01*
X21597Y-37055D01*
X21404Y-36975D01*
X21196Y-36974D01*
X21003Y-37054D01*
X20933Y-37124D01*
X20926Y-37106D01*
X20777Y-37093D01*
X20706Y-37164D01*
X20706Y-37022D01*
X20693Y-36873D01*
X20423Y-36771D01*
X20135Y-36779D01*
X19906Y-36873D01*
X19893Y-37022D01*
X20300Y-37429D01*
X20706Y-37022D01*
X20706Y-37164D01*
X20370Y-37500D01*
X20376Y-37505D01*
X20305Y-37576D01*
X20300Y-37570D01*
X20294Y-37576D01*
X20223Y-37505D01*
X20229Y-37500D01*
X19822Y-37093D01*
X19673Y-37106D01*
X19667Y-37124D01*
X19597Y-37055D01*
X19404Y-36975D01*
X19196Y-36974D01*
X19003Y-37054D01*
X18855Y-37202D01*
X18790Y-37358D01*
X18646Y-37214D01*
X18646Y-32200D01*
X18612Y-32028D01*
X18515Y-31884D01*
X18515Y-31884D01*
X17056Y-30425D01*
X17103Y-30425D01*
X17297Y-30345D01*
X17444Y-30197D01*
X17524Y-30004D01*
X17525Y-29796D01*
X17445Y-29603D01*
X17297Y-29455D01*
X17104Y-29375D01*
X16896Y-29374D01*
X16706Y-29453D01*
X16192Y-29453D01*
X16004Y-29375D01*
X15796Y-29374D01*
X15603Y-29454D01*
X15455Y-29602D01*
X15399Y-29735D01*
X15345Y-29603D01*
X15197Y-29455D01*
X15004Y-29375D01*
X14796Y-29374D01*
X14603Y-29454D01*
X14455Y-29602D01*
X14399Y-29735D01*
X14345Y-29603D01*
X14197Y-29455D01*
X14004Y-29375D01*
X13796Y-29374D01*
X13603Y-29454D01*
X13455Y-29602D01*
X13425Y-29674D01*
X13425Y-29575D01*
X13387Y-29483D01*
X13316Y-29413D01*
X13224Y-29375D01*
X13125Y-29374D01*
X12575Y-29374D01*
X12483Y-29412D01*
X12448Y-29448D01*
X12448Y-27181D01*
X12454Y-27197D01*
X12602Y-27344D01*
X12795Y-27424D01*
X13003Y-27425D01*
X13197Y-27345D01*
X13344Y-27197D01*
X13400Y-27064D01*
X13454Y-27197D01*
X13602Y-27344D01*
X13791Y-27423D01*
X15084Y-28715D01*
X15084Y-28715D01*
X15228Y-28812D01*
X15400Y-28846D01*
X20814Y-28846D01*
X22476Y-30508D01*
X22496Y-30608D01*
X22553Y-30693D01*
X22553Y-31152D01*
X22541Y-31139D01*
X22384Y-31075D01*
X22325Y-31075D01*
X22325Y-31015D01*
X22260Y-30859D01*
X22141Y-30739D01*
X22025Y-30691D01*
X22025Y-30615D01*
X21960Y-30459D01*
X21841Y-30339D01*
X21725Y-30291D01*
X21725Y-30215D01*
X21660Y-30059D01*
X21541Y-29939D01*
X21384Y-29875D01*
X21215Y-29874D01*
X21059Y-29939D01*
X20998Y-30000D01*
X20600Y-30000D01*
X20485Y-30022D01*
X20387Y-30087D01*
X19287Y-31187D01*
X19222Y-31285D01*
X19200Y-31400D01*
X19200Y-31500D01*
X19200Y-34800D01*
X19200Y-35198D01*
X19139Y-35258D01*
X19075Y-35415D01*
X19074Y-35584D01*
X19139Y-35740D01*
X19258Y-35860D01*
X19415Y-35924D01*
X19584Y-35925D01*
X19740Y-35860D01*
X19860Y-35741D01*
X19924Y-35584D01*
X19925Y-35415D01*
X19878Y-35302D01*
X20587Y-36012D01*
X20587Y-36012D01*
X20685Y-36077D01*
X20800Y-36100D01*
X20900Y-36100D01*
X21506Y-36100D01*
X21475Y-36175D01*
X21474Y-36274D01*
X21474Y-36824D01*
X21512Y-36916D01*
X21583Y-36986D01*
X21675Y-37024D01*
X21774Y-37025D01*
X22324Y-37025D01*
X22416Y-36987D01*
X22486Y-36916D01*
X22524Y-36824D01*
X22525Y-36725D01*
X22525Y-36725D01*
X22554Y-36797D01*
X22702Y-36944D01*
X22895Y-37024D01*
X23103Y-37025D01*
X23297Y-36945D01*
X23366Y-36875D01*
X23373Y-36893D01*
X23522Y-36906D01*
X23929Y-36500D01*
X23923Y-36494D01*
X23994Y-36423D01*
X24000Y-36429D01*
X24005Y-36423D01*
X24076Y-36494D01*
X24070Y-36500D01*
X24477Y-36906D01*
X24626Y-36893D01*
X24632Y-36875D01*
X24702Y-36944D01*
X24891Y-37023D01*
X25476Y-37608D01*
X25553Y-37793D01*
X25553Y-37953D01*
X25553Y-37953D01*
G37*
G54D23*
X25553Y-37953D02*
X24728Y-37953D01*
X24523Y-37953D01*
X24477Y-37906D01*
X24626Y-37893D01*
X24728Y-37623D01*
X24720Y-37335D01*
X24626Y-37106D01*
X24477Y-37093D01*
X24406Y-37164D01*
X24406Y-37022D01*
X24404Y-37000D01*
X24406Y-36977D01*
X24401Y-36972D01*
X24393Y-36873D01*
X24247Y-36818D01*
X24000Y-36570D01*
X23760Y-36810D01*
X23606Y-36873D01*
X23598Y-36972D01*
X23593Y-36977D01*
X23595Y-37000D01*
X23593Y-37022D01*
X23598Y-37027D01*
X23606Y-37126D01*
X23752Y-37181D01*
X24000Y-37429D01*
X24239Y-37189D01*
X24393Y-37126D01*
X24401Y-37027D01*
X24406Y-37022D01*
X24406Y-37164D01*
X24070Y-37500D01*
X24076Y-37505D01*
X24005Y-37576D01*
X24000Y-37570D01*
X23994Y-37576D01*
X23929Y-37511D01*
X23923Y-37505D01*
X23929Y-37500D01*
X23522Y-37093D01*
X23373Y-37106D01*
X23271Y-37376D01*
X23279Y-37664D01*
X23373Y-37893D01*
X23522Y-37906D01*
X23476Y-37953D01*
X21578Y-37953D01*
X21597Y-37945D01*
X21744Y-37797D01*
X21824Y-37604D01*
X21825Y-37396D01*
X21745Y-37203D01*
X21597Y-37055D01*
X21404Y-36975D01*
X21196Y-36974D01*
X21003Y-37054D01*
X20933Y-37124D01*
X20926Y-37106D01*
X20777Y-37093D01*
X20706Y-37164D01*
X20706Y-37022D01*
X20693Y-36873D01*
X20423Y-36771D01*
X20135Y-36779D01*
X19906Y-36873D01*
X19893Y-37022D01*
X20300Y-37429D01*
X20706Y-37022D01*
X20706Y-37164D01*
X20370Y-37500D01*
X20376Y-37505D01*
X20305Y-37576D01*
X20300Y-37570D01*
X20294Y-37576D01*
X20223Y-37505D01*
X20229Y-37500D01*
X19822Y-37093D01*
X19673Y-37106D01*
X19667Y-37124D01*
X19597Y-37055D01*
X19404Y-36975D01*
X19196Y-36974D01*
X19003Y-37054D01*
X18855Y-37202D01*
X18790Y-37358D01*
X18646Y-37214D01*
X18646Y-32200D01*
X18612Y-32028D01*
X18515Y-31884D01*
X18515Y-31884D01*
X17056Y-30425D01*
X17103Y-30425D01*
X17297Y-30345D01*
X17444Y-30197D01*
X17524Y-30004D01*
X17525Y-29796D01*
X17445Y-29603D01*
X17297Y-29455D01*
X17104Y-29375D01*
X16896Y-29374D01*
X16706Y-29453D01*
X16192Y-29453D01*
X16004Y-29375D01*
X15796Y-29374D01*
X15603Y-29454D01*
X15455Y-29602D01*
X15399Y-29735D01*
X15345Y-29603D01*
X15197Y-29455D01*
X15004Y-29375D01*
X14796Y-29374D01*
X14603Y-29454D01*
X14455Y-29602D01*
X14399Y-29735D01*
X14345Y-29603D01*
X14197Y-29455D01*
X14004Y-29375D01*
X13796Y-29374D01*
X13603Y-29454D01*
X13455Y-29602D01*
X13425Y-29674D01*
X13425Y-29575D01*
X13387Y-29483D01*
X13316Y-29413D01*
X13224Y-29375D01*
X13125Y-29374D01*
X12575Y-29374D01*
X12483Y-29412D01*
X12448Y-29448D01*
X12448Y-27181D01*
X12454Y-27197D01*
X12602Y-27344D01*
X12795Y-27424D01*
X13003Y-27425D01*
X13197Y-27345D01*
X13344Y-27197D01*
X13400Y-27064D01*
X13454Y-27197D01*
X13602Y-27344D01*
X13791Y-27423D01*
X15084Y-28715D01*
X15084Y-28715D01*
X15228Y-28812D01*
X15400Y-28846D01*
X20814Y-28846D01*
X22476Y-30508D01*
X22496Y-30608D01*
X22553Y-30693D01*
X22553Y-31152D01*
X22541Y-31139D01*
X22384Y-31075D01*
X22325Y-31075D01*
X22325Y-31015D01*
X22260Y-30859D01*
X22141Y-30739D01*
X22025Y-30691D01*
X22025Y-30615D01*
X21960Y-30459D01*
X21841Y-30339D01*
X21725Y-30291D01*
X21725Y-30215D01*
X21660Y-30059D01*
X21541Y-29939D01*
X21384Y-29875D01*
X21215Y-29874D01*
X21059Y-29939D01*
X20998Y-30000D01*
X20600Y-30000D01*
X20485Y-30022D01*
X20387Y-30087D01*
X19287Y-31187D01*
X19222Y-31285D01*
X19200Y-31400D01*
X19200Y-31500D01*
X19200Y-34800D01*
X19200Y-35198D01*
X19139Y-35258D01*
X19075Y-35415D01*
X19074Y-35584D01*
X19139Y-35740D01*
X19258Y-35860D01*
X19415Y-35924D01*
X19584Y-35925D01*
X19740Y-35860D01*
X19860Y-35741D01*
X19924Y-35584D01*
X19925Y-35415D01*
X19878Y-35302D01*
X20587Y-36012D01*
X20587Y-36012D01*
X20685Y-36077D01*
X20800Y-36100D01*
X20900Y-36100D01*
X21506Y-36100D01*
X21475Y-36175D01*
X21474Y-36274D01*
X21474Y-36824D01*
X21512Y-36916D01*
X21583Y-36986D01*
X21675Y-37024D01*
X21774Y-37025D01*
X22324Y-37025D01*
X22416Y-36987D01*
X22486Y-36916D01*
X22524Y-36824D01*
X22525Y-36725D01*
X22525Y-36725D01*
X22554Y-36797D01*
X22702Y-36944D01*
X22895Y-37024D01*
X23103Y-37025D01*
X23297Y-36945D01*
X23366Y-36875D01*
X23373Y-36893D01*
X23522Y-36906D01*
X23929Y-36500D01*
X23923Y-36494D01*
X23994Y-36423D01*
X24000Y-36429D01*
X24005Y-36423D01*
X24076Y-36494D01*
X24070Y-36500D01*
X24477Y-36906D01*
X24626Y-36893D01*
X24632Y-36875D01*
X24702Y-36944D01*
X24891Y-37023D01*
X25476Y-37608D01*
X25553Y-37793D01*
X25553Y-37953D01*
G54D10*
G36*
X32653Y-37854D02*
X31740Y-37854D01*
X31828Y-37623D01*
X31820Y-37335D01*
X31726Y-37106D01*
X31577Y-37093D01*
X31506Y-37164D01*
X31506Y-37022D01*
X31504Y-37000D01*
X31506Y-36977D01*
X31501Y-36972D01*
X31493Y-36873D01*
X31347Y-36818D01*
X31100Y-36570D01*
X31029Y-36641D01*
X31029Y-36500D01*
X30622Y-36093D01*
X30473Y-36106D01*
X30467Y-36124D01*
X30397Y-36055D01*
X30204Y-35975D01*
X29996Y-35974D01*
X29803Y-36054D01*
X29655Y-36202D01*
X29625Y-36274D01*
X29625Y-36175D01*
X29587Y-36083D01*
X29516Y-36013D01*
X29424Y-35975D01*
X29325Y-35974D01*
X28775Y-35974D01*
X28683Y-36012D01*
X28613Y-36083D01*
X28575Y-36175D01*
X28574Y-36274D01*
X28574Y-36824D01*
X28612Y-36916D01*
X28683Y-36986D01*
X28775Y-37024D01*
X28874Y-37025D01*
X29424Y-37025D01*
X29516Y-36987D01*
X29586Y-36916D01*
X29624Y-36824D01*
X29625Y-36725D01*
X29625Y-36725D01*
X29654Y-36797D01*
X29802Y-36944D01*
X29995Y-37024D01*
X30203Y-37025D01*
X30397Y-36945D01*
X30466Y-36875D01*
X30473Y-36893D01*
X30622Y-36906D01*
X31029Y-36500D01*
X31029Y-36641D01*
X30860Y-36810D01*
X30706Y-36873D01*
X30698Y-36972D01*
X30693Y-36977D01*
X30695Y-37000D01*
X30693Y-37022D01*
X30698Y-37027D01*
X30706Y-37126D01*
X30852Y-37181D01*
X31100Y-37429D01*
X31339Y-37189D01*
X31493Y-37126D01*
X31501Y-37027D01*
X31506Y-37022D01*
X31506Y-37164D01*
X31170Y-37500D01*
X31176Y-37505D01*
X31105Y-37576D01*
X31100Y-37570D01*
X31094Y-37576D01*
X31023Y-37505D01*
X31029Y-37500D01*
X30622Y-37093D01*
X30473Y-37106D01*
X30371Y-37376D01*
X30379Y-37664D01*
X30458Y-37854D01*
X26446Y-37854D01*
X26446Y-37792D01*
X26524Y-37604D01*
X26525Y-37396D01*
X26445Y-37203D01*
X26297Y-37055D01*
X26164Y-36999D01*
X26293Y-36946D01*
X26543Y-36946D01*
X26583Y-36986D01*
X26675Y-37024D01*
X26774Y-37025D01*
X27324Y-37025D01*
X27416Y-36987D01*
X27486Y-36916D01*
X27524Y-36824D01*
X27525Y-36725D01*
X27525Y-36175D01*
X27487Y-36083D01*
X27416Y-36013D01*
X27324Y-35975D01*
X27225Y-35974D01*
X26675Y-35974D01*
X26583Y-36012D01*
X26543Y-36053D01*
X26292Y-36053D01*
X26104Y-35975D01*
X25896Y-35974D01*
X25827Y-36003D01*
X25624Y-35800D01*
X30885Y-35800D01*
X30706Y-35873D01*
X30693Y-36022D01*
X31100Y-36429D01*
X31506Y-36022D01*
X31493Y-35873D01*
X31299Y-35800D01*
X31975Y-35800D01*
X32150Y-35975D01*
X31996Y-35974D01*
X31803Y-36054D01*
X31733Y-36124D01*
X31726Y-36106D01*
X31577Y-36093D01*
X31170Y-36500D01*
X31577Y-36906D01*
X31726Y-36893D01*
X31732Y-36875D01*
X31802Y-36944D01*
X31991Y-37023D01*
X32576Y-37608D01*
X32653Y-37793D01*
X32653Y-37854D01*
X32653Y-37854D01*
G37*
G54D23*
X32653Y-37854D02*
X31740Y-37854D01*
X31828Y-37623D01*
X31820Y-37335D01*
X31726Y-37106D01*
X31577Y-37093D01*
X31506Y-37164D01*
X31506Y-37022D01*
X31504Y-37000D01*
X31506Y-36977D01*
X31501Y-36972D01*
X31493Y-36873D01*
X31347Y-36818D01*
X31100Y-36570D01*
X31029Y-36641D01*
X31029Y-36500D01*
X30622Y-36093D01*
X30473Y-36106D01*
X30467Y-36124D01*
X30397Y-36055D01*
X30204Y-35975D01*
X29996Y-35974D01*
X29803Y-36054D01*
X29655Y-36202D01*
X29625Y-36274D01*
X29625Y-36175D01*
X29587Y-36083D01*
X29516Y-36013D01*
X29424Y-35975D01*
X29325Y-35974D01*
X28775Y-35974D01*
X28683Y-36012D01*
X28613Y-36083D01*
X28575Y-36175D01*
X28574Y-36274D01*
X28574Y-36824D01*
X28612Y-36916D01*
X28683Y-36986D01*
X28775Y-37024D01*
X28874Y-37025D01*
X29424Y-37025D01*
X29516Y-36987D01*
X29586Y-36916D01*
X29624Y-36824D01*
X29625Y-36725D01*
X29625Y-36725D01*
X29654Y-36797D01*
X29802Y-36944D01*
X29995Y-37024D01*
X30203Y-37025D01*
X30397Y-36945D01*
X30466Y-36875D01*
X30473Y-36893D01*
X30622Y-36906D01*
X31029Y-36500D01*
X31029Y-36641D01*
X30860Y-36810D01*
X30706Y-36873D01*
X30698Y-36972D01*
X30693Y-36977D01*
X30695Y-37000D01*
X30693Y-37022D01*
X30698Y-37027D01*
X30706Y-37126D01*
X30852Y-37181D01*
X31100Y-37429D01*
X31339Y-37189D01*
X31493Y-37126D01*
X31501Y-37027D01*
X31506Y-37022D01*
X31506Y-37164D01*
X31170Y-37500D01*
X31176Y-37505D01*
X31105Y-37576D01*
X31100Y-37570D01*
X31094Y-37576D01*
X31023Y-37505D01*
X31029Y-37500D01*
X30622Y-37093D01*
X30473Y-37106D01*
X30371Y-37376D01*
X30379Y-37664D01*
X30458Y-37854D01*
X26446Y-37854D01*
X26446Y-37792D01*
X26524Y-37604D01*
X26525Y-37396D01*
X26445Y-37203D01*
X26297Y-37055D01*
X26164Y-36999D01*
X26293Y-36946D01*
X26543Y-36946D01*
X26583Y-36986D01*
X26675Y-37024D01*
X26774Y-37025D01*
X27324Y-37025D01*
X27416Y-36987D01*
X27486Y-36916D01*
X27524Y-36824D01*
X27525Y-36725D01*
X27525Y-36175D01*
X27487Y-36083D01*
X27416Y-36013D01*
X27324Y-35975D01*
X27225Y-35974D01*
X26675Y-35974D01*
X26583Y-36012D01*
X26543Y-36053D01*
X26292Y-36053D01*
X26104Y-35975D01*
X25896Y-35974D01*
X25827Y-36003D01*
X25624Y-35800D01*
X30885Y-35800D01*
X30706Y-35873D01*
X30693Y-36022D01*
X31100Y-36429D01*
X31506Y-36022D01*
X31493Y-35873D01*
X31299Y-35800D01*
X31975Y-35800D01*
X32150Y-35975D01*
X31996Y-35974D01*
X31803Y-36054D01*
X31733Y-36124D01*
X31726Y-36106D01*
X31577Y-36093D01*
X31170Y-36500D01*
X31577Y-36906D01*
X31726Y-36893D01*
X31732Y-36875D01*
X31802Y-36944D01*
X31991Y-37023D01*
X32576Y-37608D01*
X32653Y-37793D01*
X32653Y-37854D01*
G54D10*
G36*
X38053Y-25107D02*
X37999Y-25235D01*
X37945Y-25103D01*
X37906Y-25063D01*
X37906Y-23477D01*
X37500Y-23070D01*
X37093Y-23477D01*
X37106Y-23626D01*
X37376Y-23728D01*
X37664Y-23720D01*
X37893Y-23626D01*
X37906Y-23477D01*
X37906Y-25063D01*
X37797Y-24955D01*
X37604Y-24875D01*
X37396Y-24874D01*
X37228Y-24944D01*
X37228Y-24523D01*
X37220Y-24235D01*
X37126Y-24006D01*
X36977Y-23993D01*
X36570Y-24400D01*
X36977Y-24806D01*
X37126Y-24793D01*
X37228Y-24523D01*
X37228Y-24944D01*
X37203Y-24954D01*
X37055Y-25102D01*
X36975Y-25295D01*
X36974Y-25503D01*
X37054Y-25697D01*
X37202Y-25844D01*
X37222Y-25853D01*
X36985Y-25853D01*
X36189Y-25057D01*
X36376Y-25128D01*
X36664Y-25120D01*
X36893Y-25026D01*
X36906Y-24877D01*
X36500Y-24470D01*
X36494Y-24476D01*
X36423Y-24405D01*
X36429Y-24400D01*
X36423Y-24394D01*
X36494Y-24323D01*
X36500Y-24329D01*
X36906Y-23922D01*
X36893Y-23773D01*
X36623Y-23671D01*
X36455Y-23675D01*
X36834Y-23297D01*
X36873Y-23393D01*
X37022Y-23406D01*
X37429Y-23000D01*
X37423Y-22994D01*
X37494Y-22923D01*
X37500Y-22929D01*
X37906Y-22522D01*
X37893Y-22374D01*
X37943Y-22299D01*
X37944Y-22297D01*
X37945Y-22295D01*
X37974Y-22251D01*
X37974Y-22324D01*
X38012Y-22416D01*
X38053Y-22456D01*
X38053Y-22600D01*
X37977Y-22593D01*
X37570Y-23000D01*
X37977Y-23406D01*
X38053Y-23399D01*
X38053Y-24107D01*
X37975Y-24295D01*
X37974Y-24503D01*
X38053Y-24693D01*
X38053Y-25107D01*
X38053Y-25107D01*
G37*
G54D23*
X38053Y-25107D02*
X37999Y-25235D01*
X37945Y-25103D01*
X37906Y-25063D01*
X37906Y-23477D01*
X37500Y-23070D01*
X37093Y-23477D01*
X37106Y-23626D01*
X37376Y-23728D01*
X37664Y-23720D01*
X37893Y-23626D01*
X37906Y-23477D01*
X37906Y-25063D01*
X37797Y-24955D01*
X37604Y-24875D01*
X37396Y-24874D01*
X37228Y-24944D01*
X37228Y-24523D01*
X37220Y-24235D01*
X37126Y-24006D01*
X36977Y-23993D01*
X36570Y-24400D01*
X36977Y-24806D01*
X37126Y-24793D01*
X37228Y-24523D01*
X37228Y-24944D01*
X37203Y-24954D01*
X37055Y-25102D01*
X36975Y-25295D01*
X36974Y-25503D01*
X37054Y-25697D01*
X37202Y-25844D01*
X37222Y-25853D01*
X36985Y-25853D01*
X36189Y-25057D01*
X36376Y-25128D01*
X36664Y-25120D01*
X36893Y-25026D01*
X36906Y-24877D01*
X36500Y-24470D01*
X36494Y-24476D01*
X36423Y-24405D01*
X36429Y-24400D01*
X36423Y-24394D01*
X36494Y-24323D01*
X36500Y-24329D01*
X36906Y-23922D01*
X36893Y-23773D01*
X36623Y-23671D01*
X36455Y-23675D01*
X36834Y-23297D01*
X36873Y-23393D01*
X37022Y-23406D01*
X37429Y-23000D01*
X37423Y-22994D01*
X37494Y-22923D01*
X37500Y-22929D01*
X37906Y-22522D01*
X37893Y-22374D01*
X37943Y-22299D01*
X37944Y-22297D01*
X37945Y-22295D01*
X37974Y-22251D01*
X37974Y-22324D01*
X38012Y-22416D01*
X38053Y-22456D01*
X38053Y-22600D01*
X37977Y-22593D01*
X37570Y-23000D01*
X37977Y-23406D01*
X38053Y-23399D01*
X38053Y-24107D01*
X37975Y-24295D01*
X37974Y-24503D01*
X38053Y-24693D01*
X38053Y-25107D01*
G54D10*
G36*
X39753Y-37854D02*
X38840Y-37854D01*
X38928Y-37623D01*
X38920Y-37335D01*
X38826Y-37106D01*
X38677Y-37093D01*
X38606Y-37164D01*
X38606Y-37022D01*
X38604Y-37000D01*
X38606Y-36977D01*
X38601Y-36972D01*
X38593Y-36873D01*
X38447Y-36818D01*
X38200Y-36570D01*
X38129Y-36641D01*
X38129Y-36500D01*
X37722Y-36093D01*
X37573Y-36106D01*
X37567Y-36124D01*
X37497Y-36055D01*
X37304Y-35975D01*
X37096Y-35974D01*
X36903Y-36054D01*
X36755Y-36202D01*
X36725Y-36274D01*
X36725Y-36175D01*
X36687Y-36083D01*
X36616Y-36013D01*
X36524Y-35975D01*
X36425Y-35974D01*
X35875Y-35974D01*
X35783Y-36012D01*
X35713Y-36083D01*
X35675Y-36175D01*
X35674Y-36274D01*
X35674Y-36824D01*
X35712Y-36916D01*
X35783Y-36986D01*
X35875Y-37024D01*
X35974Y-37025D01*
X36524Y-37025D01*
X36616Y-36987D01*
X36686Y-36916D01*
X36724Y-36824D01*
X36725Y-36725D01*
X36725Y-36725D01*
X36754Y-36797D01*
X36902Y-36944D01*
X37095Y-37024D01*
X37303Y-37025D01*
X37497Y-36945D01*
X37566Y-36875D01*
X37573Y-36893D01*
X37722Y-36906D01*
X38129Y-36500D01*
X38129Y-36641D01*
X37960Y-36810D01*
X37806Y-36873D01*
X37798Y-36972D01*
X37793Y-36977D01*
X37795Y-37000D01*
X37793Y-37022D01*
X37798Y-37027D01*
X37806Y-37126D01*
X37952Y-37181D01*
X38200Y-37429D01*
X38439Y-37189D01*
X38593Y-37126D01*
X38601Y-37027D01*
X38606Y-37022D01*
X38606Y-37164D01*
X38270Y-37500D01*
X38276Y-37505D01*
X38205Y-37576D01*
X38200Y-37570D01*
X38194Y-37576D01*
X38123Y-37505D01*
X38129Y-37500D01*
X37722Y-37093D01*
X37573Y-37106D01*
X37471Y-37376D01*
X37479Y-37664D01*
X37558Y-37854D01*
X33546Y-37854D01*
X33546Y-37792D01*
X33624Y-37604D01*
X33625Y-37396D01*
X33545Y-37203D01*
X33397Y-37055D01*
X33264Y-36999D01*
X33393Y-36946D01*
X33643Y-36946D01*
X33683Y-36986D01*
X33775Y-37024D01*
X33874Y-37025D01*
X34424Y-37025D01*
X34516Y-36987D01*
X34586Y-36916D01*
X34624Y-36824D01*
X34625Y-36725D01*
X34625Y-36175D01*
X34587Y-36083D01*
X34516Y-36013D01*
X34424Y-35975D01*
X34325Y-35974D01*
X33775Y-35974D01*
X33683Y-36012D01*
X33643Y-36053D01*
X33392Y-36053D01*
X33204Y-35975D01*
X32999Y-35974D01*
X32524Y-35500D01*
X38775Y-35500D01*
X38787Y-35512D01*
X38787Y-35512D01*
X38787Y-35512D01*
X38887Y-35612D01*
X38887Y-35612D01*
X38887Y-35612D01*
X39250Y-35975D01*
X39096Y-35974D01*
X38903Y-36054D01*
X38833Y-36124D01*
X38826Y-36106D01*
X38677Y-36093D01*
X38606Y-36164D01*
X38606Y-36022D01*
X38593Y-35873D01*
X38323Y-35771D01*
X38035Y-35779D01*
X37806Y-35873D01*
X37793Y-36022D01*
X38200Y-36429D01*
X38606Y-36022D01*
X38606Y-36164D01*
X38270Y-36500D01*
X38677Y-36906D01*
X38826Y-36893D01*
X38832Y-36875D01*
X38902Y-36944D01*
X39091Y-37023D01*
X39676Y-37608D01*
X39753Y-37793D01*
X39753Y-37854D01*
X39753Y-37854D01*
G37*
G54D23*
X39753Y-37854D02*
X38840Y-37854D01*
X38928Y-37623D01*
X38920Y-37335D01*
X38826Y-37106D01*
X38677Y-37093D01*
X38606Y-37164D01*
X38606Y-37022D01*
X38604Y-37000D01*
X38606Y-36977D01*
X38601Y-36972D01*
X38593Y-36873D01*
X38447Y-36818D01*
X38200Y-36570D01*
X38129Y-36641D01*
X38129Y-36500D01*
X37722Y-36093D01*
X37573Y-36106D01*
X37567Y-36124D01*
X37497Y-36055D01*
X37304Y-35975D01*
X37096Y-35974D01*
X36903Y-36054D01*
X36755Y-36202D01*
X36725Y-36274D01*
X36725Y-36175D01*
X36687Y-36083D01*
X36616Y-36013D01*
X36524Y-35975D01*
X36425Y-35974D01*
X35875Y-35974D01*
X35783Y-36012D01*
X35713Y-36083D01*
X35675Y-36175D01*
X35674Y-36274D01*
X35674Y-36824D01*
X35712Y-36916D01*
X35783Y-36986D01*
X35875Y-37024D01*
X35974Y-37025D01*
X36524Y-37025D01*
X36616Y-36987D01*
X36686Y-36916D01*
X36724Y-36824D01*
X36725Y-36725D01*
X36725Y-36725D01*
X36754Y-36797D01*
X36902Y-36944D01*
X37095Y-37024D01*
X37303Y-37025D01*
X37497Y-36945D01*
X37566Y-36875D01*
X37573Y-36893D01*
X37722Y-36906D01*
X38129Y-36500D01*
X38129Y-36641D01*
X37960Y-36810D01*
X37806Y-36873D01*
X37798Y-36972D01*
X37793Y-36977D01*
X37795Y-37000D01*
X37793Y-37022D01*
X37798Y-37027D01*
X37806Y-37126D01*
X37952Y-37181D01*
X38200Y-37429D01*
X38439Y-37189D01*
X38593Y-37126D01*
X38601Y-37027D01*
X38606Y-37022D01*
X38606Y-37164D01*
X38270Y-37500D01*
X38276Y-37505D01*
X38205Y-37576D01*
X38200Y-37570D01*
X38194Y-37576D01*
X38123Y-37505D01*
X38129Y-37500D01*
X37722Y-37093D01*
X37573Y-37106D01*
X37471Y-37376D01*
X37479Y-37664D01*
X37558Y-37854D01*
X33546Y-37854D01*
X33546Y-37792D01*
X33624Y-37604D01*
X33625Y-37396D01*
X33545Y-37203D01*
X33397Y-37055D01*
X33264Y-36999D01*
X33393Y-36946D01*
X33643Y-36946D01*
X33683Y-36986D01*
X33775Y-37024D01*
X33874Y-37025D01*
X34424Y-37025D01*
X34516Y-36987D01*
X34586Y-36916D01*
X34624Y-36824D01*
X34625Y-36725D01*
X34625Y-36175D01*
X34587Y-36083D01*
X34516Y-36013D01*
X34424Y-35975D01*
X34325Y-35974D01*
X33775Y-35974D01*
X33683Y-36012D01*
X33643Y-36053D01*
X33392Y-36053D01*
X33204Y-35975D01*
X32999Y-35974D01*
X32524Y-35500D01*
X38775Y-35500D01*
X38787Y-35512D01*
X38787Y-35512D01*
X38787Y-35512D01*
X38887Y-35612D01*
X38887Y-35612D01*
X38887Y-35612D01*
X39250Y-35975D01*
X39096Y-35974D01*
X38903Y-36054D01*
X38833Y-36124D01*
X38826Y-36106D01*
X38677Y-36093D01*
X38606Y-36164D01*
X38606Y-36022D01*
X38593Y-35873D01*
X38323Y-35771D01*
X38035Y-35779D01*
X37806Y-35873D01*
X37793Y-36022D01*
X38200Y-36429D01*
X38606Y-36022D01*
X38606Y-36164D01*
X38270Y-36500D01*
X38677Y-36906D01*
X38826Y-36893D01*
X38832Y-36875D01*
X38902Y-36944D01*
X39091Y-37023D01*
X39676Y-37608D01*
X39753Y-37793D01*
X39753Y-37854D01*
G54D10*
G36*
X41226Y-29854D02*
X40228Y-29854D01*
X40025Y-29854D01*
X39977Y-29806D01*
X40126Y-29793D01*
X40228Y-29523D01*
X40220Y-29235D01*
X40126Y-29006D01*
X39977Y-28993D01*
X39906Y-29064D01*
X39906Y-28922D01*
X39904Y-28900D01*
X39906Y-28877D01*
X39901Y-28872D01*
X39893Y-28773D01*
X39747Y-28718D01*
X39500Y-28470D01*
X39429Y-28541D01*
X39429Y-28400D01*
X39022Y-27993D01*
X38873Y-28006D01*
X38867Y-28024D01*
X38797Y-27955D01*
X38604Y-27875D01*
X38396Y-27874D01*
X38203Y-27954D01*
X38055Y-28102D01*
X38025Y-28174D01*
X38025Y-28075D01*
X37987Y-27983D01*
X37916Y-27913D01*
X37824Y-27875D01*
X37725Y-27874D01*
X37175Y-27874D01*
X37083Y-27912D01*
X37013Y-27983D01*
X36975Y-28075D01*
X36974Y-28174D01*
X36974Y-28724D01*
X37012Y-28816D01*
X37083Y-28886D01*
X37175Y-28924D01*
X37274Y-28925D01*
X37824Y-28925D01*
X37916Y-28887D01*
X37986Y-28816D01*
X38024Y-28724D01*
X38025Y-28625D01*
X38025Y-28625D01*
X38054Y-28697D01*
X38202Y-28844D01*
X38395Y-28924D01*
X38603Y-28925D01*
X38797Y-28845D01*
X38866Y-28775D01*
X38873Y-28793D01*
X39022Y-28806D01*
X39429Y-28400D01*
X39429Y-28541D01*
X39260Y-28710D01*
X39106Y-28773D01*
X39098Y-28872D01*
X39093Y-28877D01*
X39095Y-28900D01*
X39093Y-28922D01*
X39098Y-28927D01*
X39106Y-29026D01*
X39252Y-29081D01*
X39500Y-29329D01*
X39739Y-29089D01*
X39893Y-29026D01*
X39901Y-28927D01*
X39906Y-28922D01*
X39906Y-29064D01*
X39570Y-29400D01*
X39576Y-29405D01*
X39505Y-29476D01*
X39500Y-29470D01*
X39494Y-29476D01*
X39429Y-29411D01*
X39423Y-29405D01*
X39429Y-29400D01*
X39022Y-28993D01*
X38873Y-29006D01*
X38771Y-29276D01*
X38779Y-29564D01*
X38873Y-29793D01*
X39022Y-29806D01*
X38974Y-29854D01*
X38000Y-29854D01*
X37200Y-29854D01*
X35800Y-29854D01*
X30400Y-29854D01*
X30000Y-29854D01*
X23086Y-29854D01*
X22175Y-28943D01*
X22200Y-28948D01*
X22200Y-28948D01*
X22200Y-28948D01*
X30399Y-28948D01*
X30400Y-28948D01*
X30400Y-28948D01*
X30450Y-28938D01*
X30449Y-29108D01*
X30533Y-29311D01*
X30688Y-29465D01*
X30890Y-29549D01*
X31108Y-29550D01*
X31311Y-29466D01*
X31465Y-29311D01*
X31499Y-29230D01*
X31533Y-29311D01*
X31688Y-29465D01*
X31890Y-29549D01*
X32108Y-29550D01*
X32311Y-29466D01*
X32465Y-29311D01*
X32499Y-29230D01*
X32533Y-29311D01*
X32688Y-29465D01*
X32890Y-29549D01*
X33108Y-29550D01*
X33311Y-29466D01*
X33465Y-29311D01*
X33499Y-29230D01*
X33533Y-29311D01*
X33688Y-29465D01*
X33890Y-29549D01*
X34108Y-29550D01*
X34311Y-29466D01*
X34465Y-29311D01*
X34549Y-29109D01*
X34550Y-28891D01*
X34466Y-28688D01*
X34327Y-28550D01*
X34349Y-28550D01*
X34441Y-28512D01*
X34511Y-28441D01*
X34549Y-28349D01*
X34550Y-28250D01*
X34550Y-27650D01*
X34512Y-27558D01*
X34441Y-27488D01*
X34349Y-27450D01*
X34250Y-27449D01*
X33650Y-27449D01*
X33558Y-27487D01*
X33488Y-27558D01*
X33450Y-27650D01*
X33450Y-27651D01*
X33429Y-27651D01*
X33311Y-27534D01*
X33109Y-27450D01*
X32891Y-27449D01*
X32688Y-27533D01*
X32570Y-27651D01*
X32429Y-27651D01*
X32311Y-27534D01*
X32109Y-27450D01*
X31891Y-27449D01*
X31688Y-27533D01*
X31570Y-27651D01*
X31429Y-27651D01*
X31311Y-27534D01*
X31109Y-27450D01*
X30891Y-27449D01*
X30688Y-27533D01*
X30534Y-27688D01*
X30450Y-27890D01*
X30449Y-28057D01*
X30255Y-28251D01*
X27172Y-28251D01*
X27899Y-27524D01*
X28103Y-27525D01*
X28297Y-27445D01*
X28444Y-27297D01*
X28524Y-27104D01*
X28525Y-26896D01*
X28445Y-26703D01*
X28297Y-26555D01*
X28164Y-26499D01*
X28297Y-26445D01*
X28444Y-26297D01*
X28524Y-26104D01*
X28525Y-25896D01*
X28445Y-25703D01*
X28297Y-25555D01*
X28164Y-25499D01*
X28297Y-25445D01*
X28442Y-25300D01*
X29949Y-25300D01*
X29949Y-25849D01*
X29987Y-25941D01*
X30058Y-26011D01*
X30150Y-26049D01*
X30249Y-26050D01*
X30849Y-26050D01*
X30941Y-26012D01*
X31011Y-25941D01*
X31049Y-25849D01*
X31049Y-25827D01*
X31188Y-25965D01*
X31390Y-26049D01*
X31608Y-26050D01*
X31811Y-25966D01*
X31965Y-25811D01*
X31999Y-25730D01*
X32033Y-25811D01*
X32188Y-25965D01*
X32390Y-26049D01*
X32608Y-26050D01*
X32811Y-25966D01*
X32965Y-25811D01*
X33049Y-25609D01*
X33050Y-25391D01*
X32966Y-25188D01*
X32909Y-25131D01*
X32924Y-24995D01*
X32500Y-24570D01*
X32494Y-24576D01*
X32423Y-24505D01*
X32429Y-24500D01*
X32423Y-24494D01*
X32494Y-24423D01*
X32500Y-24429D01*
X32924Y-24004D01*
X32908Y-23853D01*
X32629Y-23746D01*
X32331Y-23754D01*
X32220Y-23800D01*
X32212Y-23787D01*
X32212Y-23787D01*
X31612Y-23187D01*
X31514Y-23122D01*
X31400Y-23100D01*
X30501Y-23100D01*
X30441Y-23039D01*
X30284Y-22975D01*
X30115Y-22974D01*
X29959Y-23039D01*
X29839Y-23158D01*
X29775Y-23315D01*
X29774Y-23484D01*
X29839Y-23640D01*
X29958Y-23760D01*
X30115Y-23824D01*
X30284Y-23825D01*
X30440Y-23760D01*
X30501Y-23700D01*
X31275Y-23700D01*
X31525Y-23950D01*
X31391Y-23949D01*
X31188Y-24033D01*
X31034Y-24188D01*
X31000Y-24269D01*
X30966Y-24188D01*
X30811Y-24034D01*
X30609Y-23950D01*
X30391Y-23949D01*
X30188Y-24033D01*
X30034Y-24188D01*
X29950Y-24390D01*
X29949Y-24608D01*
X29987Y-24700D01*
X28442Y-24700D01*
X28297Y-24555D01*
X28164Y-24499D01*
X28297Y-24445D01*
X28444Y-24297D01*
X28524Y-24104D01*
X28525Y-23896D01*
X28445Y-23703D01*
X28297Y-23555D01*
X28164Y-23499D01*
X28297Y-23445D01*
X28444Y-23297D01*
X28524Y-23104D01*
X28525Y-22896D01*
X28445Y-22703D01*
X28297Y-22555D01*
X28164Y-22499D01*
X28297Y-22445D01*
X28444Y-22297D01*
X28524Y-22104D01*
X28525Y-21896D01*
X28445Y-21703D01*
X28297Y-21555D01*
X28164Y-21499D01*
X28297Y-21445D01*
X28394Y-21348D01*
X30500Y-21348D01*
X30606Y-21348D01*
X30702Y-21444D01*
X30895Y-21524D01*
X31103Y-21525D01*
X31124Y-21516D01*
X31753Y-22146D01*
X31753Y-22146D01*
X31866Y-22221D01*
X32000Y-22248D01*
X32000Y-22248D01*
X32000Y-22248D01*
X32847Y-22248D01*
X32858Y-22260D01*
X33015Y-22324D01*
X33184Y-22325D01*
X33340Y-22260D01*
X33460Y-22141D01*
X33524Y-21984D01*
X33525Y-21815D01*
X33460Y-21659D01*
X33341Y-21539D01*
X33184Y-21475D01*
X33015Y-21474D01*
X32859Y-21539D01*
X32847Y-21551D01*
X32728Y-21551D01*
X32728Y-21123D01*
X32720Y-20835D01*
X32626Y-20606D01*
X32525Y-20597D01*
X32525Y-20225D01*
X32525Y-19675D01*
X32487Y-19583D01*
X32416Y-19513D01*
X32324Y-19475D01*
X32225Y-19474D01*
X31675Y-19474D01*
X31583Y-19512D01*
X31513Y-19583D01*
X31475Y-19675D01*
X31474Y-19774D01*
X31474Y-20324D01*
X31512Y-20416D01*
X31583Y-20486D01*
X31596Y-20492D01*
X31593Y-20522D01*
X32000Y-20929D01*
X32406Y-20522D01*
X32403Y-20492D01*
X32416Y-20487D01*
X32486Y-20416D01*
X32524Y-20324D01*
X32525Y-20225D01*
X32525Y-20597D01*
X32477Y-20593D01*
X32070Y-21000D01*
X32477Y-21406D01*
X32626Y-21393D01*
X32728Y-21123D01*
X32728Y-21551D01*
X32399Y-21551D01*
X32406Y-21477D01*
X32000Y-21070D01*
X31994Y-21076D01*
X31923Y-21005D01*
X31929Y-21000D01*
X31522Y-20593D01*
X31373Y-20606D01*
X31367Y-20624D01*
X31297Y-20555D01*
X31104Y-20475D01*
X30896Y-20474D01*
X30703Y-20554D01*
X30605Y-20651D01*
X30500Y-20651D01*
X28728Y-20651D01*
X28728Y-20123D01*
X28720Y-19835D01*
X28626Y-19606D01*
X28477Y-19593D01*
X28070Y-20000D01*
X28477Y-20406D01*
X28626Y-20393D01*
X28728Y-20123D01*
X28728Y-20651D01*
X28393Y-20651D01*
X28375Y-20633D01*
X28393Y-20626D01*
X28406Y-20477D01*
X28000Y-20070D01*
X27929Y-20141D01*
X27929Y-20000D01*
X27522Y-19593D01*
X27373Y-19606D01*
X27271Y-19876D01*
X27279Y-20164D01*
X27373Y-20393D01*
X27522Y-20406D01*
X27929Y-20000D01*
X27929Y-20141D01*
X27593Y-20477D01*
X27606Y-20626D01*
X27624Y-20632D01*
X27555Y-20702D01*
X27475Y-20895D01*
X27475Y-20982D01*
X26246Y-19753D01*
X26133Y-19678D01*
X26111Y-19673D01*
X26000Y-19651D01*
X25999Y-19651D01*
X25393Y-19651D01*
X25297Y-19555D01*
X25164Y-19499D01*
X25297Y-19445D01*
X25444Y-19297D01*
X25524Y-19104D01*
X25525Y-18896D01*
X25445Y-18703D01*
X25297Y-18555D01*
X25164Y-18499D01*
X25297Y-18445D01*
X25409Y-18333D01*
X25787Y-18712D01*
X25787Y-18712D01*
X25885Y-18777D01*
X26000Y-18800D01*
X27514Y-18800D01*
X27475Y-18895D01*
X27474Y-19103D01*
X27554Y-19297D01*
X27624Y-19366D01*
X27606Y-19373D01*
X27593Y-19522D01*
X28000Y-19929D01*
X28406Y-19522D01*
X28393Y-19373D01*
X28375Y-19367D01*
X28444Y-19297D01*
X28524Y-19104D01*
X28525Y-18896D01*
X28485Y-18800D01*
X28900Y-18800D01*
X29000Y-18800D01*
X29775Y-18800D01*
X30287Y-19312D01*
X30287Y-19312D01*
X30385Y-19377D01*
X30500Y-19400D01*
X31800Y-19400D01*
X31900Y-19400D01*
X32475Y-19400D01*
X34550Y-21475D01*
X34396Y-21474D01*
X34203Y-21554D01*
X34055Y-21702D01*
X33975Y-21895D01*
X33974Y-22103D01*
X34054Y-22297D01*
X34062Y-22305D01*
X33970Y-22343D01*
X33843Y-22469D01*
X33775Y-22635D01*
X33774Y-22814D01*
X33775Y-22837D01*
X33887Y-22950D01*
X34450Y-22950D01*
X34450Y-22942D01*
X34550Y-22942D01*
X34550Y-22950D01*
X35112Y-22950D01*
X35225Y-22837D01*
X35225Y-22814D01*
X35224Y-22635D01*
X35156Y-22469D01*
X35029Y-22343D01*
X34937Y-22305D01*
X34944Y-22297D01*
X35000Y-22164D01*
X35054Y-22297D01*
X35202Y-22444D01*
X35395Y-22524D01*
X35603Y-22525D01*
X35797Y-22445D01*
X35944Y-22297D01*
X36024Y-22104D01*
X36025Y-21896D01*
X35945Y-21703D01*
X35797Y-21555D01*
X35604Y-21475D01*
X35399Y-21474D01*
X35212Y-21287D01*
X35212Y-21287D01*
X35212Y-21287D01*
X34525Y-20600D01*
X34525Y-17896D01*
X34445Y-17703D01*
X34297Y-17555D01*
X34164Y-17499D01*
X34297Y-17445D01*
X34444Y-17297D01*
X34524Y-17104D01*
X34525Y-16896D01*
X34445Y-16703D01*
X34297Y-16555D01*
X34228Y-16526D01*
X34228Y-13123D01*
X34220Y-12835D01*
X34126Y-12606D01*
X33977Y-12593D01*
X33906Y-12664D01*
X33906Y-12522D01*
X33893Y-12373D01*
X33623Y-12271D01*
X33335Y-12279D01*
X33106Y-12373D01*
X33093Y-12522D01*
X33500Y-12929D01*
X33906Y-12522D01*
X33906Y-12664D01*
X33570Y-13000D01*
X33977Y-13406D01*
X34126Y-13393D01*
X34228Y-13123D01*
X34228Y-16526D01*
X34104Y-16475D01*
X34025Y-16475D01*
X34025Y-15896D01*
X33945Y-15703D01*
X33906Y-15663D01*
X33906Y-13477D01*
X33500Y-13070D01*
X33429Y-13141D01*
X33429Y-13000D01*
X33022Y-12593D01*
X32873Y-12606D01*
X32771Y-12876D01*
X32779Y-13164D01*
X32873Y-13393D01*
X33022Y-13406D01*
X33429Y-13000D01*
X33429Y-13141D01*
X33093Y-13477D01*
X33106Y-13626D01*
X33376Y-13728D01*
X33664Y-13720D01*
X33893Y-13626D01*
X33906Y-13477D01*
X33906Y-15663D01*
X33797Y-15555D01*
X33604Y-15475D01*
X33396Y-15474D01*
X33203Y-15554D01*
X33055Y-15702D01*
X32975Y-15895D01*
X32974Y-16103D01*
X33054Y-16297D01*
X33202Y-16444D01*
X33395Y-16524D01*
X33603Y-16525D01*
X33797Y-16445D01*
X33944Y-16297D01*
X34024Y-16104D01*
X34025Y-15896D01*
X34025Y-16475D01*
X33896Y-16474D01*
X33703Y-16554D01*
X33555Y-16702D01*
X33475Y-16895D01*
X33474Y-17103D01*
X33554Y-17297D01*
X33702Y-17444D01*
X33835Y-17500D01*
X33703Y-17554D01*
X33555Y-17702D01*
X33475Y-17895D01*
X33474Y-18103D01*
X33554Y-18297D01*
X33702Y-18444D01*
X33895Y-18524D01*
X34103Y-18525D01*
X34297Y-18445D01*
X34444Y-18297D01*
X34524Y-18104D01*
X34525Y-17896D01*
X34525Y-20600D01*
X32812Y-18887D01*
X32714Y-18822D01*
X32600Y-18800D01*
X31900Y-18800D01*
X31800Y-18800D01*
X31525Y-18800D01*
X31525Y-17896D01*
X31445Y-17703D01*
X31297Y-17555D01*
X31164Y-17499D01*
X31297Y-17445D01*
X31444Y-17297D01*
X31524Y-17104D01*
X31525Y-16896D01*
X31445Y-16703D01*
X31297Y-16555D01*
X31104Y-16475D01*
X30896Y-16474D01*
X30703Y-16554D01*
X30605Y-16651D01*
X29252Y-16651D01*
X29241Y-16639D01*
X29084Y-16575D01*
X28915Y-16574D01*
X28759Y-16639D01*
X28639Y-16758D01*
X28575Y-16915D01*
X28574Y-17084D01*
X28639Y-17240D01*
X28758Y-17360D01*
X28915Y-17424D01*
X29084Y-17425D01*
X29240Y-17360D01*
X29252Y-17348D01*
X30606Y-17348D01*
X30702Y-17444D01*
X30835Y-17500D01*
X30703Y-17554D01*
X30555Y-17702D01*
X30475Y-17895D01*
X30474Y-18103D01*
X30554Y-18297D01*
X30702Y-18444D01*
X30895Y-18524D01*
X31103Y-18525D01*
X31297Y-18445D01*
X31444Y-18297D01*
X31524Y-18104D01*
X31525Y-17896D01*
X31525Y-18800D01*
X30624Y-18800D01*
X30112Y-18287D01*
X30014Y-18222D01*
X29900Y-18200D01*
X29000Y-18200D01*
X28900Y-18200D01*
X28485Y-18200D01*
X28524Y-18104D01*
X28525Y-17896D01*
X28445Y-17703D01*
X28297Y-17555D01*
X28164Y-17499D01*
X28297Y-17445D01*
X28444Y-17297D01*
X28524Y-17104D01*
X28525Y-16896D01*
X28445Y-16703D01*
X28297Y-16555D01*
X28164Y-16499D01*
X28297Y-16445D01*
X28444Y-16297D01*
X28524Y-16104D01*
X28525Y-15896D01*
X28445Y-15703D01*
X28297Y-15555D01*
X28164Y-15499D01*
X28297Y-15445D01*
X28444Y-15297D01*
X28524Y-15104D01*
X28525Y-14896D01*
X28445Y-14703D01*
X28297Y-14555D01*
X28164Y-14499D01*
X28297Y-14445D01*
X28444Y-14297D01*
X28524Y-14104D01*
X28525Y-13896D01*
X28445Y-13703D01*
X28297Y-13555D01*
X28104Y-13475D01*
X27896Y-13474D01*
X27703Y-13554D01*
X27555Y-13702D01*
X27475Y-13895D01*
X27474Y-14103D01*
X27554Y-14297D01*
X27702Y-14444D01*
X27835Y-14500D01*
X27703Y-14554D01*
X27555Y-14702D01*
X27475Y-14895D01*
X27474Y-15103D01*
X27554Y-15297D01*
X27702Y-15444D01*
X27835Y-15500D01*
X27703Y-15554D01*
X27555Y-15702D01*
X27475Y-15895D01*
X27474Y-16103D01*
X27554Y-16297D01*
X27702Y-16444D01*
X27835Y-16500D01*
X27703Y-16554D01*
X27555Y-16702D01*
X27475Y-16895D01*
X27474Y-17103D01*
X27554Y-17297D01*
X27702Y-17444D01*
X27835Y-17500D01*
X27703Y-17554D01*
X27555Y-17702D01*
X27475Y-17895D01*
X27474Y-18103D01*
X27514Y-18200D01*
X26124Y-18200D01*
X25712Y-17787D01*
X25614Y-17722D01*
X25500Y-17700D01*
X25442Y-17700D01*
X25297Y-17555D01*
X25164Y-17499D01*
X25297Y-17445D01*
X25444Y-17297D01*
X25524Y-17104D01*
X25525Y-16896D01*
X25445Y-16703D01*
X25297Y-16555D01*
X25164Y-16499D01*
X25297Y-16445D01*
X25444Y-16297D01*
X25524Y-16104D01*
X25525Y-15896D01*
X25445Y-15703D01*
X25297Y-15555D01*
X25164Y-15499D01*
X25297Y-15445D01*
X25444Y-15297D01*
X25524Y-15104D01*
X25525Y-14896D01*
X25445Y-14703D01*
X25297Y-14555D01*
X25225Y-14525D01*
X25324Y-14525D01*
X25416Y-14487D01*
X25486Y-14416D01*
X25524Y-14324D01*
X25525Y-14225D01*
X25525Y-13675D01*
X25487Y-13583D01*
X25416Y-13513D01*
X25324Y-13475D01*
X25225Y-13474D01*
X24675Y-13474D01*
X24583Y-13512D01*
X24513Y-13583D01*
X24475Y-13675D01*
X24474Y-13774D01*
X24474Y-14324D01*
X24512Y-14416D01*
X24583Y-14486D01*
X24675Y-14524D01*
X24774Y-14525D01*
X24774Y-14525D01*
X24703Y-14554D01*
X24555Y-14702D01*
X24475Y-14895D01*
X24474Y-15103D01*
X24554Y-15297D01*
X24702Y-15444D01*
X24835Y-15500D01*
X24703Y-15554D01*
X24555Y-15702D01*
X24475Y-15895D01*
X24474Y-16103D01*
X24554Y-16297D01*
X24702Y-16444D01*
X24835Y-16500D01*
X24703Y-16554D01*
X24555Y-16702D01*
X24475Y-16895D01*
X24474Y-17103D01*
X24554Y-17297D01*
X24702Y-17444D01*
X24835Y-17500D01*
X24703Y-17554D01*
X24555Y-17702D01*
X24475Y-17895D01*
X24474Y-18103D01*
X24554Y-18297D01*
X24702Y-18444D01*
X24835Y-18500D01*
X24703Y-18554D01*
X24555Y-18702D01*
X24475Y-18895D01*
X24474Y-19103D01*
X24554Y-19297D01*
X24702Y-19444D01*
X24835Y-19500D01*
X24703Y-19554D01*
X24555Y-19702D01*
X24475Y-19895D01*
X24474Y-20103D01*
X24554Y-20297D01*
X24624Y-20366D01*
X24606Y-20373D01*
X24593Y-20522D01*
X25000Y-20929D01*
X25406Y-20522D01*
X25393Y-20373D01*
X25375Y-20367D01*
X25394Y-20348D01*
X25855Y-20348D01*
X27475Y-21967D01*
X27474Y-22103D01*
X27554Y-22297D01*
X27702Y-22444D01*
X27835Y-22500D01*
X27703Y-22554D01*
X27555Y-22702D01*
X27475Y-22895D01*
X27474Y-23103D01*
X27554Y-23297D01*
X27702Y-23444D01*
X27835Y-23500D01*
X27703Y-23554D01*
X27555Y-23702D01*
X27475Y-23895D01*
X27474Y-24103D01*
X27554Y-24297D01*
X27702Y-24444D01*
X27835Y-24500D01*
X27703Y-24554D01*
X27555Y-24702D01*
X27475Y-24895D01*
X27474Y-25103D01*
X27554Y-25297D01*
X27702Y-25444D01*
X27835Y-25500D01*
X27703Y-25554D01*
X27555Y-25702D01*
X27475Y-25895D01*
X27474Y-26103D01*
X27554Y-26297D01*
X27702Y-26444D01*
X27835Y-26500D01*
X27703Y-26554D01*
X27555Y-26702D01*
X27475Y-26895D01*
X27474Y-27100D01*
X26675Y-27900D01*
X25728Y-27900D01*
X25728Y-21123D01*
X25720Y-20835D01*
X25626Y-20606D01*
X25477Y-20593D01*
X25070Y-21000D01*
X25477Y-21406D01*
X25626Y-21393D01*
X25728Y-21123D01*
X25728Y-27900D01*
X25525Y-27900D01*
X25525Y-26896D01*
X25445Y-26703D01*
X25297Y-26555D01*
X25164Y-26499D01*
X25297Y-26445D01*
X25444Y-26297D01*
X25524Y-26104D01*
X25525Y-25896D01*
X25445Y-25703D01*
X25297Y-25555D01*
X25164Y-25499D01*
X25297Y-25445D01*
X25444Y-25297D01*
X25524Y-25104D01*
X25525Y-24896D01*
X25445Y-24703D01*
X25297Y-24555D01*
X25164Y-24499D01*
X25297Y-24445D01*
X25444Y-24297D01*
X25524Y-24104D01*
X25525Y-23896D01*
X25445Y-23703D01*
X25297Y-23555D01*
X25164Y-23499D01*
X25297Y-23445D01*
X25444Y-23297D01*
X25524Y-23104D01*
X25525Y-22896D01*
X25445Y-22703D01*
X25297Y-22555D01*
X25164Y-22499D01*
X25297Y-22445D01*
X25444Y-22297D01*
X25524Y-22104D01*
X25525Y-21896D01*
X25445Y-21703D01*
X25375Y-21633D01*
X25393Y-21626D01*
X25406Y-21477D01*
X25000Y-21070D01*
X24929Y-21141D01*
X24929Y-21000D01*
X24522Y-20593D01*
X24425Y-20602D01*
X24425Y-16915D01*
X24360Y-16759D01*
X24241Y-16639D01*
X24084Y-16575D01*
X23915Y-16574D01*
X23759Y-16639D01*
X23698Y-16700D01*
X21724Y-16700D01*
X22124Y-16300D01*
X23698Y-16300D01*
X23758Y-16360D01*
X23915Y-16424D01*
X24084Y-16425D01*
X24240Y-16360D01*
X24360Y-16241D01*
X24424Y-16084D01*
X24425Y-15915D01*
X24360Y-15759D01*
X24241Y-15639D01*
X24084Y-15575D01*
X23915Y-15574D01*
X23759Y-15639D01*
X23698Y-15700D01*
X22124Y-15700D01*
X22524Y-15300D01*
X23698Y-15300D01*
X23758Y-15360D01*
X23915Y-15424D01*
X24084Y-15425D01*
X24240Y-15360D01*
X24360Y-15241D01*
X24424Y-15084D01*
X24425Y-14915D01*
X24360Y-14759D01*
X24241Y-14639D01*
X24084Y-14575D01*
X23915Y-14574D01*
X23759Y-14639D01*
X23698Y-14700D01*
X22400Y-14700D01*
X22285Y-14722D01*
X22187Y-14787D01*
X19875Y-17100D01*
X17400Y-17100D01*
X17293Y-17121D01*
X17293Y-13750D01*
X17228Y-13593D01*
X17108Y-13473D01*
X16951Y-13408D01*
X16781Y-13407D01*
X16624Y-13472D01*
X16504Y-13592D01*
X16439Y-13749D01*
X16438Y-13919D01*
X16503Y-14076D01*
X16623Y-14196D01*
X16780Y-14261D01*
X16950Y-14262D01*
X17107Y-14197D01*
X17227Y-14077D01*
X17292Y-13920D01*
X17293Y-13750D01*
X17293Y-17121D01*
X17285Y-17122D01*
X17187Y-17187D01*
X16625Y-17750D01*
X16625Y-15715D01*
X16560Y-15559D01*
X16441Y-15439D01*
X16284Y-15375D01*
X16115Y-15374D01*
X15959Y-15439D01*
X15900Y-15498D01*
X15841Y-15439D01*
X15684Y-15375D01*
X15561Y-15374D01*
X15561Y-13750D01*
X15496Y-13593D01*
X15376Y-13473D01*
X15219Y-13408D01*
X15049Y-13407D01*
X14892Y-13472D01*
X14772Y-13592D01*
X14707Y-13749D01*
X14706Y-13919D01*
X14771Y-14076D01*
X14891Y-14196D01*
X15048Y-14261D01*
X15218Y-14262D01*
X15375Y-14197D01*
X15495Y-14077D01*
X15560Y-13920D01*
X15561Y-13750D01*
X15561Y-15374D01*
X15515Y-15374D01*
X15359Y-15439D01*
X15239Y-15558D01*
X15175Y-15715D01*
X15174Y-15807D01*
X15122Y-15885D01*
X15100Y-16000D01*
X15100Y-17098D01*
X15039Y-17158D01*
X14975Y-17315D01*
X14974Y-17484D01*
X15039Y-17640D01*
X15158Y-17760D01*
X15315Y-17824D01*
X15484Y-17825D01*
X15640Y-17760D01*
X15699Y-17701D01*
X15758Y-17760D01*
X15915Y-17824D01*
X16084Y-17825D01*
X16240Y-17760D01*
X16360Y-17641D01*
X16424Y-17484D01*
X16425Y-17315D01*
X16360Y-17159D01*
X16300Y-17098D01*
X16300Y-16218D01*
X16440Y-16160D01*
X16560Y-16041D01*
X16624Y-15884D01*
X16625Y-15715D01*
X16625Y-17750D01*
X16000Y-18375D01*
X15915Y-18374D01*
X15759Y-18439D01*
X15639Y-18558D01*
X15575Y-18715D01*
X15574Y-18884D01*
X15639Y-19040D01*
X15698Y-19099D01*
X15639Y-19158D01*
X15575Y-19315D01*
X15574Y-19484D01*
X15639Y-19640D01*
X15698Y-19699D01*
X15639Y-19758D01*
X15575Y-19915D01*
X15574Y-20084D01*
X15639Y-20240D01*
X15758Y-20360D01*
X15915Y-20424D01*
X16084Y-20425D01*
X16240Y-20360D01*
X16360Y-20241D01*
X16424Y-20084D01*
X16425Y-19999D01*
X17924Y-18500D01*
X20400Y-18500D01*
X20400Y-18499D01*
X20514Y-18477D01*
X20514Y-18477D01*
X20612Y-18412D01*
X21724Y-17300D01*
X23698Y-17300D01*
X23758Y-17360D01*
X23915Y-17424D01*
X24084Y-17425D01*
X24240Y-17360D01*
X24360Y-17241D01*
X24424Y-17084D01*
X24425Y-16915D01*
X24425Y-20602D01*
X24373Y-20606D01*
X24271Y-20876D01*
X24279Y-21164D01*
X24373Y-21393D01*
X24522Y-21406D01*
X24929Y-21000D01*
X24929Y-21141D01*
X24593Y-21477D01*
X24606Y-21626D01*
X24624Y-21632D01*
X24557Y-21700D01*
X22624Y-21700D01*
X22029Y-21105D01*
X22030Y-20895D01*
X21949Y-20700D01*
X21800Y-20550D01*
X21605Y-20470D01*
X21395Y-20469D01*
X21200Y-20550D01*
X21050Y-20699D01*
X20970Y-20894D01*
X20969Y-21104D01*
X21050Y-21299D01*
X21199Y-21449D01*
X21394Y-21529D01*
X21604Y-21530D01*
X21605Y-21529D01*
X22287Y-22212D01*
X22287Y-22212D01*
X22385Y-22277D01*
X22500Y-22300D01*
X24557Y-22300D01*
X24702Y-22444D01*
X24835Y-22500D01*
X24703Y-22554D01*
X24557Y-22700D01*
X21949Y-22700D01*
X21800Y-22550D01*
X21605Y-22470D01*
X21395Y-22469D01*
X21200Y-22550D01*
X21050Y-22699D01*
X20970Y-22894D01*
X20969Y-23104D01*
X21050Y-23299D01*
X21199Y-23449D01*
X21394Y-23529D01*
X21604Y-23530D01*
X21799Y-23449D01*
X21949Y-23300D01*
X21949Y-23300D01*
X24557Y-23300D01*
X24702Y-23444D01*
X24835Y-23500D01*
X24703Y-23554D01*
X24555Y-23702D01*
X24475Y-23895D01*
X24474Y-24103D01*
X24554Y-24297D01*
X24702Y-24444D01*
X24835Y-24500D01*
X24703Y-24554D01*
X24555Y-24702D01*
X24475Y-24895D01*
X24474Y-25103D01*
X24554Y-25297D01*
X24702Y-25444D01*
X24835Y-25500D01*
X24703Y-25554D01*
X24605Y-25651D01*
X24393Y-25651D01*
X24297Y-25555D01*
X24104Y-25475D01*
X23896Y-25474D01*
X23703Y-25554D01*
X23555Y-25702D01*
X23475Y-25895D01*
X23474Y-26103D01*
X23554Y-26297D01*
X23702Y-26444D01*
X23835Y-26500D01*
X23703Y-26554D01*
X23555Y-26702D01*
X23475Y-26895D01*
X23474Y-27103D01*
X23554Y-27297D01*
X23702Y-27444D01*
X23895Y-27524D01*
X24103Y-27525D01*
X24297Y-27445D01*
X24394Y-27348D01*
X24606Y-27348D01*
X24702Y-27444D01*
X24895Y-27524D01*
X25103Y-27525D01*
X25297Y-27445D01*
X25444Y-27297D01*
X25524Y-27104D01*
X25525Y-26896D01*
X25525Y-27900D01*
X25301Y-27900D01*
X25241Y-27839D01*
X25084Y-27775D01*
X24915Y-27774D01*
X24759Y-27839D01*
X24639Y-27958D01*
X24575Y-28115D01*
X24574Y-28251D01*
X22344Y-28251D01*
X21546Y-27453D01*
X21433Y-27378D01*
X21411Y-27373D01*
X21375Y-27366D01*
X21444Y-27297D01*
X21524Y-27104D01*
X21525Y-26896D01*
X21445Y-26703D01*
X21297Y-26555D01*
X21164Y-26499D01*
X21297Y-26445D01*
X21444Y-26297D01*
X21524Y-26104D01*
X21525Y-25896D01*
X21445Y-25703D01*
X21297Y-25555D01*
X21104Y-25475D01*
X20896Y-25474D01*
X20703Y-25554D01*
X20555Y-25702D01*
X20475Y-25895D01*
X20474Y-26103D01*
X20554Y-26297D01*
X20702Y-26444D01*
X20835Y-26500D01*
X20703Y-26554D01*
X20555Y-26702D01*
X20475Y-26895D01*
X20474Y-27103D01*
X20554Y-27297D01*
X20609Y-27351D01*
X18328Y-27351D01*
X18328Y-24923D01*
X18320Y-24635D01*
X18226Y-24406D01*
X18125Y-24397D01*
X18125Y-23696D01*
X18045Y-23503D01*
X17897Y-23355D01*
X17704Y-23275D01*
X17496Y-23274D01*
X17303Y-23354D01*
X17155Y-23502D01*
X17075Y-23695D01*
X17074Y-23903D01*
X17154Y-24097D01*
X17224Y-24166D01*
X17206Y-24173D01*
X17193Y-24322D01*
X17600Y-24729D01*
X18006Y-24322D01*
X17993Y-24173D01*
X17975Y-24167D01*
X18044Y-24097D01*
X18124Y-23904D01*
X18125Y-23696D01*
X18125Y-24397D01*
X18077Y-24393D01*
X17670Y-24800D01*
X18077Y-25206D01*
X18226Y-25193D01*
X18328Y-24923D01*
X18328Y-27351D01*
X18006Y-27351D01*
X18006Y-25277D01*
X17600Y-24870D01*
X17193Y-25277D01*
X17206Y-25426D01*
X17476Y-25528D01*
X17764Y-25520D01*
X17993Y-25426D01*
X18006Y-25277D01*
X18006Y-27351D01*
X17281Y-27351D01*
X17297Y-27345D01*
X17444Y-27197D01*
X17524Y-27004D01*
X17525Y-26796D01*
X17445Y-26603D01*
X17297Y-26455D01*
X17104Y-26375D01*
X16967Y-26374D01*
X16948Y-26355D01*
X16948Y-25315D01*
X17016Y-25287D01*
X17086Y-25216D01*
X17092Y-25203D01*
X17122Y-25206D01*
X17529Y-24800D01*
X17122Y-24393D01*
X17092Y-24396D01*
X17087Y-24383D01*
X17016Y-24313D01*
X16924Y-24275D01*
X16825Y-24274D01*
X16275Y-24274D01*
X16183Y-24312D01*
X16113Y-24383D01*
X16084Y-24451D01*
X15629Y-24451D01*
X15511Y-24334D01*
X15309Y-24250D01*
X15091Y-24249D01*
X14888Y-24333D01*
X14734Y-24488D01*
X14650Y-24690D01*
X14649Y-24908D01*
X14733Y-25111D01*
X14888Y-25265D01*
X15090Y-25349D01*
X15308Y-25350D01*
X15511Y-25266D01*
X15629Y-25148D01*
X16084Y-25148D01*
X16112Y-25216D01*
X16183Y-25286D01*
X16251Y-25315D01*
X16251Y-26499D01*
X16251Y-26500D01*
X16253Y-26511D01*
X16197Y-26455D01*
X16004Y-26375D01*
X15796Y-26374D01*
X15603Y-26454D01*
X15455Y-26602D01*
X15399Y-26735D01*
X15345Y-26603D01*
X15197Y-26455D01*
X15004Y-26375D01*
X14796Y-26374D01*
X14603Y-26454D01*
X14455Y-26602D01*
X14399Y-26735D01*
X14345Y-26603D01*
X14197Y-26455D01*
X14004Y-26375D01*
X13796Y-26374D01*
X13603Y-26454D01*
X13455Y-26602D01*
X13399Y-26735D01*
X13345Y-26603D01*
X13197Y-26455D01*
X13013Y-26378D01*
X14446Y-24946D01*
X14446Y-24946D01*
X14446Y-24946D01*
X14521Y-24833D01*
X14548Y-24700D01*
X14548Y-24700D01*
X14548Y-24699D01*
X14548Y-24229D01*
X14665Y-24111D01*
X14749Y-23909D01*
X14750Y-23691D01*
X14666Y-23488D01*
X14511Y-23334D01*
X14309Y-23250D01*
X14091Y-23249D01*
X13888Y-23333D01*
X13750Y-23471D01*
X13750Y-16872D01*
X13591Y-16486D01*
X13295Y-16190D01*
X12910Y-16030D01*
X12492Y-16029D01*
X12106Y-16189D01*
X11810Y-16484D01*
X11650Y-16870D01*
X11650Y-17287D01*
X11809Y-17674D01*
X12104Y-17969D01*
X12490Y-18129D01*
X12908Y-18130D01*
X13294Y-17970D01*
X13590Y-17675D01*
X13750Y-17289D01*
X13750Y-16872D01*
X13750Y-23471D01*
X13734Y-23488D01*
X13650Y-23690D01*
X13649Y-23908D01*
X13733Y-24111D01*
X13851Y-24229D01*
X13851Y-24403D01*
X13846Y-24391D01*
X13695Y-24375D01*
X13624Y-24446D01*
X13624Y-24304D01*
X13608Y-24153D01*
X13329Y-24046D01*
X13031Y-24054D01*
X12791Y-24153D01*
X12775Y-24304D01*
X13200Y-24729D01*
X13624Y-24304D01*
X13624Y-24446D01*
X13270Y-24800D01*
X13276Y-24805D01*
X13205Y-24876D01*
X13200Y-24870D01*
X13129Y-24941D01*
X13129Y-24800D01*
X12704Y-24375D01*
X12553Y-24391D01*
X12446Y-24670D01*
X12454Y-24968D01*
X12553Y-25208D01*
X12704Y-25224D01*
X13129Y-24800D01*
X13129Y-24941D01*
X12775Y-25295D01*
X12791Y-25446D01*
X12913Y-25493D01*
X11853Y-26553D01*
X11778Y-26666D01*
X11773Y-26688D01*
X11751Y-26800D01*
X11751Y-26800D01*
X11751Y-30499D01*
X11751Y-30500D01*
X11773Y-30611D01*
X11778Y-30633D01*
X11853Y-30746D01*
X12753Y-31646D01*
X12753Y-31646D01*
X12866Y-31721D01*
X13000Y-31748D01*
X13000Y-31748D01*
X13000Y-31748D01*
X13506Y-31748D01*
X13602Y-31844D01*
X13795Y-31924D01*
X14003Y-31925D01*
X14197Y-31845D01*
X14266Y-31775D01*
X14273Y-31793D01*
X14422Y-31806D01*
X14829Y-31400D01*
X14823Y-31394D01*
X14894Y-31323D01*
X14900Y-31329D01*
X15306Y-30922D01*
X15293Y-30773D01*
X15023Y-30671D01*
X14735Y-30679D01*
X14527Y-30765D01*
X14867Y-30424D01*
X15003Y-30425D01*
X15197Y-30345D01*
X15344Y-30197D01*
X15400Y-30064D01*
X15454Y-30197D01*
X15602Y-30344D01*
X15791Y-30423D01*
X17753Y-32385D01*
X17753Y-35972D01*
X17743Y-35962D01*
X17506Y-35864D01*
X17250Y-35864D01*
X17013Y-35961D01*
X16832Y-36142D01*
X16734Y-36379D01*
X16734Y-36635D01*
X16781Y-36749D01*
X16717Y-36751D01*
X16480Y-36849D01*
X16464Y-37000D01*
X16885Y-37421D01*
X16891Y-37415D01*
X16962Y-37486D01*
X16956Y-37492D01*
X17377Y-37913D01*
X17528Y-37897D01*
X17634Y-37620D01*
X17626Y-37324D01*
X17548Y-37134D01*
X17742Y-37053D01*
X17753Y-37042D01*
X17753Y-37400D01*
X17787Y-37571D01*
X17884Y-37715D01*
X18698Y-38530D01*
X17306Y-38530D01*
X17306Y-37983D01*
X16885Y-37562D01*
X16815Y-37633D01*
X16815Y-37492D01*
X16394Y-37071D01*
X16243Y-37086D01*
X16136Y-37363D01*
X16144Y-37660D01*
X16243Y-37897D01*
X16394Y-37913D01*
X16815Y-37492D01*
X16815Y-37633D01*
X16464Y-37983D01*
X16480Y-38134D01*
X16757Y-38241D01*
X17053Y-38233D01*
X17291Y-38134D01*
X17306Y-37983D01*
X17306Y-38530D01*
X15659Y-38530D01*
X15659Y-37384D01*
X15628Y-37309D01*
X15628Y-31523D01*
X15620Y-31235D01*
X15526Y-31006D01*
X15377Y-30993D01*
X14970Y-31400D01*
X15377Y-31806D01*
X15526Y-31793D01*
X15628Y-31523D01*
X15628Y-37309D01*
X15576Y-37183D01*
X15423Y-37030D01*
X15306Y-36981D01*
X15306Y-31877D01*
X14900Y-31470D01*
X14493Y-31877D01*
X14506Y-32026D01*
X14776Y-32128D01*
X15064Y-32120D01*
X15293Y-32026D01*
X15306Y-31877D01*
X15306Y-36981D01*
X15223Y-36946D01*
X15093Y-36946D01*
X15167Y-36872D01*
X15265Y-36636D01*
X15265Y-36380D01*
X15168Y-36143D01*
X14987Y-35962D01*
X14750Y-35864D01*
X14494Y-35864D01*
X14257Y-35961D01*
X14076Y-36142D01*
X13978Y-36379D01*
X13978Y-36635D01*
X14076Y-36872D01*
X14256Y-37053D01*
X14493Y-37151D01*
X14683Y-37151D01*
X14652Y-37182D01*
X14568Y-37383D01*
X14568Y-37600D01*
X14651Y-37800D01*
X14804Y-37954D01*
X15005Y-38037D01*
X15222Y-38037D01*
X15422Y-37954D01*
X15576Y-37801D01*
X15659Y-37601D01*
X15659Y-37384D01*
X15659Y-38530D01*
X13750Y-38530D01*
X13750Y-33512D01*
X13591Y-33126D01*
X13295Y-32830D01*
X12910Y-32670D01*
X12492Y-32669D01*
X12106Y-32829D01*
X11810Y-33124D01*
X11650Y-33510D01*
X11650Y-33927D01*
X11809Y-34314D01*
X12104Y-34609D01*
X12490Y-34769D01*
X12908Y-34770D01*
X13294Y-34610D01*
X13590Y-34315D01*
X13750Y-33929D01*
X13750Y-33512D01*
X13750Y-38530D01*
X11269Y-38530D01*
X11269Y-12269D01*
X34480Y-12269D01*
X34454Y-12400D01*
X34454Y-16000D01*
X34496Y-16208D01*
X34614Y-16385D01*
X35114Y-16885D01*
X35291Y-17003D01*
X35291Y-17003D01*
X35500Y-17045D01*
X35614Y-17045D01*
X35496Y-17162D01*
X35405Y-17381D01*
X35405Y-17617D01*
X35495Y-17836D01*
X35662Y-18003D01*
X35881Y-18094D01*
X36117Y-18094D01*
X36336Y-18004D01*
X36503Y-17837D01*
X36594Y-17618D01*
X36594Y-17382D01*
X36504Y-17163D01*
X36386Y-17045D01*
X36474Y-17045D01*
X36954Y-17525D01*
X36954Y-19500D01*
X36954Y-21913D01*
X35384Y-23484D01*
X35287Y-23628D01*
X35253Y-23800D01*
X35253Y-25200D01*
X35287Y-25371D01*
X35384Y-25515D01*
X36484Y-26615D01*
X36484Y-26615D01*
X36609Y-26700D01*
X35225Y-26700D01*
X35225Y-23185D01*
X35225Y-23162D01*
X35112Y-23050D01*
X34550Y-23050D01*
X34550Y-23612D01*
X34662Y-23725D01*
X34864Y-23725D01*
X35029Y-23656D01*
X35156Y-23530D01*
X35224Y-23364D01*
X35225Y-23185D01*
X35225Y-26700D01*
X34450Y-26700D01*
X34450Y-23612D01*
X34450Y-23050D01*
X33887Y-23050D01*
X33775Y-23162D01*
X33774Y-23185D01*
X33775Y-23364D01*
X33843Y-23530D01*
X33970Y-23656D01*
X34135Y-23725D01*
X34337Y-23725D01*
X34450Y-23612D01*
X34450Y-26700D01*
X33253Y-26700D01*
X33253Y-24629D01*
X33245Y-24331D01*
X33146Y-24091D01*
X32995Y-24075D01*
X32570Y-24500D01*
X32995Y-24924D01*
X33146Y-24908D01*
X33253Y-24629D01*
X33253Y-26700D01*
X30101Y-26700D01*
X30041Y-26639D01*
X29884Y-26575D01*
X29715Y-26574D01*
X29559Y-26639D01*
X29439Y-26758D01*
X29375Y-26915D01*
X29374Y-27084D01*
X29439Y-27240D01*
X29558Y-27360D01*
X29715Y-27424D01*
X29884Y-27425D01*
X30040Y-27360D01*
X30101Y-27300D01*
X38498Y-27300D01*
X38558Y-27360D01*
X38715Y-27424D01*
X38884Y-27425D01*
X39040Y-27360D01*
X39160Y-27241D01*
X39224Y-27084D01*
X39225Y-26956D01*
X40053Y-27785D01*
X40053Y-28000D01*
X39977Y-27993D01*
X39906Y-28064D01*
X39906Y-27922D01*
X39893Y-27773D01*
X39623Y-27671D01*
X39335Y-27679D01*
X39106Y-27773D01*
X39093Y-27922D01*
X39500Y-28329D01*
X39906Y-27922D01*
X39906Y-28064D01*
X39570Y-28400D01*
X39977Y-28806D01*
X40126Y-28793D01*
X40132Y-28775D01*
X40202Y-28844D01*
X40391Y-28923D01*
X40976Y-29508D01*
X41054Y-29697D01*
X41202Y-29844D01*
X41226Y-29854D01*
X41226Y-29854D01*
G37*
G54D23*
X41226Y-29854D02*
X40228Y-29854D01*
X40025Y-29854D01*
X39977Y-29806D01*
X40126Y-29793D01*
X40228Y-29523D01*
X40220Y-29235D01*
X40126Y-29006D01*
X39977Y-28993D01*
X39906Y-29064D01*
X39906Y-28922D01*
X39904Y-28900D01*
X39906Y-28877D01*
X39901Y-28872D01*
X39893Y-28773D01*
X39747Y-28718D01*
X39500Y-28470D01*
X39429Y-28541D01*
X39429Y-28400D01*
X39022Y-27993D01*
X38873Y-28006D01*
X38867Y-28024D01*
X38797Y-27955D01*
X38604Y-27875D01*
X38396Y-27874D01*
X38203Y-27954D01*
X38055Y-28102D01*
X38025Y-28174D01*
X38025Y-28075D01*
X37987Y-27983D01*
X37916Y-27913D01*
X37824Y-27875D01*
X37725Y-27874D01*
X37175Y-27874D01*
X37083Y-27912D01*
X37013Y-27983D01*
X36975Y-28075D01*
X36974Y-28174D01*
X36974Y-28724D01*
X37012Y-28816D01*
X37083Y-28886D01*
X37175Y-28924D01*
X37274Y-28925D01*
X37824Y-28925D01*
X37916Y-28887D01*
X37986Y-28816D01*
X38024Y-28724D01*
X38025Y-28625D01*
X38025Y-28625D01*
X38054Y-28697D01*
X38202Y-28844D01*
X38395Y-28924D01*
X38603Y-28925D01*
X38797Y-28845D01*
X38866Y-28775D01*
X38873Y-28793D01*
X39022Y-28806D01*
X39429Y-28400D01*
X39429Y-28541D01*
X39260Y-28710D01*
X39106Y-28773D01*
X39098Y-28872D01*
X39093Y-28877D01*
X39095Y-28900D01*
X39093Y-28922D01*
X39098Y-28927D01*
X39106Y-29026D01*
X39252Y-29081D01*
X39500Y-29329D01*
X39739Y-29089D01*
X39893Y-29026D01*
X39901Y-28927D01*
X39906Y-28922D01*
X39906Y-29064D01*
X39570Y-29400D01*
X39576Y-29405D01*
X39505Y-29476D01*
X39500Y-29470D01*
X39494Y-29476D01*
X39429Y-29411D01*
X39423Y-29405D01*
X39429Y-29400D01*
X39022Y-28993D01*
X38873Y-29006D01*
X38771Y-29276D01*
X38779Y-29564D01*
X38873Y-29793D01*
X39022Y-29806D01*
X38974Y-29854D01*
X38000Y-29854D01*
X37200Y-29854D01*
X35800Y-29854D01*
X30400Y-29854D01*
X30000Y-29854D01*
X23086Y-29854D01*
X22175Y-28943D01*
X22200Y-28948D01*
X22200Y-28948D01*
X22200Y-28948D01*
X30399Y-28948D01*
X30400Y-28948D01*
X30400Y-28948D01*
X30450Y-28938D01*
X30449Y-29108D01*
X30533Y-29311D01*
X30688Y-29465D01*
X30890Y-29549D01*
X31108Y-29550D01*
X31311Y-29466D01*
X31465Y-29311D01*
X31499Y-29230D01*
X31533Y-29311D01*
X31688Y-29465D01*
X31890Y-29549D01*
X32108Y-29550D01*
X32311Y-29466D01*
X32465Y-29311D01*
X32499Y-29230D01*
X32533Y-29311D01*
X32688Y-29465D01*
X32890Y-29549D01*
X33108Y-29550D01*
X33311Y-29466D01*
X33465Y-29311D01*
X33499Y-29230D01*
X33533Y-29311D01*
X33688Y-29465D01*
X33890Y-29549D01*
X34108Y-29550D01*
X34311Y-29466D01*
X34465Y-29311D01*
X34549Y-29109D01*
X34550Y-28891D01*
X34466Y-28688D01*
X34327Y-28550D01*
X34349Y-28550D01*
X34441Y-28512D01*
X34511Y-28441D01*
X34549Y-28349D01*
X34550Y-28250D01*
X34550Y-27650D01*
X34512Y-27558D01*
X34441Y-27488D01*
X34349Y-27450D01*
X34250Y-27449D01*
X33650Y-27449D01*
X33558Y-27487D01*
X33488Y-27558D01*
X33450Y-27650D01*
X33450Y-27651D01*
X33429Y-27651D01*
X33311Y-27534D01*
X33109Y-27450D01*
X32891Y-27449D01*
X32688Y-27533D01*
X32570Y-27651D01*
X32429Y-27651D01*
X32311Y-27534D01*
X32109Y-27450D01*
X31891Y-27449D01*
X31688Y-27533D01*
X31570Y-27651D01*
X31429Y-27651D01*
X31311Y-27534D01*
X31109Y-27450D01*
X30891Y-27449D01*
X30688Y-27533D01*
X30534Y-27688D01*
X30450Y-27890D01*
X30449Y-28057D01*
X30255Y-28251D01*
X27172Y-28251D01*
X27899Y-27524D01*
X28103Y-27525D01*
X28297Y-27445D01*
X28444Y-27297D01*
X28524Y-27104D01*
X28525Y-26896D01*
X28445Y-26703D01*
X28297Y-26555D01*
X28164Y-26499D01*
X28297Y-26445D01*
X28444Y-26297D01*
X28524Y-26104D01*
X28525Y-25896D01*
X28445Y-25703D01*
X28297Y-25555D01*
X28164Y-25499D01*
X28297Y-25445D01*
X28442Y-25300D01*
X29949Y-25300D01*
X29949Y-25849D01*
X29987Y-25941D01*
X30058Y-26011D01*
X30150Y-26049D01*
X30249Y-26050D01*
X30849Y-26050D01*
X30941Y-26012D01*
X31011Y-25941D01*
X31049Y-25849D01*
X31049Y-25827D01*
X31188Y-25965D01*
X31390Y-26049D01*
X31608Y-26050D01*
X31811Y-25966D01*
X31965Y-25811D01*
X31999Y-25730D01*
X32033Y-25811D01*
X32188Y-25965D01*
X32390Y-26049D01*
X32608Y-26050D01*
X32811Y-25966D01*
X32965Y-25811D01*
X33049Y-25609D01*
X33050Y-25391D01*
X32966Y-25188D01*
X32909Y-25131D01*
X32924Y-24995D01*
X32500Y-24570D01*
X32494Y-24576D01*
X32423Y-24505D01*
X32429Y-24500D01*
X32423Y-24494D01*
X32494Y-24423D01*
X32500Y-24429D01*
X32924Y-24004D01*
X32908Y-23853D01*
X32629Y-23746D01*
X32331Y-23754D01*
X32220Y-23800D01*
X32212Y-23787D01*
X32212Y-23787D01*
X31612Y-23187D01*
X31514Y-23122D01*
X31400Y-23100D01*
X30501Y-23100D01*
X30441Y-23039D01*
X30284Y-22975D01*
X30115Y-22974D01*
X29959Y-23039D01*
X29839Y-23158D01*
X29775Y-23315D01*
X29774Y-23484D01*
X29839Y-23640D01*
X29958Y-23760D01*
X30115Y-23824D01*
X30284Y-23825D01*
X30440Y-23760D01*
X30501Y-23700D01*
X31275Y-23700D01*
X31525Y-23950D01*
X31391Y-23949D01*
X31188Y-24033D01*
X31034Y-24188D01*
X31000Y-24269D01*
X30966Y-24188D01*
X30811Y-24034D01*
X30609Y-23950D01*
X30391Y-23949D01*
X30188Y-24033D01*
X30034Y-24188D01*
X29950Y-24390D01*
X29949Y-24608D01*
X29987Y-24700D01*
X28442Y-24700D01*
X28297Y-24555D01*
X28164Y-24499D01*
X28297Y-24445D01*
X28444Y-24297D01*
X28524Y-24104D01*
X28525Y-23896D01*
X28445Y-23703D01*
X28297Y-23555D01*
X28164Y-23499D01*
X28297Y-23445D01*
X28444Y-23297D01*
X28524Y-23104D01*
X28525Y-22896D01*
X28445Y-22703D01*
X28297Y-22555D01*
X28164Y-22499D01*
X28297Y-22445D01*
X28444Y-22297D01*
X28524Y-22104D01*
X28525Y-21896D01*
X28445Y-21703D01*
X28297Y-21555D01*
X28164Y-21499D01*
X28297Y-21445D01*
X28394Y-21348D01*
X30500Y-21348D01*
X30606Y-21348D01*
X30702Y-21444D01*
X30895Y-21524D01*
X31103Y-21525D01*
X31124Y-21516D01*
X31753Y-22146D01*
X31753Y-22146D01*
X31866Y-22221D01*
X32000Y-22248D01*
X32000Y-22248D01*
X32000Y-22248D01*
X32847Y-22248D01*
X32858Y-22260D01*
X33015Y-22324D01*
X33184Y-22325D01*
X33340Y-22260D01*
X33460Y-22141D01*
X33524Y-21984D01*
X33525Y-21815D01*
X33460Y-21659D01*
X33341Y-21539D01*
X33184Y-21475D01*
X33015Y-21474D01*
X32859Y-21539D01*
X32847Y-21551D01*
X32728Y-21551D01*
X32728Y-21123D01*
X32720Y-20835D01*
X32626Y-20606D01*
X32525Y-20597D01*
X32525Y-20225D01*
X32525Y-19675D01*
X32487Y-19583D01*
X32416Y-19513D01*
X32324Y-19475D01*
X32225Y-19474D01*
X31675Y-19474D01*
X31583Y-19512D01*
X31513Y-19583D01*
X31475Y-19675D01*
X31474Y-19774D01*
X31474Y-20324D01*
X31512Y-20416D01*
X31583Y-20486D01*
X31596Y-20492D01*
X31593Y-20522D01*
X32000Y-20929D01*
X32406Y-20522D01*
X32403Y-20492D01*
X32416Y-20487D01*
X32486Y-20416D01*
X32524Y-20324D01*
X32525Y-20225D01*
X32525Y-20597D01*
X32477Y-20593D01*
X32070Y-21000D01*
X32477Y-21406D01*
X32626Y-21393D01*
X32728Y-21123D01*
X32728Y-21551D01*
X32399Y-21551D01*
X32406Y-21477D01*
X32000Y-21070D01*
X31994Y-21076D01*
X31923Y-21005D01*
X31929Y-21000D01*
X31522Y-20593D01*
X31373Y-20606D01*
X31367Y-20624D01*
X31297Y-20555D01*
X31104Y-20475D01*
X30896Y-20474D01*
X30703Y-20554D01*
X30605Y-20651D01*
X30500Y-20651D01*
X28728Y-20651D01*
X28728Y-20123D01*
X28720Y-19835D01*
X28626Y-19606D01*
X28477Y-19593D01*
X28070Y-20000D01*
X28477Y-20406D01*
X28626Y-20393D01*
X28728Y-20123D01*
X28728Y-20651D01*
X28393Y-20651D01*
X28375Y-20633D01*
X28393Y-20626D01*
X28406Y-20477D01*
X28000Y-20070D01*
X27929Y-20141D01*
X27929Y-20000D01*
X27522Y-19593D01*
X27373Y-19606D01*
X27271Y-19876D01*
X27279Y-20164D01*
X27373Y-20393D01*
X27522Y-20406D01*
X27929Y-20000D01*
X27929Y-20141D01*
X27593Y-20477D01*
X27606Y-20626D01*
X27624Y-20632D01*
X27555Y-20702D01*
X27475Y-20895D01*
X27475Y-20982D01*
X26246Y-19753D01*
X26133Y-19678D01*
X26111Y-19673D01*
X26000Y-19651D01*
X25999Y-19651D01*
X25393Y-19651D01*
X25297Y-19555D01*
X25164Y-19499D01*
X25297Y-19445D01*
X25444Y-19297D01*
X25524Y-19104D01*
X25525Y-18896D01*
X25445Y-18703D01*
X25297Y-18555D01*
X25164Y-18499D01*
X25297Y-18445D01*
X25409Y-18333D01*
X25787Y-18712D01*
X25787Y-18712D01*
X25885Y-18777D01*
X26000Y-18800D01*
X27514Y-18800D01*
X27475Y-18895D01*
X27474Y-19103D01*
X27554Y-19297D01*
X27624Y-19366D01*
X27606Y-19373D01*
X27593Y-19522D01*
X28000Y-19929D01*
X28406Y-19522D01*
X28393Y-19373D01*
X28375Y-19367D01*
X28444Y-19297D01*
X28524Y-19104D01*
X28525Y-18896D01*
X28485Y-18800D01*
X28900Y-18800D01*
X29000Y-18800D01*
X29775Y-18800D01*
X30287Y-19312D01*
X30287Y-19312D01*
X30385Y-19377D01*
X30500Y-19400D01*
X31800Y-19400D01*
X31900Y-19400D01*
X32475Y-19400D01*
X34550Y-21475D01*
X34396Y-21474D01*
X34203Y-21554D01*
X34055Y-21702D01*
X33975Y-21895D01*
X33974Y-22103D01*
X34054Y-22297D01*
X34062Y-22305D01*
X33970Y-22343D01*
X33843Y-22469D01*
X33775Y-22635D01*
X33774Y-22814D01*
X33775Y-22837D01*
X33887Y-22950D01*
X34450Y-22950D01*
X34450Y-22942D01*
X34550Y-22942D01*
X34550Y-22950D01*
X35112Y-22950D01*
X35225Y-22837D01*
X35225Y-22814D01*
X35224Y-22635D01*
X35156Y-22469D01*
X35029Y-22343D01*
X34937Y-22305D01*
X34944Y-22297D01*
X35000Y-22164D01*
X35054Y-22297D01*
X35202Y-22444D01*
X35395Y-22524D01*
X35603Y-22525D01*
X35797Y-22445D01*
X35944Y-22297D01*
X36024Y-22104D01*
X36025Y-21896D01*
X35945Y-21703D01*
X35797Y-21555D01*
X35604Y-21475D01*
X35399Y-21474D01*
X35212Y-21287D01*
X35212Y-21287D01*
X35212Y-21287D01*
X34525Y-20600D01*
X34525Y-17896D01*
X34445Y-17703D01*
X34297Y-17555D01*
X34164Y-17499D01*
X34297Y-17445D01*
X34444Y-17297D01*
X34524Y-17104D01*
X34525Y-16896D01*
X34445Y-16703D01*
X34297Y-16555D01*
X34228Y-16526D01*
X34228Y-13123D01*
X34220Y-12835D01*
X34126Y-12606D01*
X33977Y-12593D01*
X33906Y-12664D01*
X33906Y-12522D01*
X33893Y-12373D01*
X33623Y-12271D01*
X33335Y-12279D01*
X33106Y-12373D01*
X33093Y-12522D01*
X33500Y-12929D01*
X33906Y-12522D01*
X33906Y-12664D01*
X33570Y-13000D01*
X33977Y-13406D01*
X34126Y-13393D01*
X34228Y-13123D01*
X34228Y-16526D01*
X34104Y-16475D01*
X34025Y-16475D01*
X34025Y-15896D01*
X33945Y-15703D01*
X33906Y-15663D01*
X33906Y-13477D01*
X33500Y-13070D01*
X33429Y-13141D01*
X33429Y-13000D01*
X33022Y-12593D01*
X32873Y-12606D01*
X32771Y-12876D01*
X32779Y-13164D01*
X32873Y-13393D01*
X33022Y-13406D01*
X33429Y-13000D01*
X33429Y-13141D01*
X33093Y-13477D01*
X33106Y-13626D01*
X33376Y-13728D01*
X33664Y-13720D01*
X33893Y-13626D01*
X33906Y-13477D01*
X33906Y-15663D01*
X33797Y-15555D01*
X33604Y-15475D01*
X33396Y-15474D01*
X33203Y-15554D01*
X33055Y-15702D01*
X32975Y-15895D01*
X32974Y-16103D01*
X33054Y-16297D01*
X33202Y-16444D01*
X33395Y-16524D01*
X33603Y-16525D01*
X33797Y-16445D01*
X33944Y-16297D01*
X34024Y-16104D01*
X34025Y-15896D01*
X34025Y-16475D01*
X33896Y-16474D01*
X33703Y-16554D01*
X33555Y-16702D01*
X33475Y-16895D01*
X33474Y-17103D01*
X33554Y-17297D01*
X33702Y-17444D01*
X33835Y-17500D01*
X33703Y-17554D01*
X33555Y-17702D01*
X33475Y-17895D01*
X33474Y-18103D01*
X33554Y-18297D01*
X33702Y-18444D01*
X33895Y-18524D01*
X34103Y-18525D01*
X34297Y-18445D01*
X34444Y-18297D01*
X34524Y-18104D01*
X34525Y-17896D01*
X34525Y-20600D01*
X32812Y-18887D01*
X32714Y-18822D01*
X32600Y-18800D01*
X31900Y-18800D01*
X31800Y-18800D01*
X31525Y-18800D01*
X31525Y-17896D01*
X31445Y-17703D01*
X31297Y-17555D01*
X31164Y-17499D01*
X31297Y-17445D01*
X31444Y-17297D01*
X31524Y-17104D01*
X31525Y-16896D01*
X31445Y-16703D01*
X31297Y-16555D01*
X31104Y-16475D01*
X30896Y-16474D01*
X30703Y-16554D01*
X30605Y-16651D01*
X29252Y-16651D01*
X29241Y-16639D01*
X29084Y-16575D01*
X28915Y-16574D01*
X28759Y-16639D01*
X28639Y-16758D01*
X28575Y-16915D01*
X28574Y-17084D01*
X28639Y-17240D01*
X28758Y-17360D01*
X28915Y-17424D01*
X29084Y-17425D01*
X29240Y-17360D01*
X29252Y-17348D01*
X30606Y-17348D01*
X30702Y-17444D01*
X30835Y-17500D01*
X30703Y-17554D01*
X30555Y-17702D01*
X30475Y-17895D01*
X30474Y-18103D01*
X30554Y-18297D01*
X30702Y-18444D01*
X30895Y-18524D01*
X31103Y-18525D01*
X31297Y-18445D01*
X31444Y-18297D01*
X31524Y-18104D01*
X31525Y-17896D01*
X31525Y-18800D01*
X30624Y-18800D01*
X30112Y-18287D01*
X30014Y-18222D01*
X29900Y-18200D01*
X29000Y-18200D01*
X28900Y-18200D01*
X28485Y-18200D01*
X28524Y-18104D01*
X28525Y-17896D01*
X28445Y-17703D01*
X28297Y-17555D01*
X28164Y-17499D01*
X28297Y-17445D01*
X28444Y-17297D01*
X28524Y-17104D01*
X28525Y-16896D01*
X28445Y-16703D01*
X28297Y-16555D01*
X28164Y-16499D01*
X28297Y-16445D01*
X28444Y-16297D01*
X28524Y-16104D01*
X28525Y-15896D01*
X28445Y-15703D01*
X28297Y-15555D01*
X28164Y-15499D01*
X28297Y-15445D01*
X28444Y-15297D01*
X28524Y-15104D01*
X28525Y-14896D01*
X28445Y-14703D01*
X28297Y-14555D01*
X28164Y-14499D01*
X28297Y-14445D01*
X28444Y-14297D01*
X28524Y-14104D01*
X28525Y-13896D01*
X28445Y-13703D01*
X28297Y-13555D01*
X28104Y-13475D01*
X27896Y-13474D01*
X27703Y-13554D01*
X27555Y-13702D01*
X27475Y-13895D01*
X27474Y-14103D01*
X27554Y-14297D01*
X27702Y-14444D01*
X27835Y-14500D01*
X27703Y-14554D01*
X27555Y-14702D01*
X27475Y-14895D01*
X27474Y-15103D01*
X27554Y-15297D01*
X27702Y-15444D01*
X27835Y-15500D01*
X27703Y-15554D01*
X27555Y-15702D01*
X27475Y-15895D01*
X27474Y-16103D01*
X27554Y-16297D01*
X27702Y-16444D01*
X27835Y-16500D01*
X27703Y-16554D01*
X27555Y-16702D01*
X27475Y-16895D01*
X27474Y-17103D01*
X27554Y-17297D01*
X27702Y-17444D01*
X27835Y-17500D01*
X27703Y-17554D01*
X27555Y-17702D01*
X27475Y-17895D01*
X27474Y-18103D01*
X27514Y-18200D01*
X26124Y-18200D01*
X25712Y-17787D01*
X25614Y-17722D01*
X25500Y-17700D01*
X25442Y-17700D01*
X25297Y-17555D01*
X25164Y-17499D01*
X25297Y-17445D01*
X25444Y-17297D01*
X25524Y-17104D01*
X25525Y-16896D01*
X25445Y-16703D01*
X25297Y-16555D01*
X25164Y-16499D01*
X25297Y-16445D01*
X25444Y-16297D01*
X25524Y-16104D01*
X25525Y-15896D01*
X25445Y-15703D01*
X25297Y-15555D01*
X25164Y-15499D01*
X25297Y-15445D01*
X25444Y-15297D01*
X25524Y-15104D01*
X25525Y-14896D01*
X25445Y-14703D01*
X25297Y-14555D01*
X25225Y-14525D01*
X25324Y-14525D01*
X25416Y-14487D01*
X25486Y-14416D01*
X25524Y-14324D01*
X25525Y-14225D01*
X25525Y-13675D01*
X25487Y-13583D01*
X25416Y-13513D01*
X25324Y-13475D01*
X25225Y-13474D01*
X24675Y-13474D01*
X24583Y-13512D01*
X24513Y-13583D01*
X24475Y-13675D01*
X24474Y-13774D01*
X24474Y-14324D01*
X24512Y-14416D01*
X24583Y-14486D01*
X24675Y-14524D01*
X24774Y-14525D01*
X24774Y-14525D01*
X24703Y-14554D01*
X24555Y-14702D01*
X24475Y-14895D01*
X24474Y-15103D01*
X24554Y-15297D01*
X24702Y-15444D01*
X24835Y-15500D01*
X24703Y-15554D01*
X24555Y-15702D01*
X24475Y-15895D01*
X24474Y-16103D01*
X24554Y-16297D01*
X24702Y-16444D01*
X24835Y-16500D01*
X24703Y-16554D01*
X24555Y-16702D01*
X24475Y-16895D01*
X24474Y-17103D01*
X24554Y-17297D01*
X24702Y-17444D01*
X24835Y-17500D01*
X24703Y-17554D01*
X24555Y-17702D01*
X24475Y-17895D01*
X24474Y-18103D01*
X24554Y-18297D01*
X24702Y-18444D01*
X24835Y-18500D01*
X24703Y-18554D01*
X24555Y-18702D01*
X24475Y-18895D01*
X24474Y-19103D01*
X24554Y-19297D01*
X24702Y-19444D01*
X24835Y-19500D01*
X24703Y-19554D01*
X24555Y-19702D01*
X24475Y-19895D01*
X24474Y-20103D01*
X24554Y-20297D01*
X24624Y-20366D01*
X24606Y-20373D01*
X24593Y-20522D01*
X25000Y-20929D01*
X25406Y-20522D01*
X25393Y-20373D01*
X25375Y-20367D01*
X25394Y-20348D01*
X25855Y-20348D01*
X27475Y-21967D01*
X27474Y-22103D01*
X27554Y-22297D01*
X27702Y-22444D01*
X27835Y-22500D01*
X27703Y-22554D01*
X27555Y-22702D01*
X27475Y-22895D01*
X27474Y-23103D01*
X27554Y-23297D01*
X27702Y-23444D01*
X27835Y-23500D01*
X27703Y-23554D01*
X27555Y-23702D01*
X27475Y-23895D01*
X27474Y-24103D01*
X27554Y-24297D01*
X27702Y-24444D01*
X27835Y-24500D01*
X27703Y-24554D01*
X27555Y-24702D01*
X27475Y-24895D01*
X27474Y-25103D01*
X27554Y-25297D01*
X27702Y-25444D01*
X27835Y-25500D01*
X27703Y-25554D01*
X27555Y-25702D01*
X27475Y-25895D01*
X27474Y-26103D01*
X27554Y-26297D01*
X27702Y-26444D01*
X27835Y-26500D01*
X27703Y-26554D01*
X27555Y-26702D01*
X27475Y-26895D01*
X27474Y-27100D01*
X26675Y-27900D01*
X25728Y-27900D01*
X25728Y-21123D01*
X25720Y-20835D01*
X25626Y-20606D01*
X25477Y-20593D01*
X25070Y-21000D01*
X25477Y-21406D01*
X25626Y-21393D01*
X25728Y-21123D01*
X25728Y-27900D01*
X25525Y-27900D01*
X25525Y-26896D01*
X25445Y-26703D01*
X25297Y-26555D01*
X25164Y-26499D01*
X25297Y-26445D01*
X25444Y-26297D01*
X25524Y-26104D01*
X25525Y-25896D01*
X25445Y-25703D01*
X25297Y-25555D01*
X25164Y-25499D01*
X25297Y-25445D01*
X25444Y-25297D01*
X25524Y-25104D01*
X25525Y-24896D01*
X25445Y-24703D01*
X25297Y-24555D01*
X25164Y-24499D01*
X25297Y-24445D01*
X25444Y-24297D01*
X25524Y-24104D01*
X25525Y-23896D01*
X25445Y-23703D01*
X25297Y-23555D01*
X25164Y-23499D01*
X25297Y-23445D01*
X25444Y-23297D01*
X25524Y-23104D01*
X25525Y-22896D01*
X25445Y-22703D01*
X25297Y-22555D01*
X25164Y-22499D01*
X25297Y-22445D01*
X25444Y-22297D01*
X25524Y-22104D01*
X25525Y-21896D01*
X25445Y-21703D01*
X25375Y-21633D01*
X25393Y-21626D01*
X25406Y-21477D01*
X25000Y-21070D01*
X24929Y-21141D01*
X24929Y-21000D01*
X24522Y-20593D01*
X24425Y-20602D01*
X24425Y-16915D01*
X24360Y-16759D01*
X24241Y-16639D01*
X24084Y-16575D01*
X23915Y-16574D01*
X23759Y-16639D01*
X23698Y-16700D01*
X21724Y-16700D01*
X22124Y-16300D01*
X23698Y-16300D01*
X23758Y-16360D01*
X23915Y-16424D01*
X24084Y-16425D01*
X24240Y-16360D01*
X24360Y-16241D01*
X24424Y-16084D01*
X24425Y-15915D01*
X24360Y-15759D01*
X24241Y-15639D01*
X24084Y-15575D01*
X23915Y-15574D01*
X23759Y-15639D01*
X23698Y-15700D01*
X22124Y-15700D01*
X22524Y-15300D01*
X23698Y-15300D01*
X23758Y-15360D01*
X23915Y-15424D01*
X24084Y-15425D01*
X24240Y-15360D01*
X24360Y-15241D01*
X24424Y-15084D01*
X24425Y-14915D01*
X24360Y-14759D01*
X24241Y-14639D01*
X24084Y-14575D01*
X23915Y-14574D01*
X23759Y-14639D01*
X23698Y-14700D01*
X22400Y-14700D01*
X22285Y-14722D01*
X22187Y-14787D01*
X19875Y-17100D01*
X17400Y-17100D01*
X17293Y-17121D01*
X17293Y-13750D01*
X17228Y-13593D01*
X17108Y-13473D01*
X16951Y-13408D01*
X16781Y-13407D01*
X16624Y-13472D01*
X16504Y-13592D01*
X16439Y-13749D01*
X16438Y-13919D01*
X16503Y-14076D01*
X16623Y-14196D01*
X16780Y-14261D01*
X16950Y-14262D01*
X17107Y-14197D01*
X17227Y-14077D01*
X17292Y-13920D01*
X17293Y-13750D01*
X17293Y-17121D01*
X17285Y-17122D01*
X17187Y-17187D01*
X16625Y-17750D01*
X16625Y-15715D01*
X16560Y-15559D01*
X16441Y-15439D01*
X16284Y-15375D01*
X16115Y-15374D01*
X15959Y-15439D01*
X15900Y-15498D01*
X15841Y-15439D01*
X15684Y-15375D01*
X15561Y-15374D01*
X15561Y-13750D01*
X15496Y-13593D01*
X15376Y-13473D01*
X15219Y-13408D01*
X15049Y-13407D01*
X14892Y-13472D01*
X14772Y-13592D01*
X14707Y-13749D01*
X14706Y-13919D01*
X14771Y-14076D01*
X14891Y-14196D01*
X15048Y-14261D01*
X15218Y-14262D01*
X15375Y-14197D01*
X15495Y-14077D01*
X15560Y-13920D01*
X15561Y-13750D01*
X15561Y-15374D01*
X15515Y-15374D01*
X15359Y-15439D01*
X15239Y-15558D01*
X15175Y-15715D01*
X15174Y-15807D01*
X15122Y-15885D01*
X15100Y-16000D01*
X15100Y-17098D01*
X15039Y-17158D01*
X14975Y-17315D01*
X14974Y-17484D01*
X15039Y-17640D01*
X15158Y-17760D01*
X15315Y-17824D01*
X15484Y-17825D01*
X15640Y-17760D01*
X15699Y-17701D01*
X15758Y-17760D01*
X15915Y-17824D01*
X16084Y-17825D01*
X16240Y-17760D01*
X16360Y-17641D01*
X16424Y-17484D01*
X16425Y-17315D01*
X16360Y-17159D01*
X16300Y-17098D01*
X16300Y-16218D01*
X16440Y-16160D01*
X16560Y-16041D01*
X16624Y-15884D01*
X16625Y-15715D01*
X16625Y-17750D01*
X16000Y-18375D01*
X15915Y-18374D01*
X15759Y-18439D01*
X15639Y-18558D01*
X15575Y-18715D01*
X15574Y-18884D01*
X15639Y-19040D01*
X15698Y-19099D01*
X15639Y-19158D01*
X15575Y-19315D01*
X15574Y-19484D01*
X15639Y-19640D01*
X15698Y-19699D01*
X15639Y-19758D01*
X15575Y-19915D01*
X15574Y-20084D01*
X15639Y-20240D01*
X15758Y-20360D01*
X15915Y-20424D01*
X16084Y-20425D01*
X16240Y-20360D01*
X16360Y-20241D01*
X16424Y-20084D01*
X16425Y-19999D01*
X17924Y-18500D01*
X20400Y-18500D01*
X20400Y-18499D01*
X20514Y-18477D01*
X20514Y-18477D01*
X20612Y-18412D01*
X21724Y-17300D01*
X23698Y-17300D01*
X23758Y-17360D01*
X23915Y-17424D01*
X24084Y-17425D01*
X24240Y-17360D01*
X24360Y-17241D01*
X24424Y-17084D01*
X24425Y-16915D01*
X24425Y-20602D01*
X24373Y-20606D01*
X24271Y-20876D01*
X24279Y-21164D01*
X24373Y-21393D01*
X24522Y-21406D01*
X24929Y-21000D01*
X24929Y-21141D01*
X24593Y-21477D01*
X24606Y-21626D01*
X24624Y-21632D01*
X24557Y-21700D01*
X22624Y-21700D01*
X22029Y-21105D01*
X22030Y-20895D01*
X21949Y-20700D01*
X21800Y-20550D01*
X21605Y-20470D01*
X21395Y-20469D01*
X21200Y-20550D01*
X21050Y-20699D01*
X20970Y-20894D01*
X20969Y-21104D01*
X21050Y-21299D01*
X21199Y-21449D01*
X21394Y-21529D01*
X21604Y-21530D01*
X21605Y-21529D01*
X22287Y-22212D01*
X22287Y-22212D01*
X22385Y-22277D01*
X22500Y-22300D01*
X24557Y-22300D01*
X24702Y-22444D01*
X24835Y-22500D01*
X24703Y-22554D01*
X24557Y-22700D01*
X21949Y-22700D01*
X21800Y-22550D01*
X21605Y-22470D01*
X21395Y-22469D01*
X21200Y-22550D01*
X21050Y-22699D01*
X20970Y-22894D01*
X20969Y-23104D01*
X21050Y-23299D01*
X21199Y-23449D01*
X21394Y-23529D01*
X21604Y-23530D01*
X21799Y-23449D01*
X21949Y-23300D01*
X21949Y-23300D01*
X24557Y-23300D01*
X24702Y-23444D01*
X24835Y-23500D01*
X24703Y-23554D01*
X24555Y-23702D01*
X24475Y-23895D01*
X24474Y-24103D01*
X24554Y-24297D01*
X24702Y-24444D01*
X24835Y-24500D01*
X24703Y-24554D01*
X24555Y-24702D01*
X24475Y-24895D01*
X24474Y-25103D01*
X24554Y-25297D01*
X24702Y-25444D01*
X24835Y-25500D01*
X24703Y-25554D01*
X24605Y-25651D01*
X24393Y-25651D01*
X24297Y-25555D01*
X24104Y-25475D01*
X23896Y-25474D01*
X23703Y-25554D01*
X23555Y-25702D01*
X23475Y-25895D01*
X23474Y-26103D01*
X23554Y-26297D01*
X23702Y-26444D01*
X23835Y-26500D01*
X23703Y-26554D01*
X23555Y-26702D01*
X23475Y-26895D01*
X23474Y-27103D01*
X23554Y-27297D01*
X23702Y-27444D01*
X23895Y-27524D01*
X24103Y-27525D01*
X24297Y-27445D01*
X24394Y-27348D01*
X24606Y-27348D01*
X24702Y-27444D01*
X24895Y-27524D01*
X25103Y-27525D01*
X25297Y-27445D01*
X25444Y-27297D01*
X25524Y-27104D01*
X25525Y-26896D01*
X25525Y-27900D01*
X25301Y-27900D01*
X25241Y-27839D01*
X25084Y-27775D01*
X24915Y-27774D01*
X24759Y-27839D01*
X24639Y-27958D01*
X24575Y-28115D01*
X24574Y-28251D01*
X22344Y-28251D01*
X21546Y-27453D01*
X21433Y-27378D01*
X21411Y-27373D01*
X21375Y-27366D01*
X21444Y-27297D01*
X21524Y-27104D01*
X21525Y-26896D01*
X21445Y-26703D01*
X21297Y-26555D01*
X21164Y-26499D01*
X21297Y-26445D01*
X21444Y-26297D01*
X21524Y-26104D01*
X21525Y-25896D01*
X21445Y-25703D01*
X21297Y-25555D01*
X21104Y-25475D01*
X20896Y-25474D01*
X20703Y-25554D01*
X20555Y-25702D01*
X20475Y-25895D01*
X20474Y-26103D01*
X20554Y-26297D01*
X20702Y-26444D01*
X20835Y-26500D01*
X20703Y-26554D01*
X20555Y-26702D01*
X20475Y-26895D01*
X20474Y-27103D01*
X20554Y-27297D01*
X20609Y-27351D01*
X18328Y-27351D01*
X18328Y-24923D01*
X18320Y-24635D01*
X18226Y-24406D01*
X18125Y-24397D01*
X18125Y-23696D01*
X18045Y-23503D01*
X17897Y-23355D01*
X17704Y-23275D01*
X17496Y-23274D01*
X17303Y-23354D01*
X17155Y-23502D01*
X17075Y-23695D01*
X17074Y-23903D01*
X17154Y-24097D01*
X17224Y-24166D01*
X17206Y-24173D01*
X17193Y-24322D01*
X17600Y-24729D01*
X18006Y-24322D01*
X17993Y-24173D01*
X17975Y-24167D01*
X18044Y-24097D01*
X18124Y-23904D01*
X18125Y-23696D01*
X18125Y-24397D01*
X18077Y-24393D01*
X17670Y-24800D01*
X18077Y-25206D01*
X18226Y-25193D01*
X18328Y-24923D01*
X18328Y-27351D01*
X18006Y-27351D01*
X18006Y-25277D01*
X17600Y-24870D01*
X17193Y-25277D01*
X17206Y-25426D01*
X17476Y-25528D01*
X17764Y-25520D01*
X17993Y-25426D01*
X18006Y-25277D01*
X18006Y-27351D01*
X17281Y-27351D01*
X17297Y-27345D01*
X17444Y-27197D01*
X17524Y-27004D01*
X17525Y-26796D01*
X17445Y-26603D01*
X17297Y-26455D01*
X17104Y-26375D01*
X16967Y-26374D01*
X16948Y-26355D01*
X16948Y-25315D01*
X17016Y-25287D01*
X17086Y-25216D01*
X17092Y-25203D01*
X17122Y-25206D01*
X17529Y-24800D01*
X17122Y-24393D01*
X17092Y-24396D01*
X17087Y-24383D01*
X17016Y-24313D01*
X16924Y-24275D01*
X16825Y-24274D01*
X16275Y-24274D01*
X16183Y-24312D01*
X16113Y-24383D01*
X16084Y-24451D01*
X15629Y-24451D01*
X15511Y-24334D01*
X15309Y-24250D01*
X15091Y-24249D01*
X14888Y-24333D01*
X14734Y-24488D01*
X14650Y-24690D01*
X14649Y-24908D01*
X14733Y-25111D01*
X14888Y-25265D01*
X15090Y-25349D01*
X15308Y-25350D01*
X15511Y-25266D01*
X15629Y-25148D01*
X16084Y-25148D01*
X16112Y-25216D01*
X16183Y-25286D01*
X16251Y-25315D01*
X16251Y-26499D01*
X16251Y-26500D01*
X16253Y-26511D01*
X16197Y-26455D01*
X16004Y-26375D01*
X15796Y-26374D01*
X15603Y-26454D01*
X15455Y-26602D01*
X15399Y-26735D01*
X15345Y-26603D01*
X15197Y-26455D01*
X15004Y-26375D01*
X14796Y-26374D01*
X14603Y-26454D01*
X14455Y-26602D01*
X14399Y-26735D01*
X14345Y-26603D01*
X14197Y-26455D01*
X14004Y-26375D01*
X13796Y-26374D01*
X13603Y-26454D01*
X13455Y-26602D01*
X13399Y-26735D01*
X13345Y-26603D01*
X13197Y-26455D01*
X13013Y-26378D01*
X14446Y-24946D01*
X14446Y-24946D01*
X14446Y-24946D01*
X14521Y-24833D01*
X14548Y-24700D01*
X14548Y-24700D01*
X14548Y-24699D01*
X14548Y-24229D01*
X14665Y-24111D01*
X14749Y-23909D01*
X14750Y-23691D01*
X14666Y-23488D01*
X14511Y-23334D01*
X14309Y-23250D01*
X14091Y-23249D01*
X13888Y-23333D01*
X13750Y-23471D01*
X13750Y-16872D01*
X13591Y-16486D01*
X13295Y-16190D01*
X12910Y-16030D01*
X12492Y-16029D01*
X12106Y-16189D01*
X11810Y-16484D01*
X11650Y-16870D01*
X11650Y-17287D01*
X11809Y-17674D01*
X12104Y-17969D01*
X12490Y-18129D01*
X12908Y-18130D01*
X13294Y-17970D01*
X13590Y-17675D01*
X13750Y-17289D01*
X13750Y-16872D01*
X13750Y-23471D01*
X13734Y-23488D01*
X13650Y-23690D01*
X13649Y-23908D01*
X13733Y-24111D01*
X13851Y-24229D01*
X13851Y-24403D01*
X13846Y-24391D01*
X13695Y-24375D01*
X13624Y-24446D01*
X13624Y-24304D01*
X13608Y-24153D01*
X13329Y-24046D01*
X13031Y-24054D01*
X12791Y-24153D01*
X12775Y-24304D01*
X13200Y-24729D01*
X13624Y-24304D01*
X13624Y-24446D01*
X13270Y-24800D01*
X13276Y-24805D01*
X13205Y-24876D01*
X13200Y-24870D01*
X13129Y-24941D01*
X13129Y-24800D01*
X12704Y-24375D01*
X12553Y-24391D01*
X12446Y-24670D01*
X12454Y-24968D01*
X12553Y-25208D01*
X12704Y-25224D01*
X13129Y-24800D01*
X13129Y-24941D01*
X12775Y-25295D01*
X12791Y-25446D01*
X12913Y-25493D01*
X11853Y-26553D01*
X11778Y-26666D01*
X11773Y-26688D01*
X11751Y-26800D01*
X11751Y-26800D01*
X11751Y-30499D01*
X11751Y-30500D01*
X11773Y-30611D01*
X11778Y-30633D01*
X11853Y-30746D01*
X12753Y-31646D01*
X12753Y-31646D01*
X12866Y-31721D01*
X13000Y-31748D01*
X13000Y-31748D01*
X13000Y-31748D01*
X13506Y-31748D01*
X13602Y-31844D01*
X13795Y-31924D01*
X14003Y-31925D01*
X14197Y-31845D01*
X14266Y-31775D01*
X14273Y-31793D01*
X14422Y-31806D01*
X14829Y-31400D01*
X14823Y-31394D01*
X14894Y-31323D01*
X14900Y-31329D01*
X15306Y-30922D01*
X15293Y-30773D01*
X15023Y-30671D01*
X14735Y-30679D01*
X14527Y-30765D01*
X14867Y-30424D01*
X15003Y-30425D01*
X15197Y-30345D01*
X15344Y-30197D01*
X15400Y-30064D01*
X15454Y-30197D01*
X15602Y-30344D01*
X15791Y-30423D01*
X17753Y-32385D01*
X17753Y-35972D01*
X17743Y-35962D01*
X17506Y-35864D01*
X17250Y-35864D01*
X17013Y-35961D01*
X16832Y-36142D01*
X16734Y-36379D01*
X16734Y-36635D01*
X16781Y-36749D01*
X16717Y-36751D01*
X16480Y-36849D01*
X16464Y-37000D01*
X16885Y-37421D01*
X16891Y-37415D01*
X16962Y-37486D01*
X16956Y-37492D01*
X17377Y-37913D01*
X17528Y-37897D01*
X17634Y-37620D01*
X17626Y-37324D01*
X17548Y-37134D01*
X17742Y-37053D01*
X17753Y-37042D01*
X17753Y-37400D01*
X17787Y-37571D01*
X17884Y-37715D01*
X18698Y-38530D01*
X17306Y-38530D01*
X17306Y-37983D01*
X16885Y-37562D01*
X16815Y-37633D01*
X16815Y-37492D01*
X16394Y-37071D01*
X16243Y-37086D01*
X16136Y-37363D01*
X16144Y-37660D01*
X16243Y-37897D01*
X16394Y-37913D01*
X16815Y-37492D01*
X16815Y-37633D01*
X16464Y-37983D01*
X16480Y-38134D01*
X16757Y-38241D01*
X17053Y-38233D01*
X17291Y-38134D01*
X17306Y-37983D01*
X17306Y-38530D01*
X15659Y-38530D01*
X15659Y-37384D01*
X15628Y-37309D01*
X15628Y-31523D01*
X15620Y-31235D01*
X15526Y-31006D01*
X15377Y-30993D01*
X14970Y-31400D01*
X15377Y-31806D01*
X15526Y-31793D01*
X15628Y-31523D01*
X15628Y-37309D01*
X15576Y-37183D01*
X15423Y-37030D01*
X15306Y-36981D01*
X15306Y-31877D01*
X14900Y-31470D01*
X14493Y-31877D01*
X14506Y-32026D01*
X14776Y-32128D01*
X15064Y-32120D01*
X15293Y-32026D01*
X15306Y-31877D01*
X15306Y-36981D01*
X15223Y-36946D01*
X15093Y-36946D01*
X15167Y-36872D01*
X15265Y-36636D01*
X15265Y-36380D01*
X15168Y-36143D01*
X14987Y-35962D01*
X14750Y-35864D01*
X14494Y-35864D01*
X14257Y-35961D01*
X14076Y-36142D01*
X13978Y-36379D01*
X13978Y-36635D01*
X14076Y-36872D01*
X14256Y-37053D01*
X14493Y-37151D01*
X14683Y-37151D01*
X14652Y-37182D01*
X14568Y-37383D01*
X14568Y-37600D01*
X14651Y-37800D01*
X14804Y-37954D01*
X15005Y-38037D01*
X15222Y-38037D01*
X15422Y-37954D01*
X15576Y-37801D01*
X15659Y-37601D01*
X15659Y-37384D01*
X15659Y-38530D01*
X13750Y-38530D01*
X13750Y-33512D01*
X13591Y-33126D01*
X13295Y-32830D01*
X12910Y-32670D01*
X12492Y-32669D01*
X12106Y-32829D01*
X11810Y-33124D01*
X11650Y-33510D01*
X11650Y-33927D01*
X11809Y-34314D01*
X12104Y-34609D01*
X12490Y-34769D01*
X12908Y-34770D01*
X13294Y-34610D01*
X13590Y-34315D01*
X13750Y-33929D01*
X13750Y-33512D01*
X13750Y-38530D01*
X11269Y-38530D01*
X11269Y-12269D01*
X34480Y-12269D01*
X34454Y-12400D01*
X34454Y-16000D01*
X34496Y-16208D01*
X34614Y-16385D01*
X35114Y-16885D01*
X35291Y-17003D01*
X35291Y-17003D01*
X35500Y-17045D01*
X35614Y-17045D01*
X35496Y-17162D01*
X35405Y-17381D01*
X35405Y-17617D01*
X35495Y-17836D01*
X35662Y-18003D01*
X35881Y-18094D01*
X36117Y-18094D01*
X36336Y-18004D01*
X36503Y-17837D01*
X36594Y-17618D01*
X36594Y-17382D01*
X36504Y-17163D01*
X36386Y-17045D01*
X36474Y-17045D01*
X36954Y-17525D01*
X36954Y-19500D01*
X36954Y-21913D01*
X35384Y-23484D01*
X35287Y-23628D01*
X35253Y-23800D01*
X35253Y-25200D01*
X35287Y-25371D01*
X35384Y-25515D01*
X36484Y-26615D01*
X36484Y-26615D01*
X36609Y-26700D01*
X35225Y-26700D01*
X35225Y-23185D01*
X35225Y-23162D01*
X35112Y-23050D01*
X34550Y-23050D01*
X34550Y-23612D01*
X34662Y-23725D01*
X34864Y-23725D01*
X35029Y-23656D01*
X35156Y-23530D01*
X35224Y-23364D01*
X35225Y-23185D01*
X35225Y-26700D01*
X34450Y-26700D01*
X34450Y-23612D01*
X34450Y-23050D01*
X33887Y-23050D01*
X33775Y-23162D01*
X33774Y-23185D01*
X33775Y-23364D01*
X33843Y-23530D01*
X33970Y-23656D01*
X34135Y-23725D01*
X34337Y-23725D01*
X34450Y-23612D01*
X34450Y-26700D01*
X33253Y-26700D01*
X33253Y-24629D01*
X33245Y-24331D01*
X33146Y-24091D01*
X32995Y-24075D01*
X32570Y-24500D01*
X32995Y-24924D01*
X33146Y-24908D01*
X33253Y-24629D01*
X33253Y-26700D01*
X30101Y-26700D01*
X30041Y-26639D01*
X29884Y-26575D01*
X29715Y-26574D01*
X29559Y-26639D01*
X29439Y-26758D01*
X29375Y-26915D01*
X29374Y-27084D01*
X29439Y-27240D01*
X29558Y-27360D01*
X29715Y-27424D01*
X29884Y-27425D01*
X30040Y-27360D01*
X30101Y-27300D01*
X38498Y-27300D01*
X38558Y-27360D01*
X38715Y-27424D01*
X38884Y-27425D01*
X39040Y-27360D01*
X39160Y-27241D01*
X39224Y-27084D01*
X39225Y-26956D01*
X40053Y-27785D01*
X40053Y-28000D01*
X39977Y-27993D01*
X39906Y-28064D01*
X39906Y-27922D01*
X39893Y-27773D01*
X39623Y-27671D01*
X39335Y-27679D01*
X39106Y-27773D01*
X39093Y-27922D01*
X39500Y-28329D01*
X39906Y-27922D01*
X39906Y-28064D01*
X39570Y-28400D01*
X39977Y-28806D01*
X40126Y-28793D01*
X40132Y-28775D01*
X40202Y-28844D01*
X40391Y-28923D01*
X40976Y-29508D01*
X41054Y-29697D01*
X41202Y-29844D01*
X41226Y-29854D01*
G54D10*
G36*
X41454Y-35974D02*
X41425Y-35974D01*
X40875Y-35974D01*
X40783Y-36012D01*
X40743Y-36053D01*
X40492Y-36053D01*
X40304Y-35975D01*
X40099Y-35974D01*
X39312Y-35187D01*
X39312Y-35187D01*
X39312Y-35187D01*
X39212Y-35087D01*
X39212Y-35087D01*
X39212Y-35087D01*
X39112Y-34987D01*
X39014Y-34922D01*
X38900Y-34900D01*
X35606Y-34900D01*
X35606Y-32977D01*
X35200Y-32570D01*
X34793Y-32977D01*
X34806Y-33126D01*
X35076Y-33228D01*
X35364Y-33220D01*
X35593Y-33126D01*
X35606Y-32977D01*
X35606Y-34900D01*
X34828Y-34900D01*
X34828Y-33623D01*
X34820Y-33335D01*
X34726Y-33106D01*
X34577Y-33093D01*
X34170Y-33500D01*
X34577Y-33906D01*
X34726Y-33893D01*
X34828Y-33623D01*
X34828Y-34900D01*
X34506Y-34900D01*
X34506Y-33977D01*
X34100Y-33570D01*
X33693Y-33977D01*
X33706Y-34126D01*
X33976Y-34228D01*
X34264Y-34220D01*
X34493Y-34126D01*
X34506Y-33977D01*
X34506Y-34900D01*
X28506Y-34900D01*
X28506Y-32977D01*
X28100Y-32570D01*
X27693Y-32977D01*
X27706Y-33126D01*
X27976Y-33228D01*
X28264Y-33220D01*
X28493Y-33126D01*
X28506Y-32977D01*
X28506Y-34900D01*
X27728Y-34900D01*
X27728Y-33623D01*
X27720Y-33335D01*
X27626Y-33106D01*
X27477Y-33093D01*
X27070Y-33500D01*
X27477Y-33906D01*
X27626Y-33893D01*
X27728Y-33623D01*
X27728Y-34900D01*
X27406Y-34900D01*
X27406Y-33977D01*
X27000Y-33570D01*
X26593Y-33977D01*
X26606Y-34126D01*
X26876Y-34228D01*
X27164Y-34220D01*
X27393Y-34126D01*
X27406Y-33977D01*
X27406Y-34900D01*
X21124Y-34900D01*
X20700Y-34475D01*
X20700Y-33161D01*
X20876Y-33228D01*
X21164Y-33220D01*
X21393Y-33126D01*
X21406Y-32977D01*
X21000Y-32570D01*
X20994Y-32576D01*
X20923Y-32505D01*
X20929Y-32500D01*
X20923Y-32494D01*
X20994Y-32423D01*
X21000Y-32429D01*
X21406Y-32022D01*
X21393Y-31873D01*
X21199Y-31800D01*
X21998Y-31800D01*
X22058Y-31860D01*
X22215Y-31924D01*
X22384Y-31925D01*
X22540Y-31860D01*
X22553Y-31847D01*
X22553Y-32207D01*
X22475Y-32395D01*
X22474Y-32603D01*
X22553Y-32793D01*
X22553Y-33207D01*
X22499Y-33335D01*
X22445Y-33203D01*
X22297Y-33055D01*
X22104Y-32975D01*
X21896Y-32974D01*
X21728Y-33044D01*
X21728Y-32623D01*
X21720Y-32335D01*
X21626Y-32106D01*
X21477Y-32093D01*
X21070Y-32500D01*
X21477Y-32906D01*
X21626Y-32893D01*
X21728Y-32623D01*
X21728Y-33044D01*
X21703Y-33054D01*
X21555Y-33202D01*
X21475Y-33395D01*
X21474Y-33603D01*
X21554Y-33797D01*
X21702Y-33944D01*
X21895Y-34024D01*
X22103Y-34025D01*
X22297Y-33945D01*
X22444Y-33797D01*
X22500Y-33664D01*
X22554Y-33797D01*
X22702Y-33944D01*
X22895Y-34024D01*
X23103Y-34025D01*
X23297Y-33945D01*
X23444Y-33797D01*
X23500Y-33664D01*
X23554Y-33797D01*
X23702Y-33944D01*
X23895Y-34024D01*
X24103Y-34025D01*
X24297Y-33945D01*
X24444Y-33797D01*
X24500Y-33664D01*
X24554Y-33797D01*
X24702Y-33944D01*
X24895Y-34024D01*
X25103Y-34025D01*
X25297Y-33945D01*
X25444Y-33797D01*
X25500Y-33664D01*
X25554Y-33797D01*
X25702Y-33944D01*
X25895Y-34024D01*
X26103Y-34025D01*
X26297Y-33945D01*
X26366Y-33875D01*
X26373Y-33893D01*
X26522Y-33906D01*
X26929Y-33500D01*
X26522Y-33093D01*
X26446Y-33100D01*
X26446Y-32946D01*
X26600Y-32946D01*
X26593Y-33022D01*
X27000Y-33429D01*
X27406Y-33022D01*
X27393Y-32873D01*
X27375Y-32867D01*
X27437Y-32805D01*
X27473Y-32893D01*
X27622Y-32906D01*
X28029Y-32500D01*
X27622Y-32093D01*
X27473Y-32106D01*
X27439Y-32197D01*
X27297Y-32055D01*
X27104Y-31975D01*
X26896Y-31974D01*
X26706Y-32053D01*
X26446Y-32053D01*
X26446Y-31792D01*
X26524Y-31604D01*
X26525Y-31396D01*
X26445Y-31203D01*
X26297Y-31055D01*
X26104Y-30975D01*
X25896Y-30974D01*
X25703Y-31054D01*
X25555Y-31202D01*
X25475Y-31395D01*
X25474Y-31603D01*
X25553Y-31793D01*
X25553Y-32053D01*
X24900Y-32053D01*
X24728Y-32087D01*
X24584Y-32184D01*
X24480Y-32287D01*
X24446Y-32206D01*
X24446Y-31792D01*
X24524Y-31604D01*
X24525Y-31396D01*
X24445Y-31203D01*
X24297Y-31055D01*
X24104Y-30975D01*
X23896Y-30974D01*
X23703Y-31054D01*
X23555Y-31202D01*
X23475Y-31395D01*
X23474Y-31603D01*
X23553Y-31793D01*
X23553Y-32207D01*
X23499Y-32335D01*
X23446Y-32206D01*
X23446Y-30945D01*
X29653Y-30945D01*
X29653Y-32207D01*
X29575Y-32395D01*
X29574Y-32603D01*
X29653Y-32793D01*
X29653Y-33207D01*
X29599Y-33335D01*
X29545Y-33203D01*
X29397Y-33055D01*
X29204Y-32975D01*
X28996Y-32974D01*
X28828Y-33044D01*
X28828Y-32623D01*
X28820Y-32335D01*
X28726Y-32106D01*
X28577Y-32093D01*
X28506Y-32164D01*
X28506Y-32022D01*
X28493Y-31873D01*
X28223Y-31771D01*
X27935Y-31779D01*
X27706Y-31873D01*
X27693Y-32022D01*
X28100Y-32429D01*
X28506Y-32022D01*
X28506Y-32164D01*
X28170Y-32500D01*
X28577Y-32906D01*
X28726Y-32893D01*
X28828Y-32623D01*
X28828Y-33044D01*
X28803Y-33054D01*
X28655Y-33202D01*
X28575Y-33395D01*
X28574Y-33603D01*
X28654Y-33797D01*
X28802Y-33944D01*
X28995Y-34024D01*
X29203Y-34025D01*
X29397Y-33945D01*
X29544Y-33797D01*
X29600Y-33664D01*
X29654Y-33797D01*
X29802Y-33944D01*
X29995Y-34024D01*
X30203Y-34025D01*
X30397Y-33945D01*
X30544Y-33797D01*
X30600Y-33664D01*
X30654Y-33797D01*
X30802Y-33944D01*
X30995Y-34024D01*
X31203Y-34025D01*
X31397Y-33945D01*
X31544Y-33797D01*
X31600Y-33664D01*
X31654Y-33797D01*
X31802Y-33944D01*
X31995Y-34024D01*
X32203Y-34025D01*
X32397Y-33945D01*
X32544Y-33797D01*
X32600Y-33664D01*
X32654Y-33797D01*
X32802Y-33944D01*
X32995Y-34024D01*
X33203Y-34025D01*
X33397Y-33945D01*
X33466Y-33875D01*
X33473Y-33893D01*
X33622Y-33906D01*
X34029Y-33500D01*
X33622Y-33093D01*
X33546Y-33100D01*
X33546Y-32846D01*
X33704Y-32846D01*
X33724Y-32866D01*
X33706Y-32873D01*
X33693Y-33022D01*
X34100Y-33429D01*
X34506Y-33022D01*
X34493Y-32873D01*
X34475Y-32867D01*
X34537Y-32805D01*
X34573Y-32893D01*
X34722Y-32906D01*
X35129Y-32500D01*
X34722Y-32093D01*
X34573Y-32106D01*
X34539Y-32197D01*
X34397Y-32055D01*
X34204Y-31975D01*
X34109Y-31975D01*
X34109Y-31975D01*
X34000Y-31953D01*
X33546Y-31953D01*
X33546Y-31792D01*
X33624Y-31604D01*
X33625Y-31396D01*
X33545Y-31203D01*
X33397Y-31055D01*
X33204Y-30975D01*
X32996Y-30974D01*
X32803Y-31054D01*
X32655Y-31202D01*
X32575Y-31395D01*
X32574Y-31603D01*
X32653Y-31793D01*
X32653Y-31953D01*
X32200Y-31953D01*
X32028Y-31987D01*
X31884Y-32084D01*
X31609Y-32358D01*
X31546Y-32206D01*
X31546Y-31792D01*
X31624Y-31604D01*
X31625Y-31396D01*
X31545Y-31203D01*
X31397Y-31055D01*
X31204Y-30975D01*
X30996Y-30974D01*
X30803Y-31054D01*
X30655Y-31202D01*
X30575Y-31395D01*
X30574Y-31603D01*
X30653Y-31793D01*
X30653Y-32207D01*
X30599Y-32335D01*
X30546Y-32206D01*
X30546Y-30945D01*
X35800Y-30945D01*
X36753Y-30945D01*
X36753Y-32207D01*
X36675Y-32395D01*
X36674Y-32603D01*
X36753Y-32793D01*
X36753Y-33207D01*
X36699Y-33335D01*
X36645Y-33203D01*
X36497Y-33055D01*
X36304Y-32975D01*
X36096Y-32974D01*
X35928Y-33044D01*
X35928Y-32623D01*
X35920Y-32335D01*
X35826Y-32106D01*
X35677Y-32093D01*
X35606Y-32164D01*
X35606Y-32022D01*
X35593Y-31873D01*
X35323Y-31771D01*
X35035Y-31779D01*
X34806Y-31873D01*
X34793Y-32022D01*
X35200Y-32429D01*
X35606Y-32022D01*
X35606Y-32164D01*
X35270Y-32500D01*
X35677Y-32906D01*
X35826Y-32893D01*
X35928Y-32623D01*
X35928Y-33044D01*
X35903Y-33054D01*
X35755Y-33202D01*
X35675Y-33395D01*
X35674Y-33603D01*
X35754Y-33797D01*
X35902Y-33944D01*
X36095Y-34024D01*
X36303Y-34025D01*
X36497Y-33945D01*
X36644Y-33797D01*
X36700Y-33664D01*
X36754Y-33797D01*
X36902Y-33944D01*
X37095Y-34024D01*
X37303Y-34025D01*
X37497Y-33945D01*
X37644Y-33797D01*
X37700Y-33664D01*
X37754Y-33797D01*
X37902Y-33944D01*
X38095Y-34024D01*
X38303Y-34025D01*
X38497Y-33945D01*
X38644Y-33797D01*
X38700Y-33664D01*
X38754Y-33797D01*
X38902Y-33944D01*
X39095Y-34024D01*
X39303Y-34025D01*
X39497Y-33945D01*
X39644Y-33797D01*
X39700Y-33664D01*
X39754Y-33797D01*
X39902Y-33944D01*
X40095Y-34024D01*
X40303Y-34025D01*
X40497Y-33945D01*
X40566Y-33875D01*
X40573Y-33893D01*
X40722Y-33906D01*
X41129Y-33500D01*
X40722Y-33093D01*
X40646Y-33100D01*
X40646Y-32946D01*
X40800Y-32946D01*
X40793Y-33022D01*
X41200Y-33429D01*
X41205Y-33423D01*
X41276Y-33494D01*
X41270Y-33500D01*
X41276Y-33505D01*
X41205Y-33576D01*
X41200Y-33570D01*
X40793Y-33977D01*
X40806Y-34126D01*
X41076Y-34228D01*
X41364Y-34220D01*
X41454Y-34183D01*
X41454Y-35974D01*
X41454Y-35974D01*
G37*
G54D23*
X41454Y-35974D02*
X41425Y-35974D01*
X40875Y-35974D01*
X40783Y-36012D01*
X40743Y-36053D01*
X40492Y-36053D01*
X40304Y-35975D01*
X40099Y-35974D01*
X39312Y-35187D01*
X39312Y-35187D01*
X39312Y-35187D01*
X39212Y-35087D01*
X39212Y-35087D01*
X39212Y-35087D01*
X39112Y-34987D01*
X39014Y-34922D01*
X38900Y-34900D01*
X35606Y-34900D01*
X35606Y-32977D01*
X35200Y-32570D01*
X34793Y-32977D01*
X34806Y-33126D01*
X35076Y-33228D01*
X35364Y-33220D01*
X35593Y-33126D01*
X35606Y-32977D01*
X35606Y-34900D01*
X34828Y-34900D01*
X34828Y-33623D01*
X34820Y-33335D01*
X34726Y-33106D01*
X34577Y-33093D01*
X34170Y-33500D01*
X34577Y-33906D01*
X34726Y-33893D01*
X34828Y-33623D01*
X34828Y-34900D01*
X34506Y-34900D01*
X34506Y-33977D01*
X34100Y-33570D01*
X33693Y-33977D01*
X33706Y-34126D01*
X33976Y-34228D01*
X34264Y-34220D01*
X34493Y-34126D01*
X34506Y-33977D01*
X34506Y-34900D01*
X28506Y-34900D01*
X28506Y-32977D01*
X28100Y-32570D01*
X27693Y-32977D01*
X27706Y-33126D01*
X27976Y-33228D01*
X28264Y-33220D01*
X28493Y-33126D01*
X28506Y-32977D01*
X28506Y-34900D01*
X27728Y-34900D01*
X27728Y-33623D01*
X27720Y-33335D01*
X27626Y-33106D01*
X27477Y-33093D01*
X27070Y-33500D01*
X27477Y-33906D01*
X27626Y-33893D01*
X27728Y-33623D01*
X27728Y-34900D01*
X27406Y-34900D01*
X27406Y-33977D01*
X27000Y-33570D01*
X26593Y-33977D01*
X26606Y-34126D01*
X26876Y-34228D01*
X27164Y-34220D01*
X27393Y-34126D01*
X27406Y-33977D01*
X27406Y-34900D01*
X21124Y-34900D01*
X20700Y-34475D01*
X20700Y-33161D01*
X20876Y-33228D01*
X21164Y-33220D01*
X21393Y-33126D01*
X21406Y-32977D01*
X21000Y-32570D01*
X20994Y-32576D01*
X20923Y-32505D01*
X20929Y-32500D01*
X20923Y-32494D01*
X20994Y-32423D01*
X21000Y-32429D01*
X21406Y-32022D01*
X21393Y-31873D01*
X21199Y-31800D01*
X21998Y-31800D01*
X22058Y-31860D01*
X22215Y-31924D01*
X22384Y-31925D01*
X22540Y-31860D01*
X22553Y-31847D01*
X22553Y-32207D01*
X22475Y-32395D01*
X22474Y-32603D01*
X22553Y-32793D01*
X22553Y-33207D01*
X22499Y-33335D01*
X22445Y-33203D01*
X22297Y-33055D01*
X22104Y-32975D01*
X21896Y-32974D01*
X21728Y-33044D01*
X21728Y-32623D01*
X21720Y-32335D01*
X21626Y-32106D01*
X21477Y-32093D01*
X21070Y-32500D01*
X21477Y-32906D01*
X21626Y-32893D01*
X21728Y-32623D01*
X21728Y-33044D01*
X21703Y-33054D01*
X21555Y-33202D01*
X21475Y-33395D01*
X21474Y-33603D01*
X21554Y-33797D01*
X21702Y-33944D01*
X21895Y-34024D01*
X22103Y-34025D01*
X22297Y-33945D01*
X22444Y-33797D01*
X22500Y-33664D01*
X22554Y-33797D01*
X22702Y-33944D01*
X22895Y-34024D01*
X23103Y-34025D01*
X23297Y-33945D01*
X23444Y-33797D01*
X23500Y-33664D01*
X23554Y-33797D01*
X23702Y-33944D01*
X23895Y-34024D01*
X24103Y-34025D01*
X24297Y-33945D01*
X24444Y-33797D01*
X24500Y-33664D01*
X24554Y-33797D01*
X24702Y-33944D01*
X24895Y-34024D01*
X25103Y-34025D01*
X25297Y-33945D01*
X25444Y-33797D01*
X25500Y-33664D01*
X25554Y-33797D01*
X25702Y-33944D01*
X25895Y-34024D01*
X26103Y-34025D01*
X26297Y-33945D01*
X26366Y-33875D01*
X26373Y-33893D01*
X26522Y-33906D01*
X26929Y-33500D01*
X26522Y-33093D01*
X26446Y-33100D01*
X26446Y-32946D01*
X26600Y-32946D01*
X26593Y-33022D01*
X27000Y-33429D01*
X27406Y-33022D01*
X27393Y-32873D01*
X27375Y-32867D01*
X27437Y-32805D01*
X27473Y-32893D01*
X27622Y-32906D01*
X28029Y-32500D01*
X27622Y-32093D01*
X27473Y-32106D01*
X27439Y-32197D01*
X27297Y-32055D01*
X27104Y-31975D01*
X26896Y-31974D01*
X26706Y-32053D01*
X26446Y-32053D01*
X26446Y-31792D01*
X26524Y-31604D01*
X26525Y-31396D01*
X26445Y-31203D01*
X26297Y-31055D01*
X26104Y-30975D01*
X25896Y-30974D01*
X25703Y-31054D01*
X25555Y-31202D01*
X25475Y-31395D01*
X25474Y-31603D01*
X25553Y-31793D01*
X25553Y-32053D01*
X24900Y-32053D01*
X24728Y-32087D01*
X24584Y-32184D01*
X24480Y-32287D01*
X24446Y-32206D01*
X24446Y-31792D01*
X24524Y-31604D01*
X24525Y-31396D01*
X24445Y-31203D01*
X24297Y-31055D01*
X24104Y-30975D01*
X23896Y-30974D01*
X23703Y-31054D01*
X23555Y-31202D01*
X23475Y-31395D01*
X23474Y-31603D01*
X23553Y-31793D01*
X23553Y-32207D01*
X23499Y-32335D01*
X23446Y-32206D01*
X23446Y-30945D01*
X29653Y-30945D01*
X29653Y-32207D01*
X29575Y-32395D01*
X29574Y-32603D01*
X29653Y-32793D01*
X29653Y-33207D01*
X29599Y-33335D01*
X29545Y-33203D01*
X29397Y-33055D01*
X29204Y-32975D01*
X28996Y-32974D01*
X28828Y-33044D01*
X28828Y-32623D01*
X28820Y-32335D01*
X28726Y-32106D01*
X28577Y-32093D01*
X28506Y-32164D01*
X28506Y-32022D01*
X28493Y-31873D01*
X28223Y-31771D01*
X27935Y-31779D01*
X27706Y-31873D01*
X27693Y-32022D01*
X28100Y-32429D01*
X28506Y-32022D01*
X28506Y-32164D01*
X28170Y-32500D01*
X28577Y-32906D01*
X28726Y-32893D01*
X28828Y-32623D01*
X28828Y-33044D01*
X28803Y-33054D01*
X28655Y-33202D01*
X28575Y-33395D01*
X28574Y-33603D01*
X28654Y-33797D01*
X28802Y-33944D01*
X28995Y-34024D01*
X29203Y-34025D01*
X29397Y-33945D01*
X29544Y-33797D01*
X29600Y-33664D01*
X29654Y-33797D01*
X29802Y-33944D01*
X29995Y-34024D01*
X30203Y-34025D01*
X30397Y-33945D01*
X30544Y-33797D01*
X30600Y-33664D01*
X30654Y-33797D01*
X30802Y-33944D01*
X30995Y-34024D01*
X31203Y-34025D01*
X31397Y-33945D01*
X31544Y-33797D01*
X31600Y-33664D01*
X31654Y-33797D01*
X31802Y-33944D01*
X31995Y-34024D01*
X32203Y-34025D01*
X32397Y-33945D01*
X32544Y-33797D01*
X32600Y-33664D01*
X32654Y-33797D01*
X32802Y-33944D01*
X32995Y-34024D01*
X33203Y-34025D01*
X33397Y-33945D01*
X33466Y-33875D01*
X33473Y-33893D01*
X33622Y-33906D01*
X34029Y-33500D01*
X33622Y-33093D01*
X33546Y-33100D01*
X33546Y-32846D01*
X33704Y-32846D01*
X33724Y-32866D01*
X33706Y-32873D01*
X33693Y-33022D01*
X34100Y-33429D01*
X34506Y-33022D01*
X34493Y-32873D01*
X34475Y-32867D01*
X34537Y-32805D01*
X34573Y-32893D01*
X34722Y-32906D01*
X35129Y-32500D01*
X34722Y-32093D01*
X34573Y-32106D01*
X34539Y-32197D01*
X34397Y-32055D01*
X34204Y-31975D01*
X34109Y-31975D01*
X34109Y-31975D01*
X34000Y-31953D01*
X33546Y-31953D01*
X33546Y-31792D01*
X33624Y-31604D01*
X33625Y-31396D01*
X33545Y-31203D01*
X33397Y-31055D01*
X33204Y-30975D01*
X32996Y-30974D01*
X32803Y-31054D01*
X32655Y-31202D01*
X32575Y-31395D01*
X32574Y-31603D01*
X32653Y-31793D01*
X32653Y-31953D01*
X32200Y-31953D01*
X32028Y-31987D01*
X31884Y-32084D01*
X31609Y-32358D01*
X31546Y-32206D01*
X31546Y-31792D01*
X31624Y-31604D01*
X31625Y-31396D01*
X31545Y-31203D01*
X31397Y-31055D01*
X31204Y-30975D01*
X30996Y-30974D01*
X30803Y-31054D01*
X30655Y-31202D01*
X30575Y-31395D01*
X30574Y-31603D01*
X30653Y-31793D01*
X30653Y-32207D01*
X30599Y-32335D01*
X30546Y-32206D01*
X30546Y-30945D01*
X35800Y-30945D01*
X36753Y-30945D01*
X36753Y-32207D01*
X36675Y-32395D01*
X36674Y-32603D01*
X36753Y-32793D01*
X36753Y-33207D01*
X36699Y-33335D01*
X36645Y-33203D01*
X36497Y-33055D01*
X36304Y-32975D01*
X36096Y-32974D01*
X35928Y-33044D01*
X35928Y-32623D01*
X35920Y-32335D01*
X35826Y-32106D01*
X35677Y-32093D01*
X35606Y-32164D01*
X35606Y-32022D01*
X35593Y-31873D01*
X35323Y-31771D01*
X35035Y-31779D01*
X34806Y-31873D01*
X34793Y-32022D01*
X35200Y-32429D01*
X35606Y-32022D01*
X35606Y-32164D01*
X35270Y-32500D01*
X35677Y-32906D01*
X35826Y-32893D01*
X35928Y-32623D01*
X35928Y-33044D01*
X35903Y-33054D01*
X35755Y-33202D01*
X35675Y-33395D01*
X35674Y-33603D01*
X35754Y-33797D01*
X35902Y-33944D01*
X36095Y-34024D01*
X36303Y-34025D01*
X36497Y-33945D01*
X36644Y-33797D01*
X36700Y-33664D01*
X36754Y-33797D01*
X36902Y-33944D01*
X37095Y-34024D01*
X37303Y-34025D01*
X37497Y-33945D01*
X37644Y-33797D01*
X37700Y-33664D01*
X37754Y-33797D01*
X37902Y-33944D01*
X38095Y-34024D01*
X38303Y-34025D01*
X38497Y-33945D01*
X38644Y-33797D01*
X38700Y-33664D01*
X38754Y-33797D01*
X38902Y-33944D01*
X39095Y-34024D01*
X39303Y-34025D01*
X39497Y-33945D01*
X39644Y-33797D01*
X39700Y-33664D01*
X39754Y-33797D01*
X39902Y-33944D01*
X40095Y-34024D01*
X40303Y-34025D01*
X40497Y-33945D01*
X40566Y-33875D01*
X40573Y-33893D01*
X40722Y-33906D01*
X41129Y-33500D01*
X40722Y-33093D01*
X40646Y-33100D01*
X40646Y-32946D01*
X40800Y-32946D01*
X40793Y-33022D01*
X41200Y-33429D01*
X41205Y-33423D01*
X41276Y-33494D01*
X41270Y-33500D01*
X41276Y-33505D01*
X41205Y-33576D01*
X41200Y-33570D01*
X40793Y-33977D01*
X40806Y-34126D01*
X41076Y-34228D01*
X41364Y-34220D01*
X41454Y-34183D01*
X41454Y-35974D01*
G54D10*
G36*
X43054Y-29854D02*
X41774Y-29854D01*
X41797Y-29845D01*
X41944Y-29697D01*
X42024Y-29504D01*
X42025Y-29296D01*
X41945Y-29103D01*
X41797Y-28955D01*
X41664Y-28899D01*
X41793Y-28846D01*
X42043Y-28846D01*
X42083Y-28886D01*
X42175Y-28924D01*
X42274Y-28925D01*
X42824Y-28925D01*
X42916Y-28887D01*
X42986Y-28816D01*
X43024Y-28724D01*
X43025Y-28625D01*
X43025Y-28075D01*
X42987Y-27983D01*
X42916Y-27913D01*
X42906Y-27908D01*
X42906Y-25877D01*
X42500Y-25470D01*
X42093Y-25877D01*
X42106Y-26026D01*
X42376Y-26128D01*
X42664Y-26120D01*
X42893Y-26026D01*
X42906Y-25877D01*
X42906Y-27908D01*
X42824Y-27875D01*
X42725Y-27874D01*
X42175Y-27874D01*
X42083Y-27912D01*
X42043Y-27953D01*
X41792Y-27953D01*
X41604Y-27875D01*
X41396Y-27874D01*
X41203Y-27954D01*
X41055Y-28102D01*
X40999Y-28235D01*
X40946Y-28106D01*
X40946Y-27600D01*
X40912Y-27428D01*
X40912Y-27428D01*
X40815Y-27284D01*
X39515Y-25984D01*
X39427Y-25924D01*
X39603Y-25925D01*
X39797Y-25845D01*
X39944Y-25697D01*
X40000Y-25564D01*
X40054Y-25697D01*
X40202Y-25844D01*
X40395Y-25924D01*
X40603Y-25925D01*
X40797Y-25845D01*
X40944Y-25697D01*
X41000Y-25564D01*
X41054Y-25697D01*
X41202Y-25844D01*
X41395Y-25924D01*
X41603Y-25925D01*
X41797Y-25845D01*
X41866Y-25775D01*
X41873Y-25793D01*
X42022Y-25806D01*
X42429Y-25400D01*
X42022Y-24993D01*
X41946Y-25000D01*
X41946Y-24846D01*
X42100Y-24846D01*
X42093Y-24922D01*
X42500Y-25329D01*
X42906Y-24922D01*
X42893Y-24773D01*
X42875Y-24767D01*
X42944Y-24697D01*
X43024Y-24504D01*
X43025Y-24296D01*
X42945Y-24103D01*
X42797Y-23955D01*
X42604Y-23875D01*
X42396Y-23874D01*
X42206Y-23953D01*
X41946Y-23953D01*
X41946Y-23692D01*
X42024Y-23504D01*
X42025Y-23296D01*
X41945Y-23103D01*
X41797Y-22955D01*
X41604Y-22875D01*
X41396Y-22874D01*
X41203Y-22954D01*
X41055Y-23102D01*
X40975Y-23295D01*
X40974Y-23503D01*
X41053Y-23693D01*
X41053Y-23953D01*
X40400Y-23953D01*
X40228Y-23987D01*
X40084Y-24084D01*
X39980Y-24187D01*
X39946Y-24106D01*
X39946Y-23692D01*
X40024Y-23504D01*
X40025Y-23296D01*
X39945Y-23103D01*
X39797Y-22955D01*
X39604Y-22875D01*
X39396Y-22874D01*
X39203Y-22954D01*
X39055Y-23102D01*
X38975Y-23295D01*
X38974Y-23503D01*
X39053Y-23693D01*
X39053Y-24107D01*
X38999Y-24235D01*
X38946Y-24106D01*
X38946Y-22456D01*
X38986Y-22416D01*
X39009Y-22361D01*
X39645Y-21725D01*
X39575Y-21895D01*
X39574Y-22103D01*
X39654Y-22297D01*
X39802Y-22444D01*
X39995Y-22524D01*
X40203Y-22525D01*
X40397Y-22445D01*
X40544Y-22297D01*
X40624Y-22104D01*
X40625Y-21896D01*
X40545Y-21703D01*
X40397Y-21555D01*
X40204Y-21475D01*
X39996Y-21474D01*
X39825Y-21545D01*
X39925Y-21445D01*
X40800Y-21445D01*
X41774Y-21445D01*
X42714Y-22385D01*
X42714Y-22385D01*
X43054Y-22725D01*
X43054Y-25000D01*
X42977Y-24993D01*
X42570Y-25400D01*
X42977Y-25806D01*
X43054Y-25799D01*
X43054Y-29854D01*
X43054Y-29854D01*
G37*
G54D23*
X43054Y-29854D02*
X41774Y-29854D01*
X41797Y-29845D01*
X41944Y-29697D01*
X42024Y-29504D01*
X42025Y-29296D01*
X41945Y-29103D01*
X41797Y-28955D01*
X41664Y-28899D01*
X41793Y-28846D01*
X42043Y-28846D01*
X42083Y-28886D01*
X42175Y-28924D01*
X42274Y-28925D01*
X42824Y-28925D01*
X42916Y-28887D01*
X42986Y-28816D01*
X43024Y-28724D01*
X43025Y-28625D01*
X43025Y-28075D01*
X42987Y-27983D01*
X42916Y-27913D01*
X42906Y-27908D01*
X42906Y-25877D01*
X42500Y-25470D01*
X42093Y-25877D01*
X42106Y-26026D01*
X42376Y-26128D01*
X42664Y-26120D01*
X42893Y-26026D01*
X42906Y-25877D01*
X42906Y-27908D01*
X42824Y-27875D01*
X42725Y-27874D01*
X42175Y-27874D01*
X42083Y-27912D01*
X42043Y-27953D01*
X41792Y-27953D01*
X41604Y-27875D01*
X41396Y-27874D01*
X41203Y-27954D01*
X41055Y-28102D01*
X40999Y-28235D01*
X40946Y-28106D01*
X40946Y-27600D01*
X40912Y-27428D01*
X40912Y-27428D01*
X40815Y-27284D01*
X39515Y-25984D01*
X39427Y-25924D01*
X39603Y-25925D01*
X39797Y-25845D01*
X39944Y-25697D01*
X40000Y-25564D01*
X40054Y-25697D01*
X40202Y-25844D01*
X40395Y-25924D01*
X40603Y-25925D01*
X40797Y-25845D01*
X40944Y-25697D01*
X41000Y-25564D01*
X41054Y-25697D01*
X41202Y-25844D01*
X41395Y-25924D01*
X41603Y-25925D01*
X41797Y-25845D01*
X41866Y-25775D01*
X41873Y-25793D01*
X42022Y-25806D01*
X42429Y-25400D01*
X42022Y-24993D01*
X41946Y-25000D01*
X41946Y-24846D01*
X42100Y-24846D01*
X42093Y-24922D01*
X42500Y-25329D01*
X42906Y-24922D01*
X42893Y-24773D01*
X42875Y-24767D01*
X42944Y-24697D01*
X43024Y-24504D01*
X43025Y-24296D01*
X42945Y-24103D01*
X42797Y-23955D01*
X42604Y-23875D01*
X42396Y-23874D01*
X42206Y-23953D01*
X41946Y-23953D01*
X41946Y-23692D01*
X42024Y-23504D01*
X42025Y-23296D01*
X41945Y-23103D01*
X41797Y-22955D01*
X41604Y-22875D01*
X41396Y-22874D01*
X41203Y-22954D01*
X41055Y-23102D01*
X40975Y-23295D01*
X40974Y-23503D01*
X41053Y-23693D01*
X41053Y-23953D01*
X40400Y-23953D01*
X40228Y-23987D01*
X40084Y-24084D01*
X39980Y-24187D01*
X39946Y-24106D01*
X39946Y-23692D01*
X40024Y-23504D01*
X40025Y-23296D01*
X39945Y-23103D01*
X39797Y-22955D01*
X39604Y-22875D01*
X39396Y-22874D01*
X39203Y-22954D01*
X39055Y-23102D01*
X38975Y-23295D01*
X38974Y-23503D01*
X39053Y-23693D01*
X39053Y-24107D01*
X38999Y-24235D01*
X38946Y-24106D01*
X38946Y-22456D01*
X38986Y-22416D01*
X39009Y-22361D01*
X39645Y-21725D01*
X39575Y-21895D01*
X39574Y-22103D01*
X39654Y-22297D01*
X39802Y-22444D01*
X39995Y-22524D01*
X40203Y-22525D01*
X40397Y-22445D01*
X40544Y-22297D01*
X40624Y-22104D01*
X40625Y-21896D01*
X40545Y-21703D01*
X40397Y-21555D01*
X40204Y-21475D01*
X39996Y-21474D01*
X39825Y-21545D01*
X39925Y-21445D01*
X40800Y-21445D01*
X41774Y-21445D01*
X42714Y-22385D01*
X42714Y-22385D01*
X43054Y-22725D01*
X43054Y-25000D01*
X42977Y-24993D01*
X42570Y-25400D01*
X42977Y-25806D01*
X43054Y-25799D01*
X43054Y-29854D01*
M02*
