G04 (created by PCBNEW (2013-07-07 BZR 4022)-stable) date 02/12/2014 00:26:50*
%MOIN*%
G04 Gerber Fmt 3.4, Leading zero omitted, Abs format*
%FSLAX34Y34*%
G01*
G70*
G90*
G04 APERTURE LIST*
%ADD10C,0.00590551*%
%ADD11R,0.055X0.055*%
%ADD12C,0.055*%
%ADD13C,0.0688976*%
%ADD14R,0.05X0.016*%
%ADD15R,0.025X0.045*%
%ADD16R,0.045X0.025*%
%ADD17C,0.06*%
%ADD18C,0.0787402*%
%ADD19C,0.0590551*%
%ADD20C,0.056*%
%ADD21R,0.063X0.1024*%
%ADD22R,0.1378X0.1378*%
%ADD23R,0.038X0.05*%
%ADD24C,0.16*%
%ADD25R,0.0197X0.0906*%
%ADD26R,0.0787X0.0984*%
%ADD27C,0.0354*%
%ADD28R,0.1772X0.0787*%
%ADD29R,0.06X0.06*%
G04 APERTURE END LIST*
G54D10*
G54D11*
X38500Y-22000D03*
G54D12*
X37500Y-22000D03*
X37500Y-23000D03*
G54D13*
X36000Y-15500D03*
X36000Y-13500D03*
X36000Y-16500D03*
X36000Y-17500D03*
G54D14*
X15100Y-18850D03*
X15100Y-19100D03*
X15100Y-19360D03*
X15100Y-19620D03*
X15100Y-19870D03*
X15100Y-20130D03*
X15100Y-20390D03*
X15100Y-20640D03*
X15100Y-20900D03*
X15100Y-21150D03*
X15100Y-21410D03*
X15100Y-21670D03*
X15100Y-21920D03*
X15100Y-22180D03*
X17900Y-22180D03*
X17900Y-21920D03*
X17900Y-21680D03*
X17900Y-21410D03*
X17900Y-21150D03*
X17900Y-20900D03*
X17900Y-20640D03*
X17900Y-20390D03*
X17900Y-20130D03*
X17900Y-19870D03*
X17900Y-19620D03*
X17900Y-19360D03*
X17900Y-19100D03*
X17900Y-18850D03*
G54D15*
X15100Y-16400D03*
X14500Y-16400D03*
G54D16*
X19500Y-18800D03*
X19500Y-18200D03*
X29500Y-20800D03*
X29500Y-20200D03*
X19500Y-20000D03*
X19500Y-20600D03*
X29500Y-14200D03*
X29500Y-14800D03*
X19500Y-22300D03*
X19500Y-21700D03*
X23500Y-18800D03*
X23500Y-18200D03*
X13500Y-36800D03*
X13500Y-36200D03*
G54D17*
X13200Y-24800D03*
X14200Y-23800D03*
X15200Y-24800D03*
G54D12*
X24000Y-32500D03*
X27000Y-32500D03*
X26000Y-33500D03*
X26000Y-36500D03*
X41500Y-25400D03*
X41500Y-28400D03*
X38200Y-32500D03*
X41200Y-32500D03*
X39500Y-24400D03*
X42500Y-24400D03*
X40200Y-33500D03*
X40200Y-36500D03*
X33100Y-33500D03*
X33100Y-36500D03*
X31100Y-32500D03*
X34100Y-32500D03*
X31000Y-17000D03*
X34000Y-17000D03*
X24000Y-27000D03*
X21000Y-27000D03*
X24000Y-26000D03*
X21000Y-26000D03*
X34000Y-18000D03*
X31000Y-18000D03*
X33500Y-16000D03*
X33500Y-13000D03*
X43100Y-22000D03*
X40100Y-22000D03*
X17000Y-26900D03*
X17000Y-29900D03*
G54D18*
X14622Y-36507D03*
X17377Y-36507D03*
G54D19*
X16885Y-37492D03*
X15114Y-37492D03*
G54D20*
X21500Y-23000D03*
X21500Y-21000D03*
G54D11*
X36200Y-36500D03*
G54D12*
X37200Y-36500D03*
X38200Y-36500D03*
X39200Y-36500D03*
X39200Y-33500D03*
X38200Y-33500D03*
X37200Y-33500D03*
X36200Y-33500D03*
G54D11*
X12900Y-29900D03*
G54D12*
X13900Y-29900D03*
X14900Y-29900D03*
X15900Y-29900D03*
X15900Y-26900D03*
X14900Y-26900D03*
X13900Y-26900D03*
X12900Y-26900D03*
G54D11*
X29100Y-36500D03*
G54D12*
X30100Y-36500D03*
X31100Y-36500D03*
X32100Y-36500D03*
X32100Y-33500D03*
X31100Y-33500D03*
X30100Y-33500D03*
X29100Y-33500D03*
G54D11*
X22000Y-36500D03*
G54D12*
X23000Y-36500D03*
X24000Y-36500D03*
X25000Y-36500D03*
X25000Y-33500D03*
X24000Y-33500D03*
X23000Y-33500D03*
X22000Y-33500D03*
G54D11*
X37500Y-28400D03*
G54D12*
X38500Y-28400D03*
X39500Y-28400D03*
X40500Y-28400D03*
X40500Y-25400D03*
X39500Y-25400D03*
X38500Y-25400D03*
X37500Y-25400D03*
X25000Y-15000D03*
X25000Y-16000D03*
X25000Y-17000D03*
X25000Y-18000D03*
X25000Y-19000D03*
X25000Y-20000D03*
X25000Y-21000D03*
X25000Y-22000D03*
X25000Y-23000D03*
X25000Y-24000D03*
X25000Y-25000D03*
X25000Y-26000D03*
X25000Y-27000D03*
G54D11*
X25000Y-14000D03*
G54D12*
X28000Y-27000D03*
X28000Y-26000D03*
X28000Y-25000D03*
X28000Y-24000D03*
X28000Y-23000D03*
X28000Y-22000D03*
X28000Y-21000D03*
X28000Y-20000D03*
X28000Y-19000D03*
X28000Y-18000D03*
X28000Y-17000D03*
X28000Y-16000D03*
X28000Y-15000D03*
X28000Y-14000D03*
G54D11*
X42500Y-28400D03*
G54D12*
X42500Y-25400D03*
G54D11*
X34100Y-36500D03*
G54D12*
X34100Y-33500D03*
G54D11*
X41200Y-36500D03*
G54D12*
X41200Y-33500D03*
G54D11*
X27000Y-36500D03*
G54D12*
X27000Y-33500D03*
G54D21*
X13000Y-19291D03*
X13000Y-20709D03*
G54D12*
X23000Y-32500D03*
X21000Y-32500D03*
X26000Y-37500D03*
X24000Y-37500D03*
X38500Y-24400D03*
X36500Y-24400D03*
X41500Y-29400D03*
X39500Y-29400D03*
X39500Y-23400D03*
X41500Y-23400D03*
X24000Y-31500D03*
X26000Y-31500D03*
X33100Y-37500D03*
X31100Y-37500D03*
X38200Y-31500D03*
X40200Y-31500D03*
X30100Y-32500D03*
X28100Y-32500D03*
X40200Y-37500D03*
X38200Y-37500D03*
X37200Y-32500D03*
X35200Y-32500D03*
X31100Y-31500D03*
X33100Y-31500D03*
X13900Y-31400D03*
X14900Y-31400D03*
G54D22*
X40000Y-16441D03*
X40000Y-14079D03*
X38150Y-15260D03*
G54D11*
X40800Y-20900D03*
G54D12*
X40800Y-17900D03*
G54D23*
X29360Y-12990D03*
X30650Y-12990D03*
G54D12*
X38500Y-18500D03*
X38500Y-19500D03*
G54D16*
X21500Y-18800D03*
X21500Y-18200D03*
G54D12*
X20300Y-37500D03*
X19300Y-37500D03*
X21300Y-37500D03*
G54D24*
X12700Y-17080D03*
X12700Y-33720D03*
X43499Y-17080D03*
X43499Y-33720D03*
G54D25*
X16630Y-14858D03*
X16315Y-14858D03*
X16000Y-14858D03*
X15685Y-14858D03*
X15370Y-14858D03*
G54D26*
X17752Y-14819D03*
X17752Y-12654D03*
X14248Y-14819D03*
X14248Y-12654D03*
G54D27*
X16866Y-13835D03*
X15134Y-13835D03*
G54D16*
X31000Y-14200D03*
X31000Y-14800D03*
G54D11*
X32000Y-20000D03*
G54D12*
X32000Y-21000D03*
X31000Y-21000D03*
G54D11*
X34500Y-23000D03*
G54D12*
X34500Y-22000D03*
X35500Y-22000D03*
G54D11*
X16600Y-24800D03*
G54D12*
X17600Y-24800D03*
X17600Y-23800D03*
G54D28*
X21500Y-16081D03*
X21500Y-13719D03*
G54D29*
X30500Y-25500D03*
G54D17*
X30500Y-24500D03*
X31500Y-25500D03*
X31500Y-24500D03*
X32500Y-25500D03*
X32500Y-24500D03*
G54D29*
X34000Y-28000D03*
G54D17*
X34000Y-29000D03*
X33000Y-28000D03*
X33000Y-29000D03*
X32000Y-28000D03*
X32000Y-29000D03*
X31000Y-28000D03*
X31000Y-29000D03*
M02*
