M48
;DRILL file {Pcbnew (2013-07-07 BZR 4022)-stable} date 02/12/2014 00:26:54
;FORMAT={-:-/ absolute / inch / decimal}
FMAT,2
INCH,TZ
T1C0.025
T2C0.030
T3C0.032
T4C0.039
T5C0.039
T6C0.040
T7C0.043
T8C0.051
T9C0.120
%
G90
G05
M72
T1
X1.3Y-2.22
X1.38Y-1.6
X1.54Y-1.74
X1.56Y-1.58
X1.6Y-1.74
X1.6Y-1.88
X1.6Y-1.94
X1.6Y-2.
X1.62Y-1.58
X1.65Y-1.74
X1.95Y-2.11
X1.95Y-3.55
X2.13Y-3.03
X2.16Y-3.07
X2.19Y-3.11
X2.23Y-3.15
X2.25Y-1.88
X2.4Y-1.5
X2.4Y-1.6
X2.4Y-1.7
X2.5Y-2.82
X2.81Y-3.65
X2.9Y-1.7
X2.95Y-1.92
X2.98Y-2.7
X3.02Y-2.34
X3.31Y-2.19
X3.52Y-3.65
X3.88Y-2.7
T2
X2.15Y-2.1
X2.15Y-2.3
T3
X1.29Y-2.69
X1.29Y-2.99
X1.32Y-2.48
X1.39Y-2.69
X1.39Y-2.99
X1.39Y-3.14
X1.42Y-2.38
X1.49Y-2.69
X1.49Y-2.99
X1.49Y-3.14
X1.52Y-2.48
X1.59Y-2.69
X1.59Y-2.99
X1.66Y-2.48
X1.7Y-2.69
X1.7Y-2.99
X1.76Y-2.38
X1.76Y-2.48
X1.93Y-3.75
X2.03Y-3.75
X2.1Y-2.6
X2.1Y-2.7
X2.1Y-3.25
X2.13Y-3.75
X2.2Y-3.35
X2.2Y-3.65
X2.3Y-3.25
X2.3Y-3.35
X2.3Y-3.65
X2.4Y-2.6
X2.4Y-2.7
X2.4Y-3.15
X2.4Y-3.25
X2.4Y-3.35
X2.4Y-3.65
X2.4Y-3.75
X2.5Y-1.4
X2.5Y-1.5
X2.5Y-1.6
X2.5Y-1.7
X2.5Y-1.8
X2.5Y-1.9
X2.5Y-2.
X2.5Y-2.1
X2.5Y-2.2
X2.5Y-2.3
X2.5Y-2.4
X2.5Y-2.5
X2.5Y-2.6
X2.5Y-2.7
X2.5Y-3.35
X2.5Y-3.65
X2.6Y-3.15
X2.6Y-3.35
X2.6Y-3.65
X2.6Y-3.75
X2.7Y-3.25
X2.7Y-3.35
X2.7Y-3.65
X2.8Y-1.4
X2.8Y-1.5
X2.8Y-1.6
X2.8Y-1.7
X2.8Y-1.8
X2.8Y-1.9
X2.8Y-2.
X2.8Y-2.1
X2.8Y-2.2
X2.8Y-2.3
X2.8Y-2.4
X2.8Y-2.5
X2.8Y-2.6
X2.8Y-2.7
X2.81Y-3.25
X2.91Y-3.35
X2.91Y-3.65
X3.01Y-3.25
X3.01Y-3.35
X3.01Y-3.65
X3.1Y-1.7
X3.1Y-1.8
X3.1Y-2.1
X3.11Y-3.15
X3.11Y-3.25
X3.11Y-3.35
X3.11Y-3.65
X3.11Y-3.75
X3.2Y-2.
X3.2Y-2.1
X3.21Y-3.35
X3.21Y-3.65
X3.31Y-3.15
X3.31Y-3.35
X3.31Y-3.65
X3.31Y-3.75
X3.35Y-1.3
X3.35Y-1.6
X3.4Y-1.7
X3.4Y-1.8
X3.41Y-3.25
X3.41Y-3.35
X3.41Y-3.65
X3.45Y-2.2
X3.45Y-2.3
X3.52Y-3.25
X3.55Y-2.2
X3.62Y-3.35
X3.62Y-3.65
X3.65Y-2.44
X3.72Y-3.25
X3.72Y-3.35
X3.72Y-3.65
X3.75Y-2.2
X3.75Y-2.3
X3.75Y-2.54
X3.75Y-2.84
X3.82Y-3.15
X3.82Y-3.25
X3.82Y-3.35
X3.82Y-3.65
X3.82Y-3.75
X3.85Y-1.85
X3.85Y-1.95
X3.85Y-2.2
X3.85Y-2.44
X3.85Y-2.54
X3.85Y-2.84
X3.92Y-3.35
X3.92Y-3.65
X3.95Y-2.34
X3.95Y-2.44
X3.95Y-2.54
X3.95Y-2.84
X3.95Y-2.94
X4.01Y-2.2
X4.02Y-3.15
X4.02Y-3.35
X4.02Y-3.65
X4.02Y-3.75
X4.05Y-2.54
X4.05Y-2.84
X4.08Y-1.79
X4.08Y-2.09
X4.12Y-3.25
X4.12Y-3.35
X4.12Y-3.65
X4.15Y-2.34
X4.15Y-2.54
X4.15Y-2.84
X4.15Y-2.94
X4.25Y-2.44
X4.25Y-2.54
X4.25Y-2.84
X4.31Y-2.2
T4
X1.5114Y-3.7492
X1.6886Y-3.7492
T6
X3.05Y-2.45
X3.05Y-2.55
X3.1Y-2.8
X3.1Y-2.9
X3.15Y-2.45
X3.15Y-2.55
X3.2Y-2.8
X3.2Y-2.9
X3.25Y-2.45
X3.25Y-2.55
X3.3Y-2.8
X3.3Y-2.9
X3.4Y-2.8
X3.4Y-2.9
T7
X3.6Y-1.35
X3.6Y-1.55
X3.6Y-1.65
X3.6Y-1.75
T8
X1.4622Y-3.6508
X1.7378Y-3.6508
T9
X1.27Y-1.708
X1.27Y-3.372
X4.35Y-1.708
X4.35Y-3.372
T5
X3.815Y-1.4867G85X3.815Y-1.5654
G05
X4.0393Y-1.4079G85X3.9606Y-1.4079
G05
X4.0393Y-1.6441G85X3.9606Y-1.6441
G05
T0
M30
